<svg xmlns="http://www.w3.org/2000/svg" viewBox="0 0 321.8 436.87"><defs><style>.cls-1{fill:#ffac75;}.cls-2{fill:#243047;}.cls-3{fill:#ff3363;}.cls-4{fill:#299fff;}.cls-5{fill:#02b6ba;}.cls-6{fill:#fff;}.cls-7{fill:#ffb842;}.cls-8{fill:#232323;}.cls-9{fill:#0e0c10;}</style></defs><g id="Layer_2" data-name="Layer 2"><g id="Layer_1-2" data-name="Layer 1"><g id="side_view" data-name="side view"><path class="cls-1" d="M173.22,228.56l1.21-24.91-19.52-.57L153.7,228l-10-.29a13.83,13.83,0,0,0-14.16,13.1l-1.81,37.35,67.36,1.95L197,242.76a13.22,13.22,0,0,0-12.86-13.89l-10.87-.31Z"/><path class="cls-2" d="M130.2,275.92l62.73,1.81,1.7-35.08A10.89,10.89,0,0,0,184,231.19l-10.87-.31a2.35,2.35,0,0,1-1.64-.75,2.3,2.3,0,0,1-.61-1.68L172,205.89l-14.89-.43L156,228.11a2.3,2.3,0,0,1-2.38,2.2l-10-.29a11.52,11.52,0,0,0-11.78,10.9l-1.69,35Zm66.51,5.89a2.3,2.3,0,0,1-1.64.62l-67.37-2a2.31,2.31,0,0,1-2.24-2.42l1.81-37.35a16.17,16.17,0,0,1,16.53-15.31l7.7.23L152.6,203a2.31,2.31,0,0,1,2.38-2.2l19.52.57a2.31,2.31,0,0,1,2.24,2.42l-1.09,22.56,8.51.25a15.48,15.48,0,0,1,15.09,16.3l-1.8,37.35a2.32,2.32,0,0,1-.74,1.59Z"/><path class="cls-3" d="M196.93,243l0-.21a13.22,13.22,0,0,0-12.86-13.89l-10.87-.31L153.7,228l-10-.29c-.35,0-.68,0-1,0l-11.15,20s27.18,25.08,36.63,31.62l4.46.13c4.3-5.18,16.1-23.56,24.26-36.49Z"/><path class="cls-2" d="M196.93,243h0ZM169,277l2.61.07c3.63-4.66,11.73-16.91,23.07-34.85A10.9,10.9,0,0,0,184,231.19L144.1,230l-9.61,17.21C140,252.24,160.57,271,169,277Zm5.27,4.12a2.35,2.35,0,0,1-1.64.62l-4.46-.13a2.41,2.41,0,0,1-1.25-.41c-9.47-6.56-35.76-30.8-36.87-31.83a2.32,2.32,0,0,1-.46-2.83l11.15-20a2.3,2.3,0,0,1,1.92-1.18h.06c.34,0,.71,0,1.11,0l40.36,1.17a15.52,15.52,0,0,1,15.1,16.31v.22a2.32,2.32,0,0,1-.36,1.12c-8.78,13.9-20.14,31.56-24.44,36.73a2.18,2.18,0,0,1-.21.22Z"/><path class="cls-4" d="M193,229.13h0a13.84,13.84,0,0,0-1.71,0l-7.26-.21a49.72,49.72,0,0,1,.1,6.48c-.88,18.23-42.79,17-41.9-1.22a49.89,49.89,0,0,1,.73-6.45l-7.26-.21a16.63,16.63,0,0,0-1.72-.05h0a25.49,25.49,0,0,0-26.08,24.13l-1.37,28.32,16.23.47,3.22,59.94a72.87,72.87,0,0,0,29.66,7.87A234.16,234.16,0,0,0,189,346.7l10-64.15,16.23.47,1.38-28.3A24.33,24.33,0,0,0,193,229.13Z"/><path class="cls-2" d="M128.17,338.83a72.25,72.25,0,0,0,27.52,7A233,233,0,0,0,187,344.6l9.76-62.41a2.31,2.31,0,0,1,2.35-1.95l14,.4,1.27-26a22,22,0,0,0-21.44-23.16l-.3,0a4.17,4.17,0,0,0-.74,0h-.68l-4.74-.14c0,1.4,0,2.79,0,4.2-.24,5.12-3.29,9.45-8.59,12.17-8.92,4.59-22.83,4-31-1.22-4.71-3-7.17-7.43-6.92-12.39.06-1.38.18-2.74.35-4.1l-4.64-.13-.68,0a4.75,4.75,0,0,0-.73,0h-.33a23.16,23.16,0,0,0-23.69,21.92l-1.25,26,13.87.4a2.31,2.31,0,0,1,2.24,2.19l3.14,58.61Zm62.43,9.58a2.3,2.3,0,0,1-1.29.59,239.29,239.29,0,0,1-33.8,1.46,74.66,74.66,0,0,1-30.7-8.16,2.29,2.29,0,0,1-1.18-1.89l-3.11-57.82-14.1-.4a2.32,2.32,0,0,1-2.24-2.43l1.37-28.32a27.82,27.82,0,0,1,28.34-26.33,8.59,8.59,0,0,1,1.36,0l.49,0,7.25.21a2.34,2.34,0,0,1,1.73.85,2.29,2.29,0,0,1,.48,1.87,49.89,49.89,0,0,0-.69,6.15c-.16,3.34,1.46,6.12,4.8,8.27,6.82,4.4,18.91,4.85,26.4,1,3.86-2,5.92-4.77,6.08-8.27a49.08,49.08,0,0,0-.09-6.18,2.25,2.25,0,0,1,.63-1.78,2.28,2.28,0,0,1,1.74-.72l7.25.21h.49a9.43,9.43,0,0,1,1.37,0,26.65,26.65,0,0,1,25.79,28l-1.37,28.31a2.32,2.32,0,0,1-2.38,2.2L201,284.93l-9.72,62.13a2.34,2.34,0,0,1-.71,1.35Z"/><path class="cls-2" d="M203.4,252.51a2.31,2.31,0,0,0-2.63,1.94L186.72,346.6a2.32,2.32,0,0,0,3.87,2,2.28,2.28,0,0,0,.71-1.35l14-92.15a2.3,2.3,0,0,0-1.94-2.63Z"/><path class="cls-2" d="M121.3,250.12a2.3,2.3,0,0,0-2.19,2.43l4.5,88.09a2.31,2.31,0,0,0,2.43,2.19,2.25,2.25,0,0,0,1.46-.61,2.35,2.35,0,0,0,.74-1.82l-4.51-88.09a2.33,2.33,0,0,0-2.43-2.19Z"/><path class="cls-1" d="M197.72,180.42c-.94,19.54-16.14,35-33.92,34.45s-31.44-16.78-30.49-36.32,16.13-35,33.92-34.46,31.44,16.78,30.49,36.33Z"/><path class="cls-2" d="M146.7,154.37a35.43,35.43,0,0,0-11.08,24.29,34.17,34.17,0,0,0,8.66,24.81,27.72,27.72,0,0,0,19.59,9.09c16.51.47,30.66-14,31.54-32.26h0a34.17,34.17,0,0,0-8.67-24.81,27.7,27.7,0,0,0-19.58-9.09,28.86,28.86,0,0,0-20.46,8ZM187.46,208a33.53,33.53,0,0,1-23.73,9.21,32.31,32.31,0,0,1-22.85-10.58A38.79,38.79,0,0,1,131,178.43c1-20.76,17.28-37.2,36.29-36.65a32.24,32.24,0,0,1,22.85,10.57A38.75,38.75,0,0,1,200,180.52,40,40,0,0,1,187.46,208Z"/><path class="cls-3" d="M166.36,142.1c-24.23-.7-38.31,21.31-39.21,39.87-.21,4.46,2.1,8.28,3.25,12.21,1.25,4.26,15,4.27,15.25-.22l.73-15.17c.33-6.83,5.76-12.21,12.13-12l15.22.44c6.36.19,11.25,5.87,10.92,12.7l-.73,15.17c-.22,4.49,13,7.32,14.68,3.15,1.53-3.86,4-9.32,4.25-13.78.91-18.57-12.25-41.64-36.49-42.34Z"/><path class="cls-2" d="M148.93,168.16a13.57,13.57,0,0,1,9.64-3.71l15.22.44a13.13,13.13,0,0,1,9.33,4.28A15,15,0,0,1,187,180l-.74,15.17c.07.41,1.59,1.75,4.78,2.45s5.21.08,5.44-.27l.74-1.81c1.42-3.48,3.19-7.82,3.35-11.23a41.47,41.47,0,0,0-10.71-29.16,32.73,32.73,0,0,0-23.53-10.75h0c-24.11-.69-36.06,21.61-36.84,37.67-.12,2.63.83,5.09,1.84,7.71.46,1.21.94,2.46,1.32,3.75.15.36,1.74,1.3,4.77,1.48,3.31.18,5.6-.69,6-1.22l.73-15.13a15.28,15.28,0,0,1,4.86-10.51Zm50.65,32.62c-2.18,2-6.25,2.08-9.54,1.37-5.28-1.14-8.59-4-8.43-7.2l.73-15.17a10.25,10.25,0,0,0-2.62-7.46,8.53,8.53,0,0,0-6.06-2.8l-15.22-.44c-5.11-.15-9.48,4.25-9.75,9.82L148,194.07c-.14,2.89-2.91,4.93-7.4,5.47-4.28.5-11.1-.33-12.38-4.7-.32-1.1-.75-2.21-1.2-3.39-1.09-2.81-2.31-6-2.14-9.59a48.18,48.18,0,0,1,11.41-28.56c5.52-6.4,15.23-14,30.18-13.51h0A37.27,37.27,0,0,1,193.23,152a46.28,46.28,0,0,1,11.94,32.54c-.21,4.2-2.14,8.94-3.7,12.75l-.72,1.77a4.53,4.53,0,0,1-1.17,1.71Z"/><path class="cls-4" d="M167.28,130.51c-35.67-1-48,20.08-49.2,45.53a28.85,28.85,0,0,0,7.66,20.62c4.13,4.51,10.52,4.53,10.82-1.63l1-20.8a17.38,17.38,0,0,1,17.78-16.46l22.4.65a16.59,16.59,0,0,1,16.14,17.44l-1,20.8c-.3,6.17,7.82,7.8,10.63,2.26.19-.38,9.3-10.34,9.85-21.52,1.23-25.45-10.42-45.86-46.08-46.89Z"/><path class="cls-2" d="M141.56,160.7a19.56,19.56,0,0,1,13.86-5.24l22.4.65A18.88,18.88,0,0,1,196.2,176l-1,20.8a2.8,2.8,0,0,0,2.13,3.1,3.59,3.59,0,0,0,4.13-2A4,4,0,0,1,202,197c5.52-6.76,8.72-13.78,9-19.75.66-13.67-2.52-24.38-9.44-31.86-7.32-7.91-18.9-12.16-34.4-12.61h0c-29.63-.85-45.38,13.72-46.82,43.33a26.67,26.67,0,0,0,7,18.86l.08.09c2,2.12,4.24,2.77,5.49,2.32.8-.29,1.25-1.13,1.31-2.5l1-20.8a19.58,19.58,0,0,1,6.3-13.42Zm64,39.26,0,.08,0-.08Zm-1.85,2.46a8.08,8.08,0,0,1-7.59,1.93,7.46,7.46,0,0,1-5.56-7.8l1-20.8a14.25,14.25,0,0,0-13.89-15l-22.39-.65a15.07,15.07,0,0,0-15.41,14.25l-1,20.8c-.16,3.27-1.75,5.69-4.37,6.63-3.24,1.18-7.45-.25-10.47-3.54l0,0a31,31,0,0,1-8.24-22.27c.71-14.59,4.84-26.08,12.3-34.16,8.77-9.51,22-14.07,39.27-13.57h0c16.8.48,29.47,5.22,37.67,14.08,7.8,8.43,11.38,20.28,10.66,35.23-.34,7.06-3.82,14.82-10,22.46l-.16.19a8.55,8.55,0,0,1-1.75,2.26Z"/><path class="cls-2" d="M139.86,147.24a2.31,2.31,0,0,0,3.95,2.41,11.82,11.82,0,0,1,10.36-4.87,2.34,2.34,0,0,0,1.64-.62,2.28,2.28,0,0,0,.75-1.63,2.31,2.31,0,0,0-2.25-2.38,16.42,16.42,0,0,0-14.45,7.09Z"/><path class="cls-2" d="M178.49,140.85a2.32,2.32,0,1,0-.13,4.63c7,.2,9.66,5.15,9.78,5.39a2.31,2.31,0,0,0,3.09,1,2.15,2.15,0,0,0,.55-.38,2.32,2.32,0,0,0,.51-2.72c-.15-.31-3.88-7.68-13.8-8Z"/><path class="cls-2" d="M126.14,172.49l-.77,7.88a2.31,2.31,0,0,0,3.87,1.92,2.21,2.21,0,0,0,.73-1.47l.78-7.88a2.32,2.32,0,0,0-4.61-.45Z"/><path class="cls-2" d="M203.25,172.37a2.32,2.32,0,0,0-2.42,2.2l-.32,6.69a2.31,2.31,0,0,0,3.88,1.8,2.27,2.27,0,0,0,.74-1.58l.32-6.69a2.31,2.31,0,0,0-2.2-2.42Z"/><path class="cls-2" d="M156.23,320.09l-2,17.12a2.31,2.31,0,0,0,2,2.58,2.35,2.35,0,0,0,1.85-.6,2.37,2.37,0,0,0,.72-1.42l2.06-17.13a2.32,2.32,0,0,0-4.6-.55Z"/><path class="cls-2" d="M156.81,292.93l-.16,16.27a2.32,2.32,0,0,0,4.63.05l.16-16.28a2.32,2.32,0,0,0-4.63,0Z"/><path class="cls-2" d="M160.94,247.92a2.33,2.33,0,0,0-2.47,2.15l-2.08,29.68a2.32,2.32,0,0,0,2.15,2.47,2.32,2.32,0,0,0,2.47-2.14l2.08-29.68a2.32,2.32,0,0,0-2.15-2.48Z"/><path class="cls-2" d="M141.11,333.16a5.8,5.8,0,0,1-4.85-5.81l.32-16.72a2.32,2.32,0,1,0-4.63-.08l-.32,16.71a10.46,10.46,0,0,0,8.73,10.47c4.28.69,4.68.7,4.92.72a2.33,2.33,0,0,0,1.67-.63,2.3,2.3,0,0,0-1.46-4c-.13,0-.82-.09-4.38-.66Z"/><path class="cls-5" d="M157.16,367l1,25.83c-.49-14.76-1-25.83-1-25.83Zm-32.84-26.27,1.15,5.54c-4.82,2.88-7.22,7.8-6,13.29,1.1,5.07,5,9.45,10,12.15L145,432.86c.39,1.52,3.85,2.65,7.73,2.57a15.76,15.76,0,0,0,3.83-.52,8,8,0,0,0,1.54-.6,14.45,14.45,0,0,0,5.07-.88,3.38,3.38,0,0,0,2-1.62l20.74-59.18c3.54-2.16,7.3-5,8.36-8.85a12.47,12.47,0,0,0-3.59-12.49l1.06-5.63-67.44-4.93Z"/><path class="cls-2" d="M159.52,393.66a2.72,2.72,0,0,1-1.37.31c-1.09,0-2-.53-2-1.16l-1.37-25.87c-.05-.95,1-1.69,2.34-1.66s2.45.84,2.47,1.78h0c0,.35.28,11.4.52,25.79a1,1,0,0,1-.56.8ZM157.15,434a2.54,2.54,0,0,1,.93-.16,12,12,0,0,0,4.12-.72h0a2.71,2.71,0,0,0,1.64-1.33l19.86-59.37a1.73,1.73,0,0,1,.76-.89c3-1.83,6.55-4.42,7.45-7.87a11,11,0,0,0-3.3-11,1.63,1.63,0,0,1-.51-1.49l.6-3.54-61-4.34.59,3.11a1.58,1.58,0,0,1-.81,1.73,10.68,10.68,0,0,0-5.41,11.59c.86,4.31,4.16,8.31,8.71,10.79a2,2,0,0,1,1.08,1.22l14.47,61.09c.29,1.25,3.12,2.18,6.3,2.12a13,13,0,0,0,3.14-.44A6.51,6.51,0,0,0,157,434l.11,0Zm6.89-.19a17,17,0,0,1-5.3,1,11.31,11.31,0,0,1-1.43.51,18.28,18.28,0,0,1-4.51.61c-4.56.1-8.67-1.23-9.16-3l-16.37-60.52c-5.35-3.1-9.29-7.84-10.49-13a13.39,13.39,0,0,1,5.6-14.36l-1-4.44a1.68,1.68,0,0,1,.51-1.69,2.67,2.67,0,0,1,2-.58l68.36,5.12a2.07,2.07,0,0,1,2.16,2.35l-1,4.79a13.78,13.78,0,0,1,3.19,13.35c-1.26,4.33-5.47,7.44-8.7,9.45L166.5,431.86a4,4,0,0,1-2.42,1.91l0,0Z"/><path class="cls-5" d="M157.08,364.93l-5.85,66.18c-.32,1.58,1.8,3,5.71,3.1a15.23,15.23,0,0,0,6-.88,3.38,3.38,0,0,0,2-1.62l21-59.08-28.85-7.7Z"/><path class="cls-2" d="M163.78,433.69a18,18,0,0,1-7,1c-4.35-.15-7.29-1.65-6.94-3.63l4.78-66.37c.07-1,1.24-1.65,2.6-1.53s2.38,1,2.28,2l-6.92,66a0,0,0,0,0,0,0c-.25,1.15,1.06,2.41,4.49,2.54a12.27,12.27,0,0,0,4.86-.71h0a2.74,2.74,0,0,0,1.65-1.33l20.12-59.28a2.6,2.6,0,0,1,2.75-1.29c1.22.14,2,1,1.63,1.79l-21.87,58.88a4,4,0,0,1-2.42,1.91l0,0Z"/><path class="cls-2" d="M163.07,408.57l-.32-.05-.34,0a2.54,2.54,0,0,0-1.42.38l-.16.15a.89.89,0,0,0-.09.16.55.55,0,0,0,0,.17.35.35,0,0,0,0,.17.47.47,0,0,0,.1.16,1.06,1.06,0,0,0,.15.15,2.25,2.25,0,0,0,.21.12,2.79,2.79,0,0,0,1.2.25h.33l.32-.05.29-.08.26-.11c.31-.15.5-.37.5-.6s-.17-.44-.49-.6l-.25-.11-.3-.08Z"/><path class="cls-2" d="M144.78,408.93l.33.05a2.06,2.06,0,0,0,.35,0l.34,0a1.67,1.67,0,0,0,.31-.05,1.38,1.38,0,0,0,.29-.08l.25-.1c.3-.17.45-.39.42-.62A.64.64,0,0,0,147,408a.61.61,0,0,0-.13-.16.93.93,0,0,0-.18-.16,1.36,1.36,0,0,0-.24-.13,2.36,2.36,0,0,0-.28-.12l-.32-.08-.34-.05-.35,0a2.2,2.2,0,0,0-1.4.4,1,1,0,0,0-.14.15.36.36,0,0,0-.07.17.33.33,0,0,0,0,.17,1,1,0,0,0,.62.62,2,2,0,0,0,.29.11l.31.08Z"/><path class="cls-2" d="M159.79,413.43l-.77,6.11c-.05.38.59.71,1.44.73a2.63,2.63,0,0,0,1.18-.2c.25-.12.42-.27.44-.44l1-6.09c.07-.44-.6-.82-1.51-.85s-1.69.3-1.75.74Z"/><path class="cls-6" d="M143.8,435.58c-2.24,0-4.24-.63-4.53-1.48l-1-3.13c-.06-.18.27-.34.74-.35h0l19.55-.31c.45,0,.82.14.83.32l.17,3.1c0,.86-1.71,1.58-3.94,1.63l-11.77.22Z"/><path class="cls-2" d="M143.69,435.09l11.89-.22c1.53,0,2.74-.52,2.7-1.11l-.21-2.9-18.33.3.87,2.91c.18.59,1.54,1,3.08,1Zm15.67.1a10.72,10.72,0,0,1-3.67.65l-11.76.22h0c-3,0-5.57-.8-6-1.94l-1-3.13c-.07-.23.09-.46.46-.63h0a3.82,3.82,0,0,1,1.48-.28h0l19.66-.31c1.22,0,2.2.37,2.23.85l.12,3.1c0,.57-.57,1.1-1.53,1.48Z"/><path class="cls-7" d="M144.26,429.07a1.37,1.37,0,0,1-.84-.21l-2.64-2.24c-.62-.52-.12-1.13,1.12-1.35a5.73,5.73,0,0,1,.85-.07l9.41-.12h0c1.37,0,2.5.46,2.54,1a.51.51,0,0,1-.14.37l-1.92,2.27a1.14,1.14,0,0,1-.76.23l-7.66.11Z"/><path class="cls-2" d="M144.53,428.5l6.94-.11,1.77-2.14a.22.22,0,0,0,.06-.15c0-.23-.49-.41-1-.41h0l-9.32.12-.34,0a.9.9,0,0,0-.52.22.21.21,0,0,0,.06.32l2.43,2.11Zm9,.74a4.1,4.1,0,0,1-1.53.28l-7.6.12h0a3.75,3.75,0,0,1-2.23-.56l-2.67-2.23c-.48-.4-.57-.85-.24-1.26a3.36,3.36,0,0,1,2-.9,8.52,8.52,0,0,1,1.37-.12l9.55-.12c2.17,0,4,.73,4,1.63a.84.84,0,0,1-.23.59L154,428.92a1.14,1.14,0,0,1-.47.32Z"/><path class="cls-3" d="M147.72,433.64c-3.71,0-4.31,0-4.51,0a6.84,6.84,0,0,1-3-1.11.3.3,0,0,1-.08-.08,4.25,4.25,0,0,1-2-1.76c-.35-1.09,1.92-2,5.06-2.08l10.41-.15h.09c3.06,0,5.55.84,5.63,1.91a2.54,2.54,0,0,1-1.25,1.79.12.12,0,0,1,0,.08,7.18,7.18,0,0,1-3.55,1.25c-.66.08-5,.16-6.83.18Z"/><path class="cls-2" d="M154.16,433a5.83,5.83,0,0,0,2.66-.92.4.4,0,0,1,.14-.16,2.3,2.3,0,0,0,1.07-1.53c-.07-.76-2-1.38-4.23-1.36h-.09l-10.31.15a8.07,8.07,0,0,0-3.05.55h0c-.58.26-.84.6-.74.93a3.89,3.89,0,0,0,1.68,1.5.56.56,0,0,1,.2.16,5,5,0,0,0,2,.81c.11,0,.77.06,4.06,0h.1c2.56,0,6-.1,6.53-.16Zm3.85.21a12.14,12.14,0,0,1-3.06.76c-1,.12-6.19.19-7,.2h-.11c-3.88,0-4.54,0-4.85,0a8.52,8.52,0,0,1-3.9-1.37.63.63,0,0,1-.12-.1,4.7,4.7,0,0,1-2.13-1.94c-.21-.64.24-1.26,1.28-1.76h0a12.93,12.93,0,0,1,5-.92l10.59-.15c3.88,0,7,1.08,7,2.46a2.85,2.85,0,0,1-1.34,2l-.08.1a4.18,4.18,0,0,1-1.33.79Z"/><path class="cls-6" d="M152.79,436.4c-2.19,0-4.08-.6-4.26-1.44l-.6-3c0-.18.3-.33.76-.34h0l19.07-.31c.45,0,.79.13.78.3l-.16,3c0,.83-1.85,1.53-4,1.58l-11.5.22Z"/><path class="cls-2" d="M152.73,435.93l11.62-.23c1.5,0,2.73-.51,2.75-1.08l.11-2.81-17.89.3.52,2.83c.11.57,1.38,1,2.89,1ZM168,436a11.36,11.36,0,0,1-3.65.62l-11.49.23h0c-2.89,0-5.35-.78-5.6-1.88l-.66-3c0-.23.13-.44.51-.61h0a3.91,3.91,0,0,1,1.48-.27h0l19.19-.32c1.19,0,2.11.36,2.08.82l-.22,3c0,.56-.67,1.07-1.65,1.45Z"/><path class="cls-7" d="M154,430.09a1.28,1.28,0,0,1-.8-.21l-2.31-2.17c-.55-.51,0-1.09,1.23-1.3a5.7,5.7,0,0,1,.84-.08l9.17-.12h0c1.33,0,2.38.43,2.36,1a.62.62,0,0,1-.18.36l-2.12,2.2a1.18,1.18,0,0,1-.76.22l-7.47.12Z"/><path class="cls-2" d="M154.28,429.53l6.77-.11,2-2.07a.21.21,0,0,0,.07-.15c0-.22-.42-.4-1-.4h0l-9.08.13a1.87,1.87,0,0,0-.34,0,1,1,0,0,0-.53.22.2.2,0,0,0,0,.31l2.13,2Zm8.69.71a4.14,4.14,0,0,1-1.52.27l-7.42.12h0a3.36,3.36,0,0,1-2.11-.54l-2.35-2.16a.78.78,0,0,1-.09-1.21,3.77,3.77,0,0,1,2.05-.88,8.36,8.36,0,0,1,1.34-.11l9.3-.13c2.12,0,3.8.71,3.75,1.58a.91.91,0,0,1-.28.57l-2.15,2.18a1.43,1.43,0,0,1-.49.31Z"/><path class="cls-3" d="M156.82,434.51c-3.62.05-4.2,0-4.39,0a5.73,5.73,0,0,1-2.77-1.07.13.13,0,0,1-.07-.08,3.46,3.46,0,0,1-1.71-1.7c-.22-1.06,2.09-2,5.16-2l10.15-.15h.09c3,0,5.32.81,5.28,1.85,0,.49-.59,1.17-1.41,1.74l-.05.07a7.87,7.87,0,0,1-3.6,1.23c-.66.08-4.86.15-6.68.17Z"/><path class="cls-2" d="M163.17,433.86a6.37,6.37,0,0,0,2.7-.89.46.46,0,0,1,.15-.17c.7-.48,1.2-1.09,1.21-1.48,0-.73-1.77-1.33-4-1.31h-.09l-10.06.15a8.41,8.41,0,0,0-3,.53h0c-.58.26-.87.58-.81.91s.68,1,1.46,1.45a.48.48,0,0,1,.18.16,4.34,4.34,0,0,0,1.85.78c.11,0,.76.06,4,0h.1c2.5,0,5.81-.11,6.38-.16Zm3.73.2a13,13,0,0,1-3.06.74c-1,.12-6.06.19-6.89.2h-.1a47.3,47.3,0,0,1-4.73,0,7.43,7.43,0,0,1-3.65-1.32l-.11-.1a3.9,3.9,0,0,1-1.85-1.88c-.13-.62.38-1.22,1.45-1.71h0a13.46,13.46,0,0,1,5-.9l10.33-.14c3.77,0,6.66,1,6.59,2.38a3.22,3.22,0,0,1-1.51,1.91l-.1.1a4.68,4.68,0,0,1-1.38.77Z"/><path class="cls-2" d="M159.75,432.22l-4.55.06c-.74,0-1.32.25-1.29.54s.65.5,1.38.49l4.49-.06a2.71,2.71,0,0,0,.93-.17c.23-.09.38-.22.37-.36,0-.29-.6-.51-1.33-.5Z"/><path class="cls-2" d="M144.6,412.06l.45,2.56c.07.43.86.77,1.77.77a2.56,2.56,0,0,0,1.12-.23c.27-.14.43-.33.4-.55l-.36-2.56c-.07-.45-.88-.82-1.82-.82s-1.64.37-1.56.83Z"/><path class="cls-2" d="M184.2,361.45a2.45,2.45,0,0,0-2.66,1.72c-.51,3.94-5.26,4.64-5.78,4.71a2.15,2.15,0,0,0-2,1.4l-2,8.88c-.18.79.64,1.5,1.82,1.6a3,3,0,0,0,1.78-.37,1.41,1.41,0,0,0,.71-.84l1.47-5.64,1.61-2.43c3-1,6.55-3.1,7.2-7.17.16-1-.79-1.81-2.13-1.86Z"/><path class="cls-5" d="M302.71,283.84l-282.82-2,151-257.95,131.83,260ZM2.31,292l317.17,2.25L171.67,2.31,2.31,292Z"/><path class="cls-2" d="M23.91,279.53l275,2L170.74,28.7,23.91,279.53Zm280.37,6a2.35,2.35,0,0,1-1.59.61l-282.82-2a2.32,2.32,0,0,1-2-3.48l151-257.95a2.31,2.31,0,0,1,4.06.13l131.82,260a2.28,2.28,0,0,1-.1,2.26,2.63,2.63,0,0,1-.39.49ZM6.33,289.73l309.37,2.2L171.52,7.15,6.33,289.73ZM321.05,296a2.29,2.29,0,0,1-1.59.61L2.3,294.33a2.31,2.31,0,0,1-2-3.48L169.67,1.15a2.31,2.31,0,0,1,4.06.12l147.82,292a2.33,2.33,0,0,1-.1,2.27,2,2,0,0,1-.4.48Z"/><path class="cls-1" d="M211.41,271.76c-3.36-.2-7-.45-10.45-.78-8.32-.77-16.44,4.62-15.91,14.87l2,1.37,35.23,7.24c1.29,0,1.15-8,1.21-9.24,0,0,.1-.61.1-.64.34-7-5.11-12.41-12.21-12.82Z"/><path class="cls-2" d="M187.34,284.91l.21,0,33.38,6.87c.11-1,.22-2.72.25-5.57,0-.52,0-.92,0-1.14,0,0,0-.29.07-.56l0-.19c.21-5.53-4.08-9.95-10-10.3-3.91-.22-7.46-.48-10.54-.77a12.82,12.82,0,0,0-10.08,3.22,11.26,11.26,0,0,0-3.32,8.4Zm36.78,11.22a2.52,2.52,0,0,1-1.82.65,3.14,3.14,0,0,1-.45,0l-35.23-7.26a2.3,2.3,0,0,1-1.65-1.32,2.32,2.32,0,0,1-2.24-2.2,16,16,0,0,1,4.73-12.79,17.35,17.35,0,0,1,13.71-4.49c3,.28,6.52.54,10.38.76,8.6.51,14.78,7.06,14.38,15.25,0,0,0,.3-.07.57l0,.17c0,.21,0,.51,0,.88-.05,4.54-.1,8.35-1.69,9.82Z"/><path class="cls-1" d="M194.81,283l-.89,16.87c-.13,2.34,1.93,4.31,4.59,4.4a4.66,4.66,0,0,0,5-4.09l.9-16.87-9.63-.31Z"/><path class="cls-2" d="M203.77,304.59a7.49,7.49,0,0,1-5.34,2,7.34,7.34,0,0,1-5.17-2.3,6.19,6.19,0,0,1-1.65-4.53l.89-16.88a2.31,2.31,0,1,1,4.62.25L196.23,300a1.59,1.59,0,0,0,.45,1.16,2.68,2.68,0,0,0,1.9.8,2.4,2.4,0,0,0,2.65-1.89l.9-16.87a2.31,2.31,0,0,1,4.62.24l-.89,16.88a6.41,6.41,0,0,1-2.09,4.32Z"/><path class="cls-1" d="M185.18,282.69l-.71,14.46a4.46,4.46,0,0,0,4.62,4.38,4.67,4.67,0,0,0,5-4.1l.7-14.46-9.63-.28Z"/><path class="cls-2" d="M194.34,301.89a7.51,7.51,0,0,1-5.32,2,7.39,7.39,0,0,1-5.18-2.29,6.17,6.17,0,0,1-1.67-4.52l.7-14.46a2.31,2.31,0,1,1,4.62.23l-.7,14.45a1.57,1.57,0,0,0,.45,1.16,2.73,2.73,0,0,0,1.91.8,2.42,2.42,0,0,0,2.65-1.9l.69-14.46a2.32,2.32,0,0,1,4.63.22l-.7,14.46a6.36,6.36,0,0,1-2.08,4.35Z"/><path class="cls-1" d="M204.42,284.26,203.75,298c-.11,2.23,2,4.1,4.62,4.18h0c2.66.07,4.9-1.67,5-3.9l.66-13.77-9.62-.27Z"/><path class="cls-2" d="M213.69,302.55a7.6,7.6,0,0,1-5.39,2,7.44,7.44,0,0,1-5.25-2.29,5.88,5.88,0,0,1-1.61-4.31l.66-13.77a2.32,2.32,0,1,1,4.63.23l-.67,13.76a1.31,1.31,0,0,0,.39.94,2.81,2.81,0,0,0,2,.81c1.5.05,2.59-.85,2.63-1.69l.66-13.77a2.32,2.32,0,0,1,4.63.23l-.67,13.76a6,6,0,0,1-2,4.14Z"/><path class="cls-1" d="M214,283.53l-.58,11.88a4.46,4.46,0,0,0,4.61,4.38,4.68,4.68,0,0,0,5-4.1l.58-11.88-9.63-.28Z"/><path class="cls-2" d="M223.27,300.14a7.51,7.51,0,0,1-5.32,2,7.36,7.36,0,0,1-5.17-2.28,6.17,6.17,0,0,1-1.68-4.52l.57-11.88a2.32,2.32,0,0,1,4.63.22l-.58,11.88a1.65,1.65,0,0,0,.45,1.15,2.71,2.71,0,0,0,1.92.8,2.41,2.41,0,0,0,2.64-1.9l.57-11.87a2.32,2.32,0,0,1,4.63.22l-.58,11.88a6.34,6.34,0,0,1-2.08,4.34Z"/><path class="cls-1" d="M121.94,268.7c-3.46.12-7.13.16-10.5.16-7.11,0-13.07,5.05-13.41,12.08,0,0,0,.61,0,.65-.06,1.27.75,10.41,2,10.47l35-1.9,1.32-5.73c1.51-10.18-6.07-16-14.44-15.73Z"/><path class="cls-2" d="M136.63,291.86a2.33,2.33,0,0,1-1.45.61l-34.95,1.9H100c-2.53-.12-3.17-3.13-3.7-6.76a49.64,49.64,0,0,1-.54-6v-.21c0-.26,0-.53,0-.56.39-8.15,7.15-14.3,15.72-14.3,3.86,0,7.37-.05,10.43-.16a16.82,16.82,0,0,1,13.28,5.31c2.14,2.38,4.48,6.6,3.52,13.08a2.31,2.31,0,0,1-4.58-.67c.55-3.74-.27-7-2.39-9.33A12.21,12.21,0,0,0,122,271c-3.11.11-6.67.16-10.58.16-6,0-10.77,4.2-11.09,9.78v.19c0,.26,0,.52,0,.55a47,47,0,0,0,1,8l33.55-1.82a2.32,2.32,0,0,1,2.44,2.19,2.36,2.36,0,0,1-.74,1.82Z"/><path class="cls-1" d="M117.28,280.74l-.74,16.88a4.45,4.45,0,0,0,4.63,4.36,4.65,4.65,0,0,0,5-4.11l.74-16.88-9.63-.25Z"/><path class="cls-2" d="M126.4,302.34a7.52,7.52,0,0,1-5.29,2,7.33,7.33,0,0,1-5.18-2.27,6.16,6.16,0,0,1-1.7-4.51l.74-16.88a2.32,2.32,0,0,1,4.63.21l-.75,16.88a1.61,1.61,0,0,0,.46,1.15,2.74,2.74,0,0,0,1.92.79,2.4,2.4,0,0,0,2.63-1.9l.74-16.89a2.31,2.31,0,0,1,4.62.21L128.49,298a6.32,6.32,0,0,1-2.09,4.37Z"/><path class="cls-1" d="M126.92,281l-.7,14.45c-.12,2.35,1.95,4.31,4.61,4.39a4.67,4.67,0,0,0,5-4.11l.71-14.46-9.63-.27Z"/><path class="cls-2" d="M136.07,300.2a7.47,7.47,0,0,1-5.31,2,7.35,7.35,0,0,1-5.18-2.29,6.18,6.18,0,0,1-1.68-4.52l.7-14.45a2.32,2.32,0,1,1,4.63.22l-.7,14.46a1.57,1.57,0,0,0,.45,1.15,2.68,2.68,0,0,0,1.91.8,2.4,2.4,0,0,0,2.64-1.9l.7-14.46a2.32,2.32,0,0,1,4.63.23l-.7,14.46a6.35,6.35,0,0,1-2.09,4.34Z"/><path class="cls-1" d="M107.58,281.45l-.67,13.77c-.11,2.22,2,4.09,4.62,4.17s4.9-1.67,5-3.9l.67-13.76-9.63-.28Z"/><path class="cls-2" d="M116.86,299.74a7.58,7.58,0,0,1-5.4,2,7.38,7.38,0,0,1-5.24-2.29,5.91,5.91,0,0,1-1.62-4.31l.67-13.76a2.31,2.31,0,0,1,4.62.22l-.66,13.77a1.27,1.27,0,0,0,.38.94,2.86,2.86,0,0,0,2,.81c1.5,0,2.59-.86,2.63-1.7l.67-13.76a2.31,2.31,0,1,1,4.62.22l-.67,13.77a6.07,6.07,0,0,1-2,4.13Z"/><path class="cls-1" d="M98.11,280.17l-.58,11.88a4.46,4.46,0,0,0,4.61,4.38,4.66,4.66,0,0,0,5-4.1l.58-11.88-9.63-.28Z"/><path class="cls-2" d="M107.39,296.79a7.53,7.53,0,0,1-5.32,1.95,7.38,7.38,0,0,1-5.17-2.28,6.2,6.2,0,0,1-1.68-4.52l.57-11.88a2.32,2.32,0,0,1,4.63.22l-.57,11.88a1.57,1.57,0,0,0,.45,1.15,2.73,2.73,0,0,0,1.91.81,2.4,2.4,0,0,0,2.64-1.9l.58-11.88a2.31,2.31,0,0,1,4.62.22l-.58,11.88a6.32,6.32,0,0,1-2.08,4.35Z"/><path class="cls-3" d="M48.57,322h0a11.14,11.14,0,0,1-10.39-11.84l2-30.26A11.14,11.14,0,0,1,52,269.47h0a11.12,11.12,0,0,1,10.38,11.84l-2,30.26A11.13,11.13,0,0,1,48.57,322Z"/><path class="cls-2" d="M45.29,274.11a8.77,8.77,0,0,0-2.81,5.9l-2,30.25a8.82,8.82,0,0,0,8.23,9.38h0a8.83,8.83,0,0,0,9.38-8.22l2-30.26a8.82,8.82,0,0,0-14.79-7.05Zm13.15,46.6-.28.25a13.37,13.37,0,0,1-9.75,3.3h0A13.45,13.45,0,0,1,35.87,310l2-30.26a13.45,13.45,0,0,1,26.85,1.76l-2,30.27a13.4,13.4,0,0,1-4.28,9Z"/><path class="cls-3" d="M269,323.8h0A11.12,11.12,0,0,1,258.62,312l2-30.25a11.15,11.15,0,0,1,11.85-10.39h0a11.14,11.14,0,0,1,10.38,11.84l-2,30.26A11.12,11.12,0,0,1,269,323.8Z"/><path class="cls-2" d="M265.73,276a8.82,8.82,0,0,0-2.82,5.89l-2,30.26a8.81,8.81,0,0,0,8.22,9.38h0a8.83,8.83,0,0,0,9.38-8.22l2-30.26A8.82,8.82,0,0,0,265.73,276Zm13.13,46.6a13.45,13.45,0,0,1-22.56-10.75l2-30.26a13.45,13.45,0,1,1,26.84,1.76l-2,30.26a13.4,13.4,0,0,1-4.29,9Z"/><path class="cls-2" d="M268.1,301.28l-1,11.79a2.32,2.32,0,0,0,2.12,2.5A2.35,2.35,0,0,0,271,315a2.32,2.32,0,0,0,.74-1.51l1-11.79a2.31,2.31,0,0,0-4.61-.38Z"/><path class="cls-2" d="M50.33,278.86a2.2,2.2,0,0,0-.44.12,2,2,0,0,0-.41.2,2,2,0,0,0-.66.61,1.9,1.9,0,0,0-.23.39,2.19,2.19,0,0,0-.15.43,1.74,1.74,0,0,0-.06.45,2.31,2.31,0,0,0,2.22,2.4,1.71,1.71,0,0,0,.45,0,2.18,2.18,0,0,0,.44-.11,2.22,2.22,0,0,0,.41-.2,2.42,2.42,0,0,0,.36-.27,3.17,3.17,0,0,0,.3-.34,2.22,2.22,0,0,0,.23-.39,1.84,1.84,0,0,0,.15-.43,1.74,1.74,0,0,0,.06-.45,2.34,2.34,0,0,0-.61-1.67,2.38,2.38,0,0,0-1.61-.74,3.4,3.4,0,0,0-.45,0Z"/><path class="cls-2" d="M48,290.3l-.36,9.23a2.32,2.32,0,1,0,4.63.18l.36-9.24A2.32,2.32,0,1,0,48,290.3Z"/><path class="cls-2" d="M270.85,289.92a2.34,2.34,0,0,0-2,1,2.46,2.46,0,0,0-.22.39,1.69,1.69,0,0,0-.15.43,2.34,2.34,0,0,0-.07.45,2.27,2.27,0,0,0,0,.45,3.15,3.15,0,0,0,.11.44,2.27,2.27,0,0,0,.21.41,1.88,1.88,0,0,0,.27.36,2.3,2.3,0,0,0,1.61.74,1.71,1.71,0,0,0,.45,0,2.18,2.18,0,0,0,.44-.11,3.11,3.11,0,0,0,.41-.2,2.93,2.93,0,0,0,.36-.28,2.31,2.31,0,0,0,.74-1.6,2.35,2.35,0,0,0-.62-1.67,2.38,2.38,0,0,0-1.61-.74Z"/><path class="cls-6" d="M164.36,187.13c0,4.49-2.9,8.14-6.48,8.14s-6.48-3.65-6.48-8.14,2.9-8.15,6.48-8.15S164.36,182.63,164.36,187.13Z"/><ellipse class="cls-6" cx="173.3" cy="187.13" rx="6.48" ry="8.14"/><path class="cls-8" d="M166.54,187.13c0,4.69,3,8.49,6.76,8.49s6.76-3.8,6.76-8.49-3-8.5-6.76-8.5S166.54,182.44,166.54,187.13Zm.24,0c0-4.41,2.85-8,6.35-8s6.36,3.57,6.36,8-2.85,8-6.36,8S166.78,191.53,166.78,187.13Z"/><path class="cls-8" d="M158.19,184a3.17,3.17,0,1,0,2.69,3.14A2.95,2.95,0,0,0,158.19,184Zm-.85,3.33a1.11,1.11,0,1,1,.94-1.1A1,1,0,0,1,157.34,187.32Z"/><path class="cls-8" d="M172.84,184a3.17,3.17,0,1,0,2.7,3.14A2.95,2.95,0,0,0,172.84,184Zm-.85,3.33a1.11,1.11,0,1,1,.95-1.1A1,1,0,0,1,172,187.32Z"/><path class="cls-8" d="M157.73,178.63c-3.73,0-6.76,3.81-6.76,8.5s3,8.49,6.76,8.49,6.76-3.8,6.76-8.49S161.47,178.63,157.73,178.63Zm.16,16.48c-3.5,0-6.35-3.58-6.35-8s2.85-8,6.35-8,6.36,3.57,6.36,8S161.4,195.11,157.89,195.11Z"/><path class="cls-9" d="M152.6,176.41a5,5,0,0,1,1.94-.85,4.87,4.87,0,0,1,1.69,0,4.52,4.52,0,0,1,1.09.3,2.32,2.32,0,0,1,.36.18,3.33,3.33,0,0,0-.39-.05,6.45,6.45,0,0,0-1.07,0,6.06,6.06,0,0,0-1.49.32,5.92,5.92,0,0,0-1.61.84,6.29,6.29,0,0,0-1.3,1.27,6.07,6.07,0,0,0-.76,1.32,5.81,5.81,0,0,0-.33,1c-.06.25-.09.39-.09.39a3.35,3.35,0,0,1,0-.4,4.63,4.63,0,0,1,0-1.13,4.73,4.73,0,0,1,.56-1.6A5.06,5.06,0,0,1,152.6,176.41Z"/><path class="cls-9" d="M178.08,176.06a4.74,4.74,0,0,1,1.36,1.12,4.84,4.84,0,0,1,.72,1.22,4,4,0,0,1,.25.91,2.12,2.12,0,0,1,0,.34,6.27,6.27,0,0,0-.67-1,6.76,6.76,0,0,0-.88-.93,6.47,6.47,0,0,0-1.24-.86,6.67,6.67,0,0,0-1.41-.58A6.49,6.49,0,0,0,175,176a9.14,9.14,0,0,0-1.23,0s.1-.06.31-.15a5,5,0,0,1,.89-.28,5.06,5.06,0,0,1,1.43,0A5,5,0,0,1,178.08,176.06Z"/><path class="cls-9" d="M153.14,201.18l0,.09,0,.08.9.32.29.1.31.11a3.66,3.66,0,0,0,.75.1,3.87,3.87,0,0,0,.82-.06,2.4,2.4,0,0,0,.44-.12l.4-.16,1.69-.7.44-.18a2,2,0,0,1,.41-.14,2.69,2.69,0,0,1,.85,0,2.61,2.61,0,0,1,.42.08l.18.07,0,0,.05,0,.07,0,.12,0,.89.26,1.7.49.39.11a4.11,4.11,0,0,0,.41.1,4.42,4.42,0,0,0,.78.07,5.23,5.23,0,0,0,.78,0l.43-.09.4-.11,1.68-.49.89-.27a3.44,3.44,0,0,1,.86-.08,3.22,3.22,0,0,1,.88.11l.1,0,.11,0,.22.08.45.16.88.3.43.15.22.08.22.05a5.62,5.62,0,0,0,.88.12,4.44,4.44,0,0,0,.82,0l.37-.06.34-.07.62-.12.94-.18,0-.09v-.09l-.95.11-.62.08-.35.05-.36,0a4.73,4.73,0,0,1-1.55-.17l-.2-.06-.2-.07-.42-.17-.86-.35-.44-.18-.22-.09-.11,0-.13-.05a4.53,4.53,0,0,0-1-.17,3.6,3.6,0,0,0-1,.07l-.91.24-1.7.45-.39.1-.34.07a5.23,5.23,0,0,1-.68,0,5.29,5.29,0,0,1-.67,0l-.35-.09-.39-.1-1.7-.45-.91-.23-.11,0h-.08a2,2,0,0,0-.26-.09,3.46,3.46,0,0,0-1.57,0l-.26.09-.22.1-.43.2-1.66.78-.38.18a2.29,2.29,0,0,1-.37.12,3.86,3.86,0,0,1-.74.1,2.83,2.83,0,0,1-.67-.06l-.31-.08-.3-.08Z"/><path class="cls-9" d="M161.18,202.49l0,.09,0,.08c.3.13,1,.4,1.81.67.4.14.81.28,1.2.4l.15.05.15.05.31.06a2.78,2.78,0,0,0,.54.06,4.63,4.63,0,0,0,1.17-.11l.17-.05.15,0,.3-.1.6-.21c.8-.28,1.51-.55,1.81-.67l0-.09,0-.09c-.32,0-1.07.19-1.89.36l-.63.13-.31.07-.15,0-.13,0a6,6,0,0,1-1,0l-.47,0-.25,0-.29-.07-1.24-.26C162.25,202.67,161.5,202.53,161.18,202.49Z"/></g></g></g></svg>