<svg xmlns="http://www.w3.org/2000/svg" viewBox="0 0 412.2 361.43"><defs><style>.cls-1{fill:#ff3363;}.cls-2{fill:#243047;}.cls-3{fill:#299fff;}.cls-4{fill:#ffb842;}.cls-5{fill:#ffac75;}.cls-6{fill:#02b6ba;}.cls-7{fill:#fff;}</style></defs><g id="Layer_2" data-name="Layer 2"><g id="Layer_1-2" data-name="Layer 1"><path class="cls-1" d="M206.06,1.59C144.16,1.57,1.58,161.71,1.59,207.18c0,.12,113.34-73.35,204.5-73.33s204.53,73.53,204.53,73.41C410.61,160.47,268,1.6,206.06,1.59Z"/><path class="cls-2" d="M3.37,204.21c23.63-14.57,121.86-72,202.72-71.94s179.13,57.45,202.76,72c-1.3-10.92-9.28-27.77-22.81-48C371.8,135,352,110.7,330.4,88c-39-41-92.21-84.8-124.34-84.81-14,0-33.78,8.79-57.14,25.43-21,14.95-44.21,35.63-67.16,59.82-21.6,22.76-41.35,47-55.62,68.34C12.65,176.9,4.68,193.55,3.37,204.21Zm408.37,4.17a1.38,1.38,0,0,1-.36.26c-.82.46-1.36.12-2.26-.44-19.44-12.15-120.56-72.75-203-72.76S22.52,196,3.09,208.12c-.91.56-1.45.9-2.27.45A1.58,1.58,0,0,1,0,207.18C0,193.07,12.78,171,23.51,155c14.36-21.45,34.23-45.87,55.95-68.75C102.54,61.91,125.93,41.09,147.08,26c24.24-17.27,44.08-26,59-26h0c14.91,0,34.76,8.7,59,25.85,21.21,15,44.6,35.74,67.65,59.94,21.76,22.85,41.64,47.26,56,68.72,10.74,16.07,23.53,38.26,23.53,52.75a1.58,1.58,0,0,1-.46,1.12Z"/><path class="cls-3" d="M206.06,1.59C144.16,1.57,1.58,161.71,1.59,207.18c0,.12,113.34-73.35,204.5-73.33s204.53,73.53,204.53,73.41C410.61,160.47,268,1.6,206.06,1.59Z"/><path class="cls-2" d="M3.37,204.21c23.63-14.57,121.86-72,202.72-71.94s179.13,57.45,202.76,72c-1.3-10.92-9.28-27.77-22.81-48C371.8,135,352,110.7,330.4,88c-39-41-92.21-84.8-124.34-84.81-14,0-33.78,8.79-57.14,25.43-21,14.95-44.21,35.63-67.16,59.82-21.6,22.76-41.35,47-55.62,68.34C12.65,176.9,4.68,193.55,3.37,204.21Zm408.37,4.17a1.38,1.38,0,0,1-.36.26c-.82.46-1.36.12-2.26-.44-19.44-12.15-120.56-72.75-203-72.76S22.52,196,3.09,208.12c-.91.56-1.45.9-2.27.45A1.58,1.58,0,0,1,0,207.18C0,193.07,12.78,171,23.51,155c14.36-21.45,34.23-45.87,55.95-68.75C102.54,61.91,125.93,41.09,147.08,26c24.24-17.27,44.08-26,59-26h0c14.91,0,34.76,8.7,59,25.85,21.21,15,44.6,35.74,67.65,59.94,21.76,22.85,41.64,47.26,56,68.72,10.74,16.07,23.53,38.26,23.53,52.75a1.58,1.58,0,0,1-.46,1.12Z"/><path class="cls-4" d="M1.6,207.17c1.28-.7,113.85-73.33,204.49-73.32s203.27,72.72,204.51,73.4c-1.24-41-142.9-176.71-204.54-176.72S2.88,167.27,1.6,207.17Z"/><path class="cls-2" d="M1.6,207.17Zm1.95-3.07c24-14.76,121.89-71.85,202.54-71.83s178.66,57.17,202.58,71.92c-1.74-9.49-9.82-23.8-23.13-40.86-14.31-18.35-34.07-39.17-55.62-58.63-22.84-20.61-46-38.23-66.9-51-23.24-14.15-42.94-21.63-57-21.63s-33.69,7.52-56.93,21.75c-20.87,12.78-44,30.48-66.86,51.2-21.5,19.47-41.25,40.3-55.6,58.65-13.26,17-21.33,31.1-23.12,40.39Zm408.17,4.27a1.09,1.09,0,0,1-.29.23,1.56,1.56,0,0,1-1.59,0l-.73-.45c-19.43-12.14-120.55-72.74-203-72.75S22.52,196,3.09,208.12l-.72.44a1.6,1.6,0,0,1-1.6,0A1.6,1.6,0,0,1,0,207.12c.4-12.47,13.35-31.55,24.15-45.36,14.46-18.49,34.34-39.46,56-59,23-20.85,46.3-38.67,67.33-51.55,24.09-14.75,43.8-22.22,58.59-22.22S240.59,36.37,264.67,51c21.1,12.83,44.39,30.58,67.37,51.32,21.69,19.57,41.58,40.54,56,59,10.8,13.85,23.76,33,24.15,45.82a1.58,1.58,0,0,1-.47,1.17Z"/><path class="cls-1" d="M1.68,207.12c3.7-2.26,114.78-73.29,204.41-73.27S406.93,205,410.52,207.2C406.53,174,267.08,69.7,206.06,69.69S5.85,174.62,1.68,207.12Z"/><path class="cls-2" d="M4.19,203.71c25-15.34,121.94-71.46,201.9-71.44s177,56.23,202,71.54c-2.7-7.54-10.93-18.34-23.71-31-14.48-14.35-34.22-30.52-55.59-45.54-22.67-15.94-45.58-29.54-66.25-39.35C239.52,77,220,71.27,206.06,71.27c-58.46,0-189,97.47-201.87,132.44Zm407.46,4.62a1.94,1.94,0,0,1-.27.21,1.57,1.57,0,0,1-1.68,0l-.59-.37c-19.43-12.14-120.55-72.74-203-72.75S22.52,196,3.09,208.12l-.58.36a1.59,1.59,0,0,1-1.69,0,1.57,1.57,0,0,1-.71-1.53c1.32-10.27,14.63-25.31,25.58-36.11,14.65-14.47,34.53-30.77,56-45.89,22.83-16.11,45.88-29.86,66.65-39.76C172,73.84,191.47,68.1,206.06,68.1s34.06,5.71,57.81,17c20.83,9.88,43.9,23.57,66.72,39.61,21.5,15.12,41.39,31.41,56,45.88,10.94,10.84,24.25,26,25.51,36.46a1.61,1.61,0,0,1-.45,1.31Z"/><path class="cls-2" d="M206.06,0a1.58,1.58,0,0,0-1.58,1.58l-.1,68a1.58,1.58,0,0,0,2.7,1.12,1.55,1.55,0,0,0,.47-1.11l.1-68A1.59,1.59,0,0,0,206.06,0Z"/><path class="cls-2" d="M144.67,29.72V85.89a1.59,1.59,0,0,0,1.59,1.58,1.54,1.54,0,0,0,1.11-.46,1.57,1.57,0,0,0,.47-1.12V29.72a1.59,1.59,0,1,0-3.17,0Z"/><path class="cls-2" d="M265.88,28.16a1.58,1.58,0,0,0-1.58,1.58V85.91a1.59,1.59,0,0,0,3.17,0V29.74a1.59,1.59,0,0,0-1.59-1.58Z"/><path class="cls-2" d="M11,210.14a1.59,1.59,0,0,0-1.52,1.65l1.67,40.74a1.58,1.58,0,0,0,2.7,1.06,1.64,1.64,0,0,0,.47-1.19l-1.67-40.74A1.57,1.57,0,0,0,11,210.14Z"/><path class="cls-2" d="M4.27,234a1.56,1.56,0,0,0,.46-1.17l-.44-14a1.59,1.59,0,0,0-3.17.11l.44,14A1.59,1.59,0,0,0,4.27,234Z"/><path class="cls-2" d="M19.76,206.93l.61,25.23a1.59,1.59,0,0,0,2.71,1.08,1.6,1.6,0,0,0,.46-1.16l-.61-25.23a1.59,1.59,0,1,0-3.17.08Z"/><path class="cls-2" d="M2.29,243.77l.3.09a1.55,1.55,0,0,0,.31,0A1.63,1.63,0,0,0,4,243.43a1.43,1.43,0,0,0,.19-.24,1.51,1.51,0,0,0,.15-.28,1.4,1.4,0,0,0,.09-.29,1.71,1.71,0,0,0,0-.31,1.55,1.55,0,0,0,0-.31,1.71,1.71,0,0,0-.09-.3,1.17,1.17,0,0,0-.15-.27,1.12,1.12,0,0,0-.19-.24,1.56,1.56,0,0,0-.52-.35,1.4,1.4,0,0,0-.29-.09l-.31,0a1.55,1.55,0,0,0-.31,0l-.3.09A1.43,1.43,0,0,0,2,241a1.42,1.42,0,0,0-.44.44,1.17,1.17,0,0,0-.15.27,1.71,1.71,0,0,0-.09.3,1.55,1.55,0,0,0,0,.31,1.71,1.71,0,0,0,0,.31,1.4,1.4,0,0,0,.09.29,1.51,1.51,0,0,0,.15.28,2.12,2.12,0,0,0,.2.24,1.12,1.12,0,0,0,.24.19,1.43,1.43,0,0,0,.27.15Z"/><path class="cls-2" d="M400,210a1.57,1.57,0,0,0-1.65,1.52l-1.66,40.74a1.58,1.58,0,1,0,3.16.13l1.67-40.74A1.59,1.59,0,0,0,400,210Z"/><path class="cls-2" d="M406.74,218.62l-.44,14a1.59,1.59,0,0,0,1.53,1.64,1.57,1.57,0,0,0,1.17-.46,1.6,1.6,0,0,0,.47-1.07l.44-14a1.59,1.59,0,0,0-3.17-.1Z"/><path class="cls-2" d="M389,233.52a1.57,1.57,0,0,0,1.62-1.54l.61-25.23a1.59,1.59,0,0,0-3.17-.08l-.61,25.23a1.58,1.58,0,0,0,1.55,1.62Z"/><path class="cls-2" d="M408.74,240.66a1.32,1.32,0,0,0-.3-.09,1.55,1.55,0,0,0-.31,0l-.3,0a1.32,1.32,0,0,0-.3.09,1.51,1.51,0,0,0-.28.15,1.47,1.47,0,0,0-.43.43,1.51,1.51,0,0,0-.15.28,1.4,1.4,0,0,0-.09.29,1.73,1.73,0,0,0,0,.32,1.71,1.71,0,0,0,0,.31,1.4,1.4,0,0,0,.09.29,1.51,1.51,0,0,0,.15.28,1.41,1.41,0,0,0,.2.24,2.11,2.11,0,0,0,.23.19,1.51,1.51,0,0,0,.28.15,1.32,1.32,0,0,0,.3.09l.3,0a1.55,1.55,0,0,0,.31,0,1.32,1.32,0,0,0,.3-.09,1.51,1.51,0,0,0,.28-.15l.24-.19a2.35,2.35,0,0,0,.19-.25,1.17,1.17,0,0,0,.15-.27,1.49,1.49,0,0,0,.09-.3,1.53,1.53,0,0,0,0-.3,1.55,1.55,0,0,0,0-.31,1.32,1.32,0,0,0-.09-.3,1.17,1.17,0,0,0-.15-.27,1.55,1.55,0,0,0-.19-.24,1.57,1.57,0,0,0-.25-.2,1.17,1.17,0,0,0-.27-.15Z"/><path class="cls-2" d="M123.09,108.9a352.22,352.22,0,0,0-42.22,27.51,1.58,1.58,0,0,0,2,2.49,350,350,0,0,1,41.8-27.23,1.52,1.52,0,0,0,.35-.26,1.59,1.59,0,0,0-1.89-2.51Z"/><path class="cls-2" d="M132.1,105a1.42,1.42,0,0,0-.29-.1l-.31,0a1.06,1.06,0,0,0-.31,0,.75.75,0,0,0-.3.09,1,1,0,0,0-.28.14,1.39,1.39,0,0,0-.43.44,1.43,1.43,0,0,0-.15.27,1.71,1.71,0,0,0-.09.3,1.63,1.63,0,0,0,0,.31,1.6,1.6,0,0,0,.12.61,1.82,1.82,0,0,0,.15.27,1.55,1.55,0,0,0,.19.24,1.6,1.6,0,0,0,1.13.46,1.53,1.53,0,0,0,.3,0,1.49,1.49,0,0,0,.3-.09,1.91,1.91,0,0,0,.28-.15,1.37,1.37,0,0,0,.23-.19.91.91,0,0,0,.2-.24,1.51,1.51,0,0,0,.15-.28,1.4,1.4,0,0,0,.09-.29,1.62,1.62,0,0,0-.43-1.44,2.23,2.23,0,0,0-.24-.19,1,1,0,0,0-.28-.14Z"/><path class="cls-2" d="M325.46,153.42a1.41,1.41,0,0,0,.29-.4,1.6,1.6,0,0,0-.68-2.14c-13-6.67-42-15.33-43.23-15.7a1.59,1.59,0,1,0-.91,3c.3.09,29.92,8.95,42.69,15.48a1.57,1.57,0,0,0,1.84-.28Z"/><path class="cls-2" d="M249.44,24.93c-10.2-6.38-26-12.3-26.69-12.55a1.59,1.59,0,0,0-1.11,3c.16.06,16.2,6.06,26.12,12.27a1.58,1.58,0,0,0,2-.22,1.63,1.63,0,0,0,.23-.29,1.58,1.58,0,0,0-.51-2.18Z"/><path class="cls-2" d="M256.64,28.94a1.17,1.17,0,0,0-.27-.15,1.49,1.49,0,0,0-.3-.09,1.55,1.55,0,0,0-.31,0,1.6,1.6,0,0,0-1.31.7,1.82,1.82,0,0,0-.15.27,1.6,1.6,0,0,0-.12.61,1.55,1.55,0,0,0,0,.31,1.71,1.71,0,0,0,.09.3,1.43,1.43,0,0,0,.15.27,1.12,1.12,0,0,0,.19.24,1.6,1.6,0,0,0,1.12.47,1.06,1.06,0,0,0,.31,0,1.32,1.32,0,0,0,.3-.09,1.47,1.47,0,0,0,.28-.14l.23-.2a1.57,1.57,0,0,0,.47-1.12,1.71,1.71,0,0,0,0-.31,1.4,1.4,0,0,0-.09-.29,1.51,1.51,0,0,0-.15-.28,2.23,2.23,0,0,0-.19-.24,1.5,1.5,0,0,0-.25-.19Z"/><path class="cls-2" d="M275,103.35a1.67,1.67,0,0,0-.08.3,1.22,1.22,0,0,0,0,.62,1.14,1.14,0,0,0,.09.3,1.74,1.74,0,0,0,.14.27,1.73,1.73,0,0,0,.44.44,1,1,0,0,0,.27.14l.3.09a1.09,1.09,0,0,0,.31,0,1.62,1.62,0,0,0,.31,0,1.42,1.42,0,0,0,.29-.1,1,1,0,0,0,.28-.14,2.31,2.31,0,0,0,.24-.2,1.56,1.56,0,0,0,.46-1.12,1.63,1.63,0,0,0,0-.31,1.71,1.71,0,0,0-.09-.3,1.74,1.74,0,0,0-.14-.27,1.59,1.59,0,0,0-.2-.24,1.62,1.62,0,0,0-1.12-.46,1.55,1.55,0,0,0-.31,0,1.71,1.71,0,0,0-.3.09l-.27.14a1.54,1.54,0,0,0-.44.44c-.06.09-.1.18-.15.27Z"/><path class="cls-2" d="M270.31,102.47a1.58,1.58,0,0,0,1.9-.25,1.46,1.46,0,0,0,.26-.34,1.59,1.59,0,0,0-.6-2.16,204.69,204.69,0,0,0-37.56-16.37,1.59,1.59,0,0,0-.91,3,202.2,202.2,0,0,1,36.91,16.08Z"/><path class="cls-5" d="M212.2,218.32l.17-17.08-13.38.13-.16,17.08-6.83.07a9.46,9.46,0,0,0-9.34,9.34l-.25,25.61,46.15-.45.25-25.61a9,9,0,0,0-9.16-9.16l-7.45.07Z"/><path class="cls-2" d="M184,251.87l43-.42.24-24.06a7.48,7.48,0,0,0-7.57-7.56l-7.44.07a1.57,1.57,0,0,1-1.6-1.59l.15-15.47-10.21.1-.15,15.52a1.57,1.57,0,0,1-1.57,1.57l-6.83.07a7.89,7.89,0,0,0-7.77,7.77l-.23,24Zm45.67,2.27a1.56,1.56,0,0,1-1.1.46l-46.16.45a1.56,1.56,0,0,1-1.13-.46,1.61,1.61,0,0,1-.47-1.14l.25-25.61A11.07,11.07,0,0,1,192,216.93l5.28-.05.15-15.53a1.59,1.59,0,0,1,1.57-1.57l13.37-.13a1.61,1.61,0,0,1,1.14.47,1.56,1.56,0,0,1,.46,1.13l-.15,15.47,5.83-.06a10.61,10.61,0,0,1,10.76,10.76L230.15,253a1.61,1.61,0,0,1-.47,1.11Z"/><path class="cls-1" d="M228.81,227.55v-.14a9,9,0,0,0-9.16-9.16l-7.45.07-13.37.13-6.83.07c-.23,0-.46,0-.69,0l-7.1,14s19.27,16.44,25.9,20.67l3.06,0c2.81-3.66,10.39-16.55,15.64-25.62Z"/><path class="cls-2" d="M228.81,227.55Zm-18.23,24.06,1.78,0c2.36-3.29,7.58-11.89,14.86-24.46A7.36,7.36,0,0,0,225,222a7.44,7.44,0,0,0-5.38-2.19l-27.35.27-6.12,12c3.87,3.28,18.47,15.58,24.39,19.48Zm3.71,2.68a1.57,1.57,0,0,1-1.1.46l-3.06,0a1.57,1.57,0,0,1-.87-.25c-6.65-4.23-25.29-20.13-26.08-20.8a1.59,1.59,0,0,1-.38-1.92l7.1-14a1.57,1.57,0,0,1,1.28-.86h0c.22,0,.48,0,.75,0l27.65-.27a10.62,10.62,0,0,1,10.77,10.76v.15a1.67,1.67,0,0,1-.22.78c-5.64,9.75-13,22.13-15.75,25.78a1.07,1.07,0,0,1-.14.16Z"/><path class="cls-3" d="M225.73,218.19h0a9.17,9.17,0,0,0-1.17,0l-5,.05a33.72,33.72,0,0,1,.25,4.43c-.12,12.5-28.84,12.78-28.71.27a32.06,32.06,0,0,1,.33-4.43l-5,0a9.1,9.1,0,0,0-1.17,0h0a17.45,17.45,0,0,0-17.21,17.21l-.19,19.41,11.12-.11L182.8,296a50,50,0,0,0,20.51,4.6,160.62,160.62,0,0,0,22.84-1.88l5.16-44.17,11.12-.1.19-19.41a16.66,16.66,0,0,0-16.89-16.88Z"/><path class="cls-2" d="M184.29,295a49.35,49.35,0,0,0,19,4.07,160.57,160.57,0,0,0,21.4-1.67l5-43a1.59,1.59,0,0,1,1.56-1.4l9.57-.09.17-17.85a15.08,15.08,0,0,0-15.28-15.29h-.21a4.47,4.47,0,0,0-.5,0l-.47,0-3.24,0c.06,1,.09,1.9.08,2.87,0,3.51-2,6.55-5.55,8.55-6,3.38-15.53,3.38-21.26,0-3.3-1.95-5.1-4.89-5.07-8.29,0-.95.06-1.88.14-2.82l-3.18,0H186a2.75,2.75,0,0,0-.5,0l-.22,0a15.87,15.87,0,0,0-15.64,15.63l-.17,17.8,9.51-.09a1.57,1.57,0,0,1,1.59,1.43l3.7,40Zm43,4.9a1.56,1.56,0,0,1-.86.45,165.94,165.94,0,0,1-23.09,1.89,51.21,51.21,0,0,1-21.23-4.77,1.59,1.59,0,0,1-.86-1.27l-3.65-39.48-9.66.1a1.61,1.61,0,0,1-1.14-.47,1.56,1.56,0,0,1-.46-1.13l.19-19.42A19.05,19.05,0,0,1,185.19,217a6.07,6.07,0,0,1,.94,0h.33l5,0a1.57,1.57,0,0,1,1.58,1.8,33.57,33.57,0,0,0-.31,4.23c0,2.28,1.16,4.14,3.51,5.53,4.78,2.83,13.07,2.82,18.09,0,2.59-1.46,3.92-3.42,3.94-5.82a31.66,31.66,0,0,0-.23-4.23,1.6,1.6,0,0,1,1.56-1.77l5,0h.33a7.35,7.35,0,0,1,.94,0,18.24,18.24,0,0,1,18.39,18.49l-.19,19.4a1.57,1.57,0,0,1-1.57,1.57l-9.72.1-5,42.77a1.53,1.53,0,0,1-.46.94Z"/><path class="cls-2" d="M233.49,233.91a1.58,1.58,0,0,0-1.75,1.4l-7.17,63.43a1.58,1.58,0,0,0,3.15.35l7.17-63.43a1.58,1.58,0,0,0-1.4-1.75Z"/><path class="cls-2" d="M177.24,234.45a1.59,1.59,0,0,0-1.44,1.72l5.42,60.16a1.58,1.58,0,0,0,1.72,1.44,1.51,1.51,0,0,0,1-.46,1.59,1.59,0,0,0,.46-1.26L179,235.88a1.58,1.58,0,0,0-1.72-1.43Z"/><path class="cls-5" d="M227.69,184.72c-.13,13.4-10.12,24.36-22.3,24.48s-22-10.65-21.83-24,10.11-24.36,22.3-24.48,22,10.65,21.83,24.05Z"/><path class="cls-2" d="M192.09,168.25a24.29,24.29,0,0,0-7,16.92,23.38,23.38,0,0,0,6.59,16.74,18.92,18.92,0,0,0,13.64,5.7c11.32-.11,20.62-10.38,20.74-22.9h0A23.4,23.4,0,0,0,219.52,168a18.94,18.94,0,0,0-13.64-5.7,19.72,19.72,0,0,0-13.79,6Zm29.31,35.61a23,23,0,0,1-16,6.93,22.14,22.14,0,0,1-15.92-6.63,26.54,26.54,0,0,1-7.51-19c.13-14.23,10.84-25.92,23.87-26a22.08,22.08,0,0,1,15.91,6.62,26.54,26.54,0,0,1,7.51,19,27.4,27.4,0,0,1-7.87,19.12Z"/><path class="cls-1" d="M205.22,159.33c-16.61.16-25.66,15.6-25.78,28.33,0,3.06,1.65,5.61,2.55,8.27,1,2.88,10.39,2.52,10.42-.56l.1-10.4c.05-4.68,3.62-8.51,8-8.55l10.43-.1c4.36,0,7.86,3.71,7.81,8.39l-.1,10.4c0,3.09,9.11,4.67,10.13,1.77,1-2.68,2.52-6.48,2.55-9.54.13-12.73-9.49-28.17-26.09-28Z"/><path class="cls-2" d="M194,177.63a9.35,9.35,0,0,1,6.51-2.8l10.43-.1a9,9,0,0,1,6.49,2.69,10.21,10.21,0,0,1,2.92,7.31l-.1,10.4c.06.28,1.13,1.16,3.33,1.55s3.57-.08,3.72-.33.3-.81.46-1.26c.88-2.42,2-5.43,2-7.77a28.42,28.42,0,0,0-8.11-19.67,22.38,22.38,0,0,0-16.39-6.73h0c-16.52.16-24.1,15.74-24.21,26.75a13.24,13.24,0,0,0,1.46,5.23c.35.81.72,1.66,1,2.52.11.25,1.22.86,3.3.89,2.27,0,3.81-.62,4-1l.1-10.37a10.53,10.53,0,0,1,3-7.32Zm35.53,21c-1.44,1.44-4.22,1.59-6.49,1.19-3.64-.64-6-2.49-6-4.7l.1-10.4a7,7,0,0,0-2-5,5.89,5.89,0,0,0-4.22-1.76l-10.43.1c-3.5,0-6.37,3.17-6.41,7l-.1,10.4c0,2-1.86,3.46-4.92,3.94s-7.61.07-8.6-2.89c-.25-.74-.57-1.49-.91-2.28a15.89,15.89,0,0,1-1.72-6.51,32.92,32.92,0,0,1,7.06-19.84,25.62,25.62,0,0,1,20.29-10.05h0a25.52,25.52,0,0,1,18.66,7.65,31.73,31.73,0,0,1,9,21.95c0,2.88-1.23,6.18-2.2,8.83-.15.43-.3.84-.44,1.23a3.24,3.24,0,0,1-.76,1.2Z"/><path class="cls-3" d="M205.53,151.38c-24.43.23-32.29,15-32.46,32.46a19.76,19.76,0,0,0,5.79,13.91c2.95,3,7.32,2.82,7.37-1.41l.13-14.26a11.9,11.9,0,0,1,11.74-11.73l15.34-.15A11.36,11.36,0,0,1,225,181.71L224.81,196c0,4.22,5.55,5.13,7.33,1.26.12-.26,6.1-7.32,6.17-15,.17-17.45-8.34-31.11-32.78-30.87Z"/><path class="cls-2" d="M188.73,172.72a13.37,13.37,0,0,1,9.35-3.95l15.34-.15a12.93,12.93,0,0,1,13.11,13.1L226.39,196a1.93,1.93,0,0,0,1.54,2.07,2.45,2.45,0,0,0,2.77-1.48,3.39,3.39,0,0,1,.39-.59c3.59-4.77,5.6-9.65,5.64-13.75.09-9.37-2.37-16.62-7.3-21.55-5.22-5.23-13.26-7.82-23.88-7.72h0c-20.3.2-30.69,10.59-30.89,30.89a18.25,18.25,0,0,0,5.27,12.72l.06.06c1.39,1.4,3,1.79,3.82,1.45.54-.23.82-.81.83-1.75l.14-14.26a13.46,13.46,0,0,1,3.95-9.35Zm44.85,25.17a.08.08,0,0,1,0,.05.17.17,0,0,0,0-.05Zm-1.2,1.74a5.52,5.52,0,0,1-5.14,1.51,5.12,5.12,0,0,1-4-5.19l.14-14.26a9.77,9.77,0,0,0-9.9-9.9l-15.35.15A10.31,10.31,0,0,0,188,182.1l-.14,14.26A4.72,4.72,0,0,1,185,201c-2.19.89-5.11,0-7.26-2.15l0,0a21.17,21.17,0,0,1-6.23-15c.1-10,2.62-18,7.51-23.7,5.75-6.74,14.67-10.21,26.52-10.33h0c11.51-.11,20.3,2.8,26.15,8.64C237.23,164,240,172,239.9,182.26c-.05,4.84-2.22,10.24-6.28,15.63l-.1.14a6.19,6.19,0,0,1-1.14,1.6Z"/><path class="cls-2" d="M187.22,163.55a1.59,1.59,0,0,0,.61,2.15,1.61,1.61,0,0,0,2.16-.6,8,8,0,0,1,7-3.61,1.59,1.59,0,0,0,0-3.18,11.24,11.24,0,0,0-9.7,5.24Z"/><path class="cls-2" d="M213.48,158.15a1.59,1.59,0,1,0,0,3.17,7.68,7.68,0,0,1,6.84,3.44,1.58,1.58,0,0,0,2.14.63,1.26,1.26,0,0,0,.37-.27,1.59,1.59,0,0,0,.28-1.87,10.81,10.81,0,0,0-9.66-5.1Z"/><path class="cls-2" d="M178.49,181.2l-.32,5.41a1.59,1.59,0,0,0,1.5,1.67,1.58,1.58,0,0,0,1.67-1.49l.32-5.41a1.59,1.59,0,0,0-3.17-.18Z"/><path class="cls-2" d="M231.26,179.07a1.59,1.59,0,0,0-1.6,1.57l0,4.58a1.59,1.59,0,0,0,2.71,1.14,1.6,1.6,0,0,0,.46-1.11l0-4.58a1.58,1.58,0,0,0-1.57-1.6Z"/><path class="cls-2" d="M203,281.4l-.95,11.78a1.58,1.58,0,0,0,1.45,1.71,1.57,1.57,0,0,0,1.7-1.45l1-11.78a1.59,1.59,0,1,0-3.16-.26Z"/><path class="cls-2" d="M202.68,262.8l.32,11.14a1.57,1.57,0,0,0,1.62,1.54,1.59,1.59,0,0,0,1.55-1.63l-.33-11.14a1.58,1.58,0,1,0-3.16.09Z"/><path class="cls-2" d="M204.31,231.89a1.59,1.59,0,0,0-1.63,1.54L202,253.8a1.59,1.59,0,0,0,1.54,1.63,1.56,1.56,0,0,0,1.17-.46,1.59,1.59,0,0,0,.46-1.07l.63-20.37a1.58,1.58,0,0,0-1.53-1.64Z"/><path class="cls-2" d="M193,290.75a4,4,0,0,1-3.47-3.84l-.22-11.46a1.59,1.59,0,1,0-3.17.07l.22,11.45a7.16,7.16,0,0,0,6.26,6.93c2.94.36,3.21.36,3.38.36a1.59,1.59,0,0,0,1.59-1.59,1.57,1.57,0,0,0-1.57-1.58c-.09,0-.56,0-3-.34Z"/><path class="cls-6" d="M204.87,313.48l1.34,17.66c-.73-10.09-1.34-17.66-1.34-17.66Zm-23.16-17.1.93,3.76a8.26,8.26,0,0,0-3.78,9.25c.89,3.44,3.7,6.34,7.2,8.05l12.23,41.44c.31,1,2.71,1.71,5.36,1.55a10.53,10.53,0,0,0,2.6-.46,5.43,5.43,0,0,0,1.05-.45,9.92,9.92,0,0,0,3.44-.73,2.37,2.37,0,0,0,1.35-1.17l12.62-41c2.37-1.58,4.87-3.63,5.49-6.28a8.52,8.52,0,0,0-2.79-8.45L228,298l-46.28-1.58Z"/><path class="cls-2" d="M207.2,331.66a1.89,1.89,0,0,1-.94.26c-.74,0-1.37-.31-1.41-.74l-1.63-17.68c-.06-.64.64-1.18,1.56-1.19s1.7.51,1.74,1.15h0c0,.25.49,7.8,1,17.64a.65.65,0,0,1-.36.56Zm-.56,27.66a1.89,1.89,0,0,1,.63-.14,8.16,8.16,0,0,0,2.81-.6h0a1.83,1.83,0,0,0,1.09-1l12-41.15a1.15,1.15,0,0,1,.5-.63c2-1.33,4.37-3.2,4.89-5.58a7.55,7.55,0,0,0-2.55-7.42,1.11,1.11,0,0,1-.39-1l.32-2.44L184.09,298l.49,2.11a1.08,1.08,0,0,1-.51,1.21,7.31,7.31,0,0,0-3.39,8.08,11.37,11.37,0,0,0,6.25,7.15,1.43,1.43,0,0,1,.77.81l11.51,41.42c.24.85,2.2,1.41,4.37,1.28a9,9,0,0,0,2.14-.38,4,4,0,0,0,.85-.37l.07,0Zm4.71-.31a11.71,11.71,0,0,1-3.6.82,7.52,7.52,0,0,1-1,.39,12.65,12.65,0,0,1-3.06.54c-3.12.19-6-.61-6.35-1.83l-12.81-41c-3.74-2-6.56-5.11-7.52-8.59a9.18,9.18,0,0,1,3.45-10l-.8-3a1.14,1.14,0,0,1,.3-1.17,1.87,1.87,0,0,1,1.36-.46l46.92,1.7c1,0,1.67.73,1.53,1.55l-.53,3.3a9.44,9.44,0,0,1,2.53,9.06c-.74,3-3.54,5.24-5.7,6.7L213,357.62a2.77,2.77,0,0,1-1.61,1.37l0,0Z"/><path class="cls-6" d="M204.77,312.07l-2.25,45.45c-.18,1.09,1.31,2,4,2a10.51,10.51,0,0,0,4.06-.75,2.31,2.31,0,0,0,1.34-1.17l12.81-41-19.94-4.51Z"/><path class="cls-2" d="M211.17,359a12.28,12.28,0,0,1-4.75.87c-3,0-5-.93-4.84-2.3L203.09,312c0-.66.8-1.17,1.74-1.12s1.65.64,1.61,1.29l-3,45.35v0c-.14.79.79,1.62,3.14,1.62a8.34,8.34,0,0,0,3.3-.62h0a1.89,1.89,0,0,0,1.09-1l12.2-41.1a1.78,1.78,0,0,1,1.85-1c.84.07,1.36.6,1.16,1.19l-13.4,40.87a2.77,2.77,0,0,1-1.61,1.37l0,0Z"/><path class="cls-2" d="M210,341.78a.78.78,0,0,0-.22,0h-.23a1.59,1.59,0,0,0-1,.3l-.11.1-.06.11a.49.49,0,0,0,0,.12.2.2,0,0,0,0,.11.26.26,0,0,0,.07.11l.11.1.15.08a1.91,1.91,0,0,0,.82.14l.23,0,.21,0,.2-.07.18-.07a.55.55,0,0,0,.33-.43.54.54,0,0,0-.36-.4l-.17-.07-.21,0Z"/><path class="cls-2" d="M197.51,342.51l.23,0H198l.23,0,.22,0a.6.6,0,0,0,.19-.06l.17-.08c.2-.12.3-.28.27-.43a.31.31,0,0,0-.05-.12.31.31,0,0,0-.09-.11.58.58,0,0,0-.12-.1l-.17-.09-.2-.07-.22-.05-.24,0h-.23a1.6,1.6,0,0,0-1,.31.44.44,0,0,0-.09.11.31.31,0,0,0,0,.12.41.41,0,0,0,0,.11.69.69,0,0,0,.45.41l.2.07.21.05Z"/><path class="cls-2" d="M207.91,345.19l-.37,4.2c0,.26.42.47,1,.46a1.87,1.87,0,0,0,.81-.17c.17-.08.28-.19.29-.31l.5-4.19c0-.3-.44-.55-1.06-.54s-1.15.25-1.17.55Z"/><path class="cls-7" d="M197.55,360.77c-1.53.07-2.92-.32-3.14-.89l-.76-2.12c0-.12.18-.24.5-.26h0l13.37-.73c.31,0,.57.08.58.2l.2,2.12c.06.59-1.13,1.12-2.66,1.21l-8,.47Z"/><path class="cls-2" d="M197.46,360.44l8.13-.47c1-.06,1.86-.43,1.82-.83l-.22-2-12.54.69.68,2c.14.4,1.08.67,2.13.62Zm10.73-.35a7.49,7.49,0,0,1-2.5.54l-8,.47h0c-2,.1-3.83-.41-4.13-1.17l-.8-2.12c-.06-.16.05-.31.29-.44h0a2.74,2.74,0,0,1,1-.23h0l13.45-.73c.84,0,1.52.19,1.55.52l.16,2.12c0,.39-.35.77-1,1Z"/><path class="cls-4" d="M197.69,356.31a.94.94,0,0,1-.58-.13l-1.86-1.46c-.44-.34-.12-.77.73-1a3.38,3.38,0,0,1,.58-.08l6.43-.33h0c.93,0,1.72.24,1.76.63a.31.31,0,0,1-.08.25l-1.25,1.61a.79.79,0,0,1-.52.17l-5.24.29Z"/><path class="cls-2" d="M197.86,355.9l4.75-.25,1.15-1.51a.17.17,0,0,0,0-.11c0-.15-.34-.27-.72-.25h0l-6.37.33a.88.88,0,0,0-.24,0,.59.59,0,0,0-.34.17c-.06.07,0,.15,0,.22l1.72,1.37Zm6.18.27a2.9,2.9,0,0,1-1,.24l-5.2.28h0a2.56,2.56,0,0,1-1.54-.33l-1.88-1.45c-.34-.26-.41-.57-.2-.85a2.27,2.27,0,0,1,1.35-.67,4.54,4.54,0,0,1,.93-.12l6.53-.34c1.49-.06,2.75.4,2.8,1a.56.56,0,0,1-.14.41l-1.27,1.59a.8.8,0,0,1-.32.23Z"/><path class="cls-1" d="M200.18,359.34a30,30,0,0,1-3.09.09,4.57,4.57,0,0,1-2.06-.67l-.05-.06a2.91,2.91,0,0,1-1.39-1.15c-.27-.74,1.26-1.44,3.41-1.56l7.11-.37h.07c2.09-.09,3.82.43,3.9,1.16a1.77,1.77,0,0,1-.81,1.26.17.17,0,0,1,0,.05,4.93,4.93,0,0,1-2.4,1c-.45.07-3.4.23-4.67.3Z"/><path class="cls-2" d="M204.57,358.71a4,4,0,0,0,1.8-.7.24.24,0,0,1,.09-.12,1.55,1.55,0,0,0,.69-1.07c-.07-.52-1.38-.89-2.93-.82h-.06l-7,.38a5.54,5.54,0,0,0-2.08.45h0c-.39.2-.56.43-.48.66a2.64,2.64,0,0,0,1.19,1,.4.4,0,0,1,.14.11,3.53,3.53,0,0,0,1.39.5c.07,0,.53,0,2.78-.1h.07c1.75-.09,4.07-.23,4.46-.28Zm2.64,0a8.64,8.64,0,0,1-2.07.6c-.67.11-4.24.3-4.82.33h-.07c-2.65.14-3.11.11-3.32.1a5.82,5.82,0,0,1-2.71-.84l-.08-.06a3.23,3.23,0,0,1-1.51-1.27c-.16-.43.13-.87.83-1.24h0a8.81,8.81,0,0,1,3.39-.76l7.25-.38c2.65-.12,4.79.55,4.88,1.5a1.89,1.89,0,0,1-.86,1.38.18.18,0,0,1-.05.07,2.8,2.8,0,0,1-.89.58Z"/><path class="cls-7" d="M203.72,361.09c-1.49.08-2.8-.3-2.95-.87l-.49-2.06c0-.12.2-.23.51-.25h0l13.05-.72c.3,0,.54.07.54.19l0,2.06c0,.58-1.22,1.11-2.71,1.19l-7.86.46Z"/><path class="cls-2" d="M203.67,360.77l8-.46c1-.06,1.85-.42,1.85-.81v-1.93l-12.23.68.43,1.92c.09.39,1,.65,2,.6Zm10.45-.34a7.56,7.56,0,0,1-2.48.52l-7.86.46h0c-2,.1-3.68-.39-3.88-1.13l-.53-2.07c0-.15.08-.31.33-.43h0a2.74,2.74,0,0,1,1-.22h0l13.12-.73c.81,0,1.45.19,1.44.51l-.07,2.07c0,.38-.43.75-1.09,1Z"/><path class="cls-4" d="M204.36,356.74a.93.93,0,0,1-.56-.12l-1.64-1.42c-.38-.33,0-.75.82-.93a3.43,3.43,0,0,1,.56-.07l6.28-.33h0c.9,0,1.64.23,1.64.61a.46.46,0,0,1-.11.25l-1.4,1.56a.78.78,0,0,1-.51.17l-5.11.28Z"/><path class="cls-2" d="M204.56,356.35l4.63-.25,1.29-1.47a.16.16,0,0,0,0-.1c0-.16-.3-.27-.67-.25h0l-6.21.33a.91.91,0,0,0-.23,0,.64.64,0,0,0-.35.16.13.13,0,0,0,0,.21l1.51,1.34Zm6,.26a3.26,3.26,0,0,1-1,.23l-5.07.27h0a2.4,2.4,0,0,1-1.46-.32l-1.66-1.42a.52.52,0,0,1-.1-.82,2.5,2.5,0,0,1,1.38-.66,5.39,5.39,0,0,1,.91-.11l6.37-.33c1.45-.07,2.62.38,2.6,1a.58.58,0,0,1-.18.39l-1.4,1.55a1.07,1.07,0,0,1-.33.23Z"/><path class="cls-1" d="M206.43,359.7c-2.47.12-2.87.1-3,.09a4,4,0,0,1-1.93-.66l-.05-.05a2.45,2.45,0,0,1-1.22-1.12c-.17-.72,1.39-1.41,3.49-1.52l6.93-.38h.07c2-.09,3.66.41,3.66,1.13a2,2,0,0,1-.92,1.22.09.09,0,0,1,0,.06,5.52,5.52,0,0,1-2.43.93c-.45.07-3.33.23-4.57.29Z"/><path class="cls-2" d="M210.76,359.08a4.33,4.33,0,0,0,1.82-.68.35.35,0,0,1,.1-.12,1.77,1.77,0,0,0,.79-1c0-.51-1.24-.87-2.75-.8h-.06l-6.88.37a5.78,5.78,0,0,0-2.06.45h0c-.39.19-.58.42-.53.64a2.13,2.13,0,0,0,1,.95.29.29,0,0,1,.13.11,3,3,0,0,0,1.29.48c.08,0,.52,0,2.71-.09h.07c1.71-.09,4-.23,4.36-.28Zm2.56,0a9.48,9.48,0,0,1-2.08.59c-.66.1-4.14.29-4.71.32h-.07c-2.59.13-3,.11-3.23.1a5.09,5.09,0,0,1-2.53-.81l-.08-.07A2.65,2.65,0,0,1,199.3,358c-.11-.41.23-.84.95-1.2h0a9.45,9.45,0,0,1,3.38-.75l7.06-.37c2.59-.12,4.59.53,4.58,1.45a2.16,2.16,0,0,1-1,1.35l-.07.07a3.3,3.3,0,0,1-.92.57Z"/><path class="cls-2" d="M208.37,358.05l-3.11.16c-.5,0-.89.2-.86.4s.45.33.95.3l3.07-.16a1.59,1.59,0,0,0,.63-.14c.16-.07.26-.16.25-.26s-.42-.33-.93-.3Z"/><path class="cls-2" d="M197.47,344.65l.38,1.74c.06.29.61.51,1.23.48a1.73,1.73,0,0,0,.76-.18c.19-.11.29-.24.26-.39l-.31-1.74c-.06-.31-.63-.54-1.27-.52s-1.11.3-1.05.61Z"/><path class="cls-2" d="M223.23,309a1.68,1.68,0,0,0-1.77,1.24c-.24,2.72-3.48,3.32-3.83,3.38a1.5,1.5,0,0,0-1.33,1l-1.15,6.14c-.1.54.48,1,1.29,1a2,2,0,0,0,1.21-.3,1,1,0,0,0,.46-.59L219,317l1-1.71c2-.74,4.39-2.29,4.73-5.09.08-.68-.59-1.23-1.51-1.22Z"/><path class="cls-6" d="M302.28,252.72l-193.6,6.11L205.18,78.3l97.1,174.42ZM96.92,266.27,314,259.41,205.14,63.53,96.92,266.27Z"/><path class="cls-2" d="M111.37,257.15l188.26-5.94L205.21,81.61,111.37,257.15Zm192-3.31a1.59,1.59,0,0,1-1.07.46l-193.6,6.11a1.59,1.59,0,0,1-1.4-.75,1.57,1.57,0,0,1,0-1.58l96.5-180.52a1.58,1.58,0,0,1,2.78,0l97.1,174.41a1.58,1.58,0,0,1,0,1.56,1.66,1.66,0,0,1-.25.34ZM99.61,264.6l211.77-6.69L205.17,66.84,99.61,264.6Zm215.54-4.07a1.62,1.62,0,0,1-1.07.47L97,267.86a1.59,1.59,0,0,1-1.45-2.33L203.74,62.78a1.59,1.59,0,0,1,1.39-.83,1.57,1.57,0,0,1,1.4.81L315.42,258.64a1.56,1.56,0,0,1,0,1.55,1.46,1.46,0,0,1-.26.34Z"/><path class="cls-5" d="M239.48,246.87c-2.3-.05-4.81-.12-7.18-.25-5.71-.31-11.12,3.59-10.49,10.59l1.43.88,24.3,4c.88,0,.57-5.49.58-6.36,0,0,0-.42,0-.44.05-4.82-3.82-8.36-8.69-8.45Z"/><path class="cls-2" d="M223.35,256.51l.15,0,23,3.81a37.9,37.9,0,0,0,0-3.81c0-.36,0-.63,0-.78s0-.2,0-.39l0-.13c0-3.79-3.06-6.7-7.14-6.78-2.68,0-5.11-.13-7.23-.25a8.78,8.78,0,0,0-6.81,2.47,7.74,7.74,0,0,0-2.06,5.84Zm25.47,6.7a1.75,1.75,0,0,1-1.23.5l-.31,0-24.3-4a19.46,19.46,0,0,1-2.75-2.31,11,11,0,0,1,2.89-8.88,11.92,11.92,0,0,1,9.27-3.44c2.08.12,4.48.2,7.12.25,5.9.12,10.31,4.44,10.25,10.05,0,0,0,.21,0,.39v.13c0,.13,0,.34,0,.6.08,3.11.15,5.71-.9,6.76Z"/><path class="cls-5" d="M228.42,255l-.17,11.57a3.05,3.05,0,0,0,3.26,2.89,3.2,3.2,0,0,0,3.34-2.93l.16-11.57-6.59,0Z"/><path class="cls-2" d="M235.12,269.54a5.15,5.15,0,0,1-3.6,1.48,5.1,5.1,0,0,1-3.6-1.44,4.21,4.21,0,0,1-1.25-3.06l.16-11.57a1.59,1.59,0,0,1,3.17,0l-.16,11.58a1.07,1.07,0,0,0,.33.77,1.83,1.83,0,0,0,1.33.51,1.66,1.66,0,0,0,1.76-1.37l.17-11.57a1.59,1.59,0,0,1,3.17,0l-.17,11.58a4.36,4.36,0,0,1-1.31,3Z"/><path class="cls-5" d="M221.82,255.05l-.1,9.91a3.05,3.05,0,0,0,3.27,2.88,3.21,3.21,0,0,0,3.33-2.94l.09-9.92-6.59.07Z"/><path class="cls-2" d="M228.59,267.94a5.18,5.18,0,0,1-7.19.06,4.2,4.2,0,0,1-1.26-3.05l.09-9.92a1.59,1.59,0,0,1,3.17,0l-.1,9.92a1.08,1.08,0,0,0,.35.77,1.82,1.82,0,0,0,1.32.5,1.65,1.65,0,0,0,1.76-1.37l.1-9.91a1.59,1.59,0,0,1,3.17,0l-.1,9.91a4.35,4.35,0,0,1-1.31,3Z"/><path class="cls-5" d="M235,255.61l-.09,9.43a3,3,0,0,0,3.27,2.74h0a3.14,3.14,0,0,0,3.33-2.8l.09-9.44-6.6.07Z"/><path class="cls-2" d="M241.86,267.88a5.25,5.25,0,0,1-3.64,1.49,5.15,5.15,0,0,1-3.66-1.43,4.07,4.07,0,0,1-1.21-2.91l.09-9.44a1.59,1.59,0,0,1,3.17,0l-.09,9.44a.84.84,0,0,0,.29.63,2,2,0,0,0,1.38.51c1,0,1.75-.66,1.76-1.24l.09-9.43a1.59,1.59,0,0,1,3.17,0l-.1,9.44a4.12,4.12,0,0,1-1.25,2.88Z"/><path class="cls-5" d="M241.55,254.86l-.08,8.14a3.06,3.06,0,0,0,3.28,2.88,3.21,3.21,0,0,0,3.32-2.94l.08-8.15-6.6.07Z"/><path class="cls-2" d="M248.35,266a5.13,5.13,0,0,1-3.59,1.48,5,5,0,0,1-3.6-1.43,4.23,4.23,0,0,1-1.27-3l.08-8.15a1.59,1.59,0,0,1,3.17,0l-.08,8.15a1.07,1.07,0,0,0,.34.77,1.87,1.87,0,0,0,1.33.5,1.66,1.66,0,0,0,1.76-1.37l.07-8.14a1.59,1.59,0,0,1,1.61-1.57,1.57,1.57,0,0,1,1.56,1.6l-.08,8.14a4.34,4.34,0,0,1-1.3,3Z"/><path class="cls-5" d="M178.17,247.14c-2.37.18-4.88.3-7.18.39-4.87.19-8.81,3.81-8.86,8.62,0,0,0,.42,0,.45,0,.87.79,7.1,1.68,7.11l23.86-2.23.75-4c.77-7-4.57-10.81-10.29-10.39Z"/><path class="cls-2" d="M188.83,262.61a1.55,1.55,0,0,1-1,.45L164,265.29h-.16c-1.74,0-2.25-2.07-2.71-4.53a32.62,32.62,0,0,1-.53-4.1l0-.14c0-.18,0-.36,0-.38,0-5.59,4.51-10,10.38-10.2,2.64-.11,5-.23,7.13-.39a11.53,11.53,0,0,1,9.23,3.28A10.55,10.55,0,0,1,190,257.7a1.58,1.58,0,1,1-3.15-.34A7.59,7.59,0,0,0,185,251a8.4,8.4,0,0,0-6.72-2.32c-2.13.16-4.56.29-7.24.39-4.12.17-7.26,3.16-7.33,7v.13c0,.18,0,.35,0,.37a32.24,32.24,0,0,0,.89,5.44l22.92-2.14a1.59,1.59,0,0,1,1.72,1.44,1.54,1.54,0,0,1-.46,1.27Z"/><path class="cls-5" d="M175.3,255.51l-.06,11.57a3,3,0,0,0,3.29,2.86,3.18,3.18,0,0,0,3.31-2.95l.06-11.57-6.6.09Z"/><path class="cls-2" d="M182.11,270.05a5.14,5.14,0,0,1-3.56,1.48,5.05,5.05,0,0,1-3.61-1.41,4.24,4.24,0,0,1-1.28-3.05l.06-11.57a1.59,1.59,0,0,1,3.17,0l-.06,11.57a1.1,1.1,0,0,0,.34.78,1.84,1.84,0,0,0,1.33.49,1.63,1.63,0,0,0,1.75-1.37l.06-11.58a1.59,1.59,0,0,1,3.17,0L183.42,267a4.31,4.31,0,0,1-1.31,3.05Z"/><path class="cls-5" d="M181.9,255.44l-.09,9.91a3.05,3.05,0,0,0,3.27,2.88,3.19,3.19,0,0,0,3.32-2.94l.1-9.92-6.6.07Z"/><path class="cls-2" d="M188.68,268.33a5.13,5.13,0,0,1-3.59,1.48,5,5,0,0,1-3.6-1.43,4.23,4.23,0,0,1-1.27-3.05l.1-9.91a1.59,1.59,0,0,1,3.17,0l-.1,9.91a1.1,1.1,0,0,0,.34.78,1.89,1.89,0,0,0,1.33.5,1.65,1.65,0,0,0,1.76-1.37l.09-9.91a1.59,1.59,0,0,1,3.17,0L190,265.3a4.35,4.35,0,0,1-1.31,3Z"/><path class="cls-5" d="M168.68,256.25l-.09,9.44a3,3,0,0,0,3.27,2.74,3.16,3.16,0,0,0,3.33-2.81l.09-9.43-6.6.06Z"/><path class="cls-2" d="M175.51,268.52a5.19,5.19,0,0,1-3.64,1.49,5.13,5.13,0,0,1-3.65-1.43,4.08,4.08,0,0,1-1.22-2.91l.1-9.43a1.58,1.58,0,1,1,3.16,0l-.09,9.44a.92.92,0,0,0,.29.63,1.93,1.93,0,0,0,1.38.5c1,0,1.75-.66,1.76-1.23l.09-9.44a1.59,1.59,0,0,1,3.17,0l-.09,9.44a4.13,4.13,0,0,1-1.26,2.88Z"/><path class="cls-5" d="M162.16,255.63l-.07,8.14a3.05,3.05,0,0,0,3.27,2.88,3.19,3.19,0,0,0,3.32-2.94l.08-8.15-6.6.07Z"/><path class="cls-2" d="M169,266.75a5.13,5.13,0,0,1-3.59,1.48,5,5,0,0,1-3.6-1.42,4.25,4.25,0,0,1-1.27-3.05l.08-8.15a1.59,1.59,0,0,1,3.17,0l-.08,8.15a1.07,1.07,0,0,0,.34.77,1.84,1.84,0,0,0,1.33.5,1.65,1.65,0,0,0,1.76-1.37l.08-8.14a1.59,1.59,0,1,1,3.17,0l-.08,8.14a4.33,4.33,0,0,1-1.31,3Z"/><path class="cls-2" d="M52.87,147.34a1.6,1.6,0,0,0-.94,2L95.44,266.82a1.58,1.58,0,0,0,2,.94,1.48,1.48,0,0,0,.57-.37,1.57,1.57,0,0,0,.37-1.67L54.91,148.28a1.6,1.6,0,0,0-2-.94Z"/><path class="cls-2" d="M344.34,134.88a1.59,1.59,0,0,0-1.92,1.16L312.49,259a1.59,1.59,0,0,0,2.67,1.49,1.55,1.55,0,0,0,.41-.74l29.93-123a1.58,1.58,0,0,0-1.16-1.92Z"/><path class="cls-1" d="M129.37,285.53h0a7.63,7.63,0,0,1-7.42-7.82l.56-20.77a7.61,7.61,0,0,1,7.83-7.41h0a7.61,7.61,0,0,1,7.41,7.82l-.55,20.76a7.62,7.62,0,0,1-7.83,7.42Z"/><path class="cls-2" d="M125.86,252.88a6.09,6.09,0,0,0-1.77,4.11l-.56,20.76a6,6,0,0,0,5.88,6.2h0a6,6,0,0,0,4.32-1.66,6,6,0,0,0,1.88-4.22l.56-20.76a6,6,0,0,0-10.31-4.43Zm10.23,31.54-.18.18a9.16,9.16,0,0,1-6.59,2.52h0a9.22,9.22,0,0,1-9-9.46l.56-20.76a9.21,9.21,0,0,1,18.42.5l-.56,20.76a9.16,9.16,0,0,1-2.69,6.26Z"/><path class="cls-1" d="M280.27,281h0a7.63,7.63,0,0,1-7.42-7.83l.56-20.76a7.62,7.62,0,0,1,7.83-7.42h0a7.64,7.64,0,0,1,7.42,7.83l-.56,20.76a7.64,7.64,0,0,1-7.83,7.42Z"/><path class="cls-2" d="M276.76,248.31a6,6,0,0,0-1.77,4.1l-.56,20.76a6,6,0,0,0,5.88,6.2h0a6,6,0,0,0,6.2-5.87l.56-20.76a6,6,0,0,0-10.31-4.43ZM287,279.84a9.21,9.21,0,0,1-15.72-6.75l.56-20.76a9.21,9.21,0,1,1,18.42.49l-.56,20.76a9.13,9.13,0,0,1-2.7,6.26Z"/><path class="cls-2" d="M279.06,265.57l-.36,8.09a1.6,1.6,0,0,0,1.52,1.66,1.56,1.56,0,0,0,1.19-.47,1.54,1.54,0,0,0,.46-1.05l.35-8.09a1.58,1.58,0,1,0-3.16-.14Z"/><path class="cls-2" d="M129.43,256l-.3.09-.27.14a1.84,1.84,0,0,0-.44.44,1.47,1.47,0,0,0-.14.28,1.4,1.4,0,0,0-.09.29,1.12,1.12,0,0,0,0,.31,1.59,1.59,0,0,0,1.58,1.59,1.63,1.63,0,0,0,.31,0l.3-.09a1.82,1.82,0,0,0,.27-.15,1.73,1.73,0,0,0,.44-.44,1.65,1.65,0,0,0,.23-.57,1.1,1.1,0,0,0,0-.31,1.59,1.59,0,0,0-1.59-1.58,1.63,1.63,0,0,0-.31,0Z"/><path class="cls-2" d="M128.15,263.88v6.33a1.59,1.59,0,0,0,1.59,1.59,1.59,1.59,0,0,0,1.59-1.59v-6.33a1.59,1.59,0,0,0-3.18,0Z"/><path class="cls-2" d="M280.64,257.73a1.57,1.57,0,0,0-1.32.7,2.44,2.44,0,0,0-.14.28,1.4,1.4,0,0,0-.09.29,1.22,1.22,0,0,0,0,.62,1.71,1.71,0,0,0,.09.3,1.38,1.38,0,0,0,.14.27,1.63,1.63,0,0,0,1.32.71,1.63,1.63,0,0,0,.31,0,1.18,1.18,0,0,0,.3-.1,1.74,1.74,0,0,0,.27-.14,1.59,1.59,0,0,0,.24-.2,1.61,1.61,0,0,0,.47-1.12,1.58,1.58,0,0,0-.47-1.12,1.56,1.56,0,0,0-1.12-.46Z"/></g></g></svg>