<svg xmlns="http://www.w3.org/2000/svg" viewBox="0 0 491.66 518.89"><defs><style>.cls-1{fill:#ff3363;}.cls-2{fill:#243047;}.cls-3{fill:#299fff;}.cls-4{fill:#ffb842;}.cls-5{fill:#02b6ba;}.cls-6{fill:#ffac75;}.cls-7{fill:#fff;}.cls-8{fill:#232323;}</style></defs><g id="Layer_2" data-name="Layer 2"><g id="Layer_1-2" data-name="Layer 1"><path class="cls-1" d="M245.78,1.89C172,1.88,1.88,192.88,1.89,247.12c0,.14,135.19-87.49,243.92-87.47s244,87.71,244,87.56c0-55.8-170.15-245.3-244-245.32Z"/><path class="cls-2" d="M4,243.58c28.18-17.39,145.35-85.84,241.79-85.82s213.67,68.53,241.85,85.92c-1.55-13-11.07-33.12-27.21-57.29-17-25.42-40.54-54.35-66.36-81.45C347.52,56,284.11,3.79,245.78,3.78c-16.72,0-40.29,10.49-68.16,30.34-25,17.83-52.73,42.5-80.1,71.34C71.76,132.61,48.2,161.55,31.18,187,15.09,211,5.59,230.86,4,243.58Zm487.08,5a1.63,1.63,0,0,1-.42.31c-1,.55-1.63.14-2.7-.53-23.18-14.49-143.79-86.77-242.17-86.79S26.86,233.76,3.68,248.24c-1.08.67-1.73,1.07-2.71.53a1.89,1.89,0,0,1-1-1.65C0,230.28,15.25,204,28,184.87c17.13-25.59,40.83-54.72,66.73-82C122.31,73.84,150.2,49,175.43,31,204.34,10.44,228,0,245.78,0h0c17.79,0,41.46,10.38,70.37,30.84,25.29,17.9,53.19,42.62,80.68,71.49,26,27.25,49.67,56.36,66.77,82,12.8,19.17,28,45.64,28.06,62.92a1.9,1.9,0,0,1-.56,1.34Z"/><path class="cls-3" d="M245.78,1.89C172,1.88,1.88,192.88,1.89,247.12c0,.14,135.19-87.49,243.92-87.47s244,87.71,244,87.56c0-55.8-170.15-245.3-244-245.32Z"/><path class="cls-2" d="M4,243.58c28.18-17.39,145.35-85.84,241.79-85.82s213.67,68.53,241.85,85.92c-1.55-13-11.07-33.12-27.21-57.29-17-25.42-40.54-54.35-66.36-81.45C347.52,56,284.11,3.79,245.78,3.78c-16.72,0-40.29,10.49-68.16,30.34-25,17.83-52.73,42.5-80.1,71.34C71.76,132.61,48.2,161.55,31.18,187,15.09,211,5.59,230.86,4,243.58Zm487.08,5a1.63,1.63,0,0,1-.42.31c-1,.55-1.63.14-2.7-.53-23.18-14.49-143.79-86.77-242.17-86.79S26.86,233.76,3.68,248.24c-1.08.67-1.73,1.07-2.71.53a1.89,1.89,0,0,1-1-1.65C0,230.28,15.25,204,28,184.87c17.13-25.59,40.83-54.72,66.73-82C122.31,73.84,150.2,49,175.43,31,204.34,10.44,228,0,245.78,0h0c17.79,0,41.46,10.38,70.37,30.84,25.29,17.9,53.19,42.62,80.68,71.49,26,27.25,49.67,56.36,66.77,82,12.8,19.17,28,45.64,28.06,62.92a1.9,1.9,0,0,1-.56,1.34Z"/><path class="cls-4" d="M1.91,247.11c1.52-.84,135.79-87.48,243.9-87.46s242.46,86.74,243.94,87.55c-1.48-48.88-170.45-210.78-244-210.79S3.44,199.51,1.91,247.11Z"/><path class="cls-2" d="M1.91,247.11Zm2.33-3.67c28.57-17.6,145.38-85.7,241.57-85.68s213.1,68.2,241.63,85.79c-2.07-11.32-11.71-28.39-27.59-48.74-17.07-21.89-40.63-46.72-66.34-69.93-27.24-24.58-54.82-45.6-79.79-60.79C286,47.22,262.5,38.3,245.78,38.3s-40.18,9-67.91,26C153,79.49,125.41,100.6,98.13,125.31c-25.65,23.23-49.2,48.07-66.32,70C16,215.5,6.37,232.36,4.24,243.44Zm486.85,5.1a1.82,1.82,0,0,1-.35.27,1.87,1.87,0,0,1-1.9.05l-.87-.54c-23.18-14.48-143.79-86.76-242.16-86.78S26.86,233.75,3.69,248.23c-.63.39-.77.48-.87.53A1.89,1.89,0,0,1,0,247.05C.5,232.17,16,209.41,28.83,192.94c17.25-22.05,41-47.06,66.76-70.43C123,97.64,150.81,76.38,175.9,61c28.72-17.59,52.24-26.5,69.88-26.5S287,43.38,315.69,60.86c25.16,15.31,52.95,36.48,80.36,61.22,25.86,23.34,49.59,48.35,66.78,70.4,12.89,16.53,28.35,39.42,28.81,54.66a2,2,0,0,1-.55,1.4Z"/><path class="cls-1" d="M2,247.05c4.41-2.7,136.9-87.42,243.8-87.4s239.56,84.87,243.85,87.5c-4.77-39.67-171.1-164-243.88-164S7,208.28,2,247.05Z"/><path class="cls-2" d="M5,243c29.82-18.3,145.45-85.24,240.82-85.22S457,224.83,486.71,243.1c-3.21-9-13-21.88-28.27-37-17.28-17.12-40.82-36.41-66.3-54.32-27-19-54.37-35.23-79-46.93C285.69,91.89,262.41,85,245.78,85,176.05,85,20.3,201.27,5,243Zm486,5.5a1.58,1.58,0,0,1-.31.26,1.89,1.89,0,0,1-2,0l-.69-.43c-23.19-14.49-143.8-86.77-242.17-86.79S26.86,233.75,3.68,248.23c-.33.21-.56.36-.69.43a1.89,1.89,0,0,1-2,0,1.91,1.91,0,0,1-.85-1.83c1.57-12.26,17.45-30.19,30.51-43.08C48.12,186.47,71.83,167,97.4,149c27.24-19.22,54.73-35.62,79.5-47.43,28.31-13.5,51.48-20.34,68.88-20.34s40.63,6.81,69,20.24c24.85,11.78,52.37,28.11,79.58,47.25,25.65,18,49.37,37.46,66.79,54.72,13.06,12.93,28.93,31,30.44,43.48a1.91,1.91,0,0,1-.55,1.56Z"/><path class="cls-2" d="M245.79,0a1.89,1.89,0,0,0-1.9,1.89L243.77,83a1.89,1.89,0,1,0,3.78,0l.12-81.07A1.89,1.89,0,0,0,245.79,0Z"/><path class="cls-2" d="M172.55,35.45l0,67a1.89,1.89,0,0,0,1.89,1.88,1.89,1.89,0,0,0,1.89-1.88v-67a1.9,1.9,0,0,0-3.79,0Z"/><path class="cls-2" d="M317.13,33.58a1.9,1.9,0,0,0-1.89,1.9v67a1.9,1.9,0,0,0,3.23,1.34,2,2,0,0,0,.56-1.34l0-67a1.9,1.9,0,0,0-1.89-1.9Z"/><path class="cls-2" d="M13.15,250.65a1.87,1.87,0,0,0-1.81,2l2,48.6a1.88,1.88,0,0,0,2,1.81,1.92,1.92,0,0,0,1.26-.55,1.88,1.88,0,0,0,.55-1.41l-2-48.6a1.88,1.88,0,0,0-2-1.81Z"/><path class="cls-2" d="M5.09,279a1.88,1.88,0,0,0,.56-1.39L5.12,261a1.89,1.89,0,1,0-3.78.12l.53,16.67A1.88,1.88,0,0,0,5.09,279Z"/><path class="cls-2" d="M23.57,246.82l.73,30.09a1.89,1.89,0,0,0,3.22,1.29,1.86,1.86,0,0,0,.56-1.38l-.73-30.09a1.89,1.89,0,1,0-3.78.09Z"/><path class="cls-2" d="M2.73,290.76a2.35,2.35,0,0,0,.35.11l.37,0a1.91,1.91,0,0,0,1.34-.55,1.68,1.68,0,0,0,.24-.29,2,2,0,0,0,.17-.32,2.47,2.47,0,0,0,.11-.36,2.22,2.22,0,0,0,0-.37,2.4,2.4,0,0,0,0-.37,2,2,0,0,0-.11-.35c0-.11-.11-.22-.17-.33a1.61,1.61,0,0,0-.24-.28,1.37,1.37,0,0,0-.29-.24,2,2,0,0,0-.32-.17,1.65,1.65,0,0,0-.36-.11,2.21,2.21,0,0,0-.37,0,1.61,1.61,0,0,0-.37,0,1.57,1.57,0,0,0-.35.11,2,2,0,0,0-.32.17,1.91,1.91,0,0,0-.53.53,2,2,0,0,0-.17.32,1.57,1.57,0,0,0-.11.35,2.33,2.33,0,0,0,0,.37,2.21,2.21,0,0,0,0,.37,1.65,1.65,0,0,0,.11.36,2,2,0,0,0,.17.32,1.68,1.68,0,0,0,.24.29,1.28,1.28,0,0,0,.29.23,2,2,0,0,0,.32.18Z"/><path class="cls-2" d="M477.11,250.43a1.89,1.89,0,0,0-2,1.81l-2,48.6a1.9,1.9,0,0,0,1.81,2,1.9,1.9,0,0,0,2-1.81l2-48.6a1.89,1.89,0,0,0-1.82-2Z"/><path class="cls-2" d="M485.15,260.77l-.53,16.66a1.89,1.89,0,0,0,3.22,1.4,1.91,1.91,0,0,0,.56-1.28l.52-16.66a1.89,1.89,0,1,0-3.77-.12Z"/><path class="cls-2" d="M464,278.54a1.86,1.86,0,0,0,1.38-.56,1.92,1.92,0,0,0,.56-1.29l.72-30.09a1.89,1.89,0,0,0-3.78-.09l-.72,30.09a1.89,1.89,0,0,0,1.84,1.94Z"/><path class="cls-2" d="M487.53,287.05a1.4,1.4,0,0,0-.35-.1,1.61,1.61,0,0,0-.37,0,2.22,2.22,0,0,0-.37,0,2,2,0,0,0-.35.11,2.55,2.55,0,0,0-.33.17,1.91,1.91,0,0,0-.53.53,3.24,3.24,0,0,0-.17.32,2.47,2.47,0,0,0-.11.36,1.5,1.5,0,0,0,0,.37,2.31,2.31,0,0,0,0,.37,2,2,0,0,0,.11.35,2.55,2.55,0,0,0,.17.33,2.17,2.17,0,0,0,.24.29,3.11,3.11,0,0,0,.28.23,1.54,1.54,0,0,0,.34.17,1.42,1.42,0,0,0,.35.11,1.5,1.5,0,0,0,.37,0,1.61,1.61,0,0,0,.37,0,1.42,1.42,0,0,0,.35-.11,1.73,1.73,0,0,0,.33-.17l.29-.23a3.25,3.25,0,0,0,.23-.29,2.06,2.06,0,0,0,.17-.33,1.57,1.57,0,0,0,.11-.35,2.33,2.33,0,0,0,0-.37,1.5,1.5,0,0,0,0-.37,2.42,2.42,0,0,0-.1-.36,3.3,3.3,0,0,0-.18-.32,2.26,2.26,0,0,0-.23-.29,1.54,1.54,0,0,0-.29-.23,2.11,2.11,0,0,0-.33-.18Z"/><path class="cls-2" d="M146.82,129.89A420.82,420.82,0,0,0,96.46,162.7a1.89,1.89,0,0,0,2.34,3,415.85,415.85,0,0,1,49.85-32.48,1.94,1.94,0,0,0,.42-.32,1.89,1.89,0,0,0-2.25-3Z"/><path class="cls-2" d="M157.56,125.25a1.42,1.42,0,0,0-.35-.11,1.5,1.5,0,0,0-.37,0,1.61,1.61,0,0,0-.37,0,1.42,1.42,0,0,0-.35.11,1.48,1.48,0,0,0-.33.17,2,2,0,0,0-.52.52,1.48,1.48,0,0,0-.17.33,1.42,1.42,0,0,0-.11.35,1.61,1.61,0,0,0,0,.37,1.5,1.5,0,0,0,0,.37,1.65,1.65,0,0,0,.11.36,1.41,1.41,0,0,0,.17.32,3.25,3.25,0,0,0,.23.29,1.94,1.94,0,0,0,1.34.55,2.22,2.22,0,0,0,.37,0l.35-.11a1.74,1.74,0,0,0,.33-.18,2.26,2.26,0,0,0,.29-.23,1.54,1.54,0,0,0,.23-.29,1.74,1.74,0,0,0,.18-.33,3.58,3.58,0,0,0,.11-.35,2.31,2.31,0,0,0,0-.37,1.91,1.91,0,0,0-.55-1.34,1.73,1.73,0,0,0-.29-.23,1.29,1.29,0,0,0-.33-.17Z"/><path class="cls-2" d="M388.2,183a2.12,2.12,0,0,0,.35-.48,1.9,1.9,0,0,0-.82-2.54c-15.54-8-50.1-18.29-51.57-18.73a1.89,1.89,0,0,0-1.08,3.62c.36.11,35.69,10.67,50.92,18.47a1.89,1.89,0,0,0,2.2-.34Z"/><path class="cls-2" d="M297.53,29.74c-12.17-7.61-31-14.68-31.85-15a1.89,1.89,0,0,0-1.32,3.55c.19.07,19.32,7.23,31.16,14.63a1.89,1.89,0,0,0,2.34-.26,1.84,1.84,0,0,0,.27-.34,1.89,1.89,0,0,0-.6-2.6Z"/><path class="cls-2" d="M306.11,34.51a2,2,0,0,0-.32-.17,1.57,1.57,0,0,0-.35-.11,2.46,2.46,0,0,0-.37,0,1.93,1.93,0,0,0-1.58.84,2.59,2.59,0,0,0-.17.33,2,2,0,0,0-.11.35c0,.13,0,.25,0,.37a2.21,2.21,0,0,0,0,.37,1.42,1.42,0,0,0,.11.35,1.71,1.71,0,0,0,.17.33,1.68,1.68,0,0,0,.24.29,1.91,1.91,0,0,0,1.34.55,1.61,1.61,0,0,0,.37,0,1.4,1.4,0,0,0,.35-.1l.33-.18a1.49,1.49,0,0,0,.28-.23,1.92,1.92,0,0,0,.56-1.34,1.61,1.61,0,0,0,0-.37,1.57,1.57,0,0,0-.11-.35,2.59,2.59,0,0,0-.17-.33,1.61,1.61,0,0,0-.24-.28,1.37,1.37,0,0,0-.29-.24Z"/><path class="cls-2" d="M328.05,123.28a3.58,3.58,0,0,0-.11.35,2.3,2.3,0,0,0,0,.74,2,2,0,0,0,.11.35,2.55,2.55,0,0,0,.17.33,2.17,2.17,0,0,0,.24.29,2.26,2.26,0,0,0,.29.23,2,2,0,0,0,.32.18,2.42,2.42,0,0,0,.36.1,1.5,1.5,0,0,0,.37,0l.37,0,.35-.11a2.11,2.11,0,0,0,.33-.18l.29-.23a1.91,1.91,0,0,0,.55-1.34,1.55,1.55,0,0,0,0-.37,1.42,1.42,0,0,0-.11-.35,1.29,1.29,0,0,0-.17-.33,2.17,2.17,0,0,0-.24-.29,1.9,1.9,0,0,0-1.33-.55,1.5,1.5,0,0,0-.37,0,2.42,2.42,0,0,0-.36.1,2,2,0,0,0-.32.18,1.61,1.61,0,0,0-.52.52,1.74,1.74,0,0,0-.18.33Z"/><path class="cls-2" d="M322.41,122.23a1.89,1.89,0,0,0,2.27-.31,1.84,1.84,0,0,0,.31-.41,1.88,1.88,0,0,0-.71-2.57,246.24,246.24,0,0,0-44.8-19.53,1.9,1.9,0,0,0-1.09,3.63,240.63,240.63,0,0,1,44,19.19Z"/><path class="cls-5" d="M242.88,370.34l0,35c0-21.6,0-35,0-35Zm-21-23.71,0,4.53a16.64,16.64,0,0,0-1.27,25.39l1.86,126.5a10.26,10.26,0,0,0,18.4,6.11A10.28,10.28,0,0,0,251,500.25L266.55,376c2.63-2.69,5.26-6.11,5.45-10.38a16.28,16.28,0,0,0-4.58-12.28l.05-5-45.62-1.74Z"/><path class="cls-2" d="M244.25,406.63a1.9,1.9,0,0,1-3.23-1.34l0-35a1.88,1.88,0,0,1,1.88-1.89,1.9,1.9,0,0,1,1.9,1.88s0,0,0,0h0c0,.4,0,13.81,0,35a1.9,1.9,0,0,1-.55,1.34Zm-4.8,101.19a1.93,1.93,0,0,1,1.35-.55,8.39,8.39,0,0,0,6-2.46l0,0a8.29,8.29,0,0,0,2.33-4.78l15.53-124.19a1.84,1.84,0,0,1,.52-1.08c2.2-2.26,4.74-5.34,4.91-9.16a14.39,14.39,0,0,0-4-10.85,1.87,1.87,0,0,1-.56-1.35l0-3.18-41.84-1.59,0,2.58a1.85,1.85,0,0,1-.79,1.52,14.75,14.75,0,0,0-1.12,22.43,1.86,1.86,0,0,1,.64,1.39L224.28,503a8.39,8.39,0,0,0,13.13,6.78,8.18,8.18,0,0,0,1.88-1.79c.05-.07.11-.13.16-.19Zm10-.33A12.2,12.2,0,0,1,241.7,511a11.71,11.71,0,0,1-2.15,1.89,12,12,0,0,1-6.71,2.14,12.17,12.17,0,0,1-12.34-12l-1.85-125.68a18.6,18.6,0,0,1,1.27-27.17l0-3.6a1.91,1.91,0,0,1,2-1.88l45.63,1.74a1.89,1.89,0,0,1,1.82,1.91l0,4.24a18.27,18.27,0,0,1,4.57,13.11c-.22,4.85-3.15,8.63-5.54,11.16L252.91,500.48a12.09,12.09,0,0,1-3.4,6.95l-.06.06Z"/><path class="cls-5" d="M242.88,368.06,231.49,497.12c-.75,5.62,2,10.83,7.63,11.57a10.28,10.28,0,0,0,11.53-8.82L266.55,376l-23.67-8Z"/><path class="cls-2" d="M249.07,507.11a12.07,12.07,0,0,1-10.2,3.46c-6.29-.84-10.18-6.58-9.26-13.66L241,367.9a1.89,1.89,0,1,1,3.77.33L233.37,497.29a.25.25,0,0,1,0,.08c-.54,4.1,1.11,8.8,6,9.45a8.31,8.31,0,0,0,7-2.38l0,0a8.37,8.37,0,0,0,2.34-4.78l15.9-123.82a1.89,1.89,0,0,1,3.75.49l-15.9,123.82a12.09,12.09,0,0,1-3.4,6.94l-.06.06Z"/><path class="cls-6" d="M253.11,260.4,253.3,240l-16,.16-.2,20.37-8.14.08a11.29,11.29,0,0,0-11.15,11.14l-.29,30.55,55.05-.54.3-30.55A10.79,10.79,0,0,0,262,260.31l-8.88.09Z"/><path class="cls-2" d="M219.48,300.42l51.27-.5.28-28.69a8.9,8.9,0,0,0-9-9l-8.89.08a1.88,1.88,0,0,1-1.9-1.9l.17-18.45-12.17.12L239,260.57a1.89,1.89,0,0,1-1.87,1.88l-8.14.08a9.39,9.39,0,0,0-9.27,9.27l-.28,28.62ZM274,303.13a1.91,1.91,0,0,1-1.32.55l-55,.53a1.87,1.87,0,0,1-1.36-.55,1.85,1.85,0,0,1-.55-1.35l.3-30.55a13.19,13.19,0,0,1,13-13l6.29-.06.18-18.52a1.9,1.9,0,0,1,1.87-1.88l16-.15a1.85,1.85,0,0,1,1.35.55,1.92,1.92,0,0,1,.56,1.36L255,258.49l7-.06a12.64,12.64,0,0,1,12.83,12.83l-.29,30.55a1.91,1.91,0,0,1-.55,1.32Z"/><path class="cls-1" d="M272.92,271.42v-.18A10.79,10.79,0,0,0,262,260.31l-8.88.09-16,.16-8.14.08a7.37,7.37,0,0,0-.82.05l-8.47,16.66S242.7,297,250.61,302l3.65,0c3.35-4.37,12.4-19.74,18.66-30.55Z"/><path class="cls-2" d="M272.92,271.42Zm-21.75,28.69,2.13,0c2.81-3.93,9-14.18,17.72-29.18a8.88,8.88,0,0,0-9-8.7l-32.63.31-7.3,14.35c4.62,3.91,22,18.59,29.09,23.24Zm4.43,3.2a2,2,0,0,1-1.32.55l-3.65,0a1.81,1.81,0,0,1-1-.29c-7.94-5.06-30.16-24-31.1-24.81a1.89,1.89,0,0,1-.46-2.3l8.46-16.66a1.93,1.93,0,0,1,1.53-1h.06c.27,0,.57-.05.9-.05l33-.32a12.65,12.65,0,0,1,12.84,12.83v.18a2,2,0,0,1-.26.93c-6.72,11.62-15.44,26.39-18.79,30.75a1.46,1.46,0,0,1-.16.19Z"/><path class="cls-3" d="M269.25,260.25h0a11.08,11.08,0,0,0-1.41,0l-5.93.06a39.58,39.58,0,0,1,.29,5.28c-.14,14.91-34.39,15.24-34.24.33a39.66,39.66,0,0,1,.39-5.29l-5.93.06a10.85,10.85,0,0,0-1.4,0h0a20.81,20.81,0,0,0-20.52,20.52l-.23,23.15,13.27-.13L218,353.09a59.6,59.6,0,0,0,24.46,5.49,193.38,193.38,0,0,0,27.24-2.24l6.16-52.68,13.26-.13.22-23.15a19.86,19.86,0,0,0-20.13-20.13Z"/><path class="cls-2" d="M219.82,351.83a58.85,58.85,0,0,0,22.68,4.86,192.88,192.88,0,0,0,25.53-2l6-51.25a1.88,1.88,0,0,1,1.86-1.67l11.41-.11.21-21.29a18,18,0,0,0-18.24-18.23l-.24,0c-.14,0-.37,0-.6,0l-.56,0-3.87,0c.08,1.14.11,2.27.1,3.43,0,4.19-2.39,7.81-6.63,10.2-7.14,4-18.51,4-25.35,0-3.94-2.32-6.09-5.83-6-9.89,0-1.12.06-2.24.16-3.35l-3.79,0h-.56a3.77,3.77,0,0,0-.6,0l-.26,0a18.92,18.92,0,0,0-18.65,18.64l-.21,21.23,11.34-.11a1.89,1.89,0,0,1,1.9,1.72l4.42,47.74Zm51.25,5.85a1.85,1.85,0,0,1-1,.52,193.43,193.43,0,0,1-27.54,2.27,61.16,61.16,0,0,1-25.32-5.69,1.88,1.88,0,0,1-1-1.52l-4.36-47.09-11.53.12a1.91,1.91,0,0,1-1.91-1.91l.23-23.16a22.72,22.72,0,0,1,22.3-22.39,7.1,7.1,0,0,1,1.11,0h.4l5.93-.06a1.88,1.88,0,0,1,1.89,2.15,39.25,39.25,0,0,0-.37,5.05c0,2.72,1.38,4.94,4.18,6.6,5.71,3.37,15.59,3.36,21.58,0,3.09-1.75,4.68-4.09,4.7-6.95a38.79,38.79,0,0,0-.27-5,1.88,1.88,0,0,1,1.86-2.11l5.92-.06.4,0a10.44,10.44,0,0,1,1.12,0,21.79,21.79,0,0,1,21.94,22l-.23,23.15a1.89,1.89,0,0,1-1.87,1.87l-11.6.11-6,51a1.88,1.88,0,0,1-.54,1.12Z"/><path class="cls-2" d="M278.5,279a1.89,1.89,0,0,0-2.09,1.66l-8.56,75.66a1.89,1.89,0,0,0,3.76.43l8.55-75.66A1.88,1.88,0,0,0,278.5,279Z"/><path class="cls-2" d="M211.4,279.64a1.88,1.88,0,0,0-1.71,2.05l6.46,71.76a1.9,1.9,0,0,0,2.06,1.72,1.84,1.84,0,0,0,1.16-.55,1.9,1.9,0,0,0,.55-1.51l-6.46-71.76a1.91,1.91,0,0,0-2.06-1.71Z"/><path class="cls-6" d="M271.58,220.33c-.15,16-12.07,29-26.6,29.2s-26.19-12.71-26-28.69,12.07-29.05,26.6-29.2,26.2,12.7,26,28.69Z"/><path class="cls-2" d="M229.11,200.68a28.94,28.94,0,0,0-8.28,20.18,27.93,27.93,0,0,0,7.86,20A22.6,22.6,0,0,0,245,247.63c13.49-.13,24.59-12.39,24.73-27.32h0a27.93,27.93,0,0,0-7.86-20,22.65,22.65,0,0,0-16.27-6.8,23.59,23.59,0,0,0-16.45,7.15Zm35,42.47A27.38,27.38,0,0,1,245,251.42a26.36,26.36,0,0,1-19-7.91,31.69,31.69,0,0,1-9-22.69c.17-17,12.94-30.92,28.47-31.07a26.36,26.36,0,0,1,19,7.91,31.69,31.69,0,0,1,9,22.69,32.64,32.64,0,0,1-9.39,22.8Z"/><path class="cls-1" d="M244.77,190.05c-19.8.19-30.6,18.6-30.74,33.78,0,3.65,2,6.69,3,9.87,1.15,3.43,12.4,3,12.43-.67l.12-12.41c.06-5.58,4.32-10.15,9.52-10.2l12.44-.12c5.2-.05,9.37,4.44,9.32,10l-.12,12.41c0,3.67,10.86,5.56,12.08,2.11,1.13-3.2,3-7.74,3-11.39.15-15.18-11.32-33.6-31.13-33.4Z"/><path class="cls-2" d="M231.36,211.87a11.14,11.14,0,0,1,7.76-3.34l12.44-.12a10.72,10.72,0,0,1,7.75,3.21,12.22,12.22,0,0,1,3.48,8.72l-.12,12.4c.07.33,1.35,1.38,4,1.85s4.25-.09,4.43-.39l.54-1.5c1.05-2.89,2.36-6.48,2.39-9.27A33.9,33.9,0,0,0,264.34,200a26.7,26.7,0,0,0-19.55-8h0c-19.7.19-28.74,18.77-28.87,31.91a15.55,15.55,0,0,0,1.74,6.23c.42,1,.85,2,1.2,3,.13.29,1.46,1,3.94,1.05,2.71,0,4.54-.73,4.81-1.18l.12-12.37a12.55,12.55,0,0,1,3.63-8.73Zm42.38,25c-1.71,1.72-5,1.89-7.74,1.41-4.35-.76-7.14-3-7.11-5.61l.12-12.4a8.41,8.41,0,0,0-2.37-6,7,7,0,0,0-5-2.1l-12.44.13c-4.17,0-7.6,3.77-7.65,8.32l-.12,12.4c0,2.37-2.21,4.13-5.86,4.7-3.48.55-9.08.09-10.26-3.44-.29-.89-.68-1.78-1.08-2.73a18.82,18.82,0,0,1-2.05-7.76,39.27,39.27,0,0,1,8.41-23.67,30.55,30.55,0,0,1,24.2-12h0A30.41,30.41,0,0,1,267,197.29a37.81,37.81,0,0,1,10.77,26.18c0,3.43-1.46,7.37-2.61,10.52-.19.52-.37,1-.53,1.47a3.77,3.77,0,0,1-.91,1.44Z"/><path class="cls-3" d="M245.15,180.56c-29.14.28-38.51,17.9-38.71,38.71a23.52,23.52,0,0,0,6.9,16.59c3.51,3.55,8.73,3.37,8.78-1.67l.17-17a14.18,14.18,0,0,1,14-14l18.3-.18a13.54,13.54,0,0,1,13.73,13.72l-.17,17c-.05,5,6.63,6.12,8.75,1.51.14-.31,7.27-8.74,7.36-17.88.2-20.81-9.95-37.1-39.1-36.81Z"/><path class="cls-2" d="M225.11,206a16,16,0,0,1,11.15-4.71l18.3-.18a15.44,15.44,0,0,1,15.64,15.63l-.17,17a2.28,2.28,0,0,0,1.84,2.46,2.91,2.91,0,0,0,3.3-1.76,3.65,3.65,0,0,1,.46-.7c4.29-5.69,6.68-11.52,6.73-16.4.11-11.18-2.82-19.83-8.71-25.71-6.23-6.23-15.81-9.33-28.48-9.2h0c-24.21.23-36.61,12.63-36.84,36.84a21.73,21.73,0,0,0,6.29,15.18l.07.06c1.65,1.68,3.54,2.14,4.55,1.73.65-.27,1-1,1-2.09l.17-17A16,16,0,0,1,225.11,206Zm53.5,30,0,.06,0-.06Zm-1.44,2.06a6.57,6.57,0,0,1-6.13,1.81,6.1,6.1,0,0,1-4.79-6.18l.17-17A11.66,11.66,0,0,0,254.6,204.9l-18.3.18a12.3,12.3,0,0,0-12.12,12.12l-.17,17c0,2.67-1.24,4.7-3.35,5.55-2.61,1.06-6.09,0-8.66-2.56l0,0a25.26,25.26,0,0,1-7.44-17.91c.12-11.93,3.14-21.44,9-28.27,6.87-8,17.51-12.19,31.64-12.33h0c13.72-.13,24.21,3.34,31.19,10.31,6.63,6.63,9.93,16.2,9.81,28.42-.06,5.77-2.65,12.22-7.49,18.65l-.12.16a6.86,6.86,0,0,1-1.36,1.9Z"/><path class="cls-2" d="M223.3,195.08a1.89,1.89,0,0,0,3.31,1.84,9.67,9.67,0,0,1,8.3-4.31,1.88,1.88,0,0,0,1.87-1.91,1.89,1.89,0,0,0-1.91-1.87,13.44,13.44,0,0,0-11.57,6.25Z"/><path class="cls-2" d="M254.64,188.64a1.89,1.89,0,1,0,0,3.78,9.12,9.12,0,0,1,8.15,4.1,1.9,1.9,0,0,0,2.56.76,2.53,2.53,0,0,0,.44-.33,1.9,1.9,0,0,0,.33-2.24,12.88,12.88,0,0,0-11.51-6.07Z"/><path class="cls-2" d="M212.9,216.12l-.38,6.46a1.89,1.89,0,0,0,3.22,1.45,1.85,1.85,0,0,0,.55-1.23l.39-6.45a1.89,1.89,0,0,0-3.78-.23Z"/><path class="cls-2" d="M275.84,213.59a1.9,1.9,0,0,0-1.91,1.87l-.05,5.47a1.89,1.89,0,0,0,3.23,1.35,1.85,1.85,0,0,0,.55-1.32l.06-5.46a1.9,1.9,0,0,0-1.88-1.91Z"/><path class="cls-2" d="M242.13,335.65l-1.14,14a1.89,1.89,0,0,0,1.73,2,1.9,1.9,0,0,0,2-1.73l1.14-14a1.89,1.89,0,1,0-3.77-.31Z"/><path class="cls-2" d="M241.74,313.46l.39,13.29a1.88,1.88,0,0,0,1.94,1.83,1.86,1.86,0,0,0,1.28-.55,1.9,1.9,0,0,0,.56-1.39l-.39-13.29a1.89,1.89,0,0,0-3.78.11Z"/><path class="cls-2" d="M243.69,276.59a1.89,1.89,0,0,0-1.94,1.84L241,302.72a1.9,1.9,0,0,0,1.84,1.95,1.88,1.88,0,0,0,1.39-.55,1.91,1.91,0,0,0,.56-1.28l.75-24.29a1.89,1.89,0,0,0-1.83-2Z"/><path class="cls-2" d="M247.77,435a2,2,0,0,0-.35-.11,2.31,2.31,0,0,0-.37,0,1.91,1.91,0,0,0-1.57.84,2,2,0,0,0-.18.32c0,.12-.08.23-.11.36a2.31,2.31,0,0,0,0,.37,1.61,1.61,0,0,0,0,.37,1.42,1.42,0,0,0,.11.35,1.29,1.29,0,0,0,.17.33,3.25,3.25,0,0,0,.23.29,1.91,1.91,0,0,0,1.34.55,1.5,1.5,0,0,0,.37,0,2,2,0,0,0,.35-.1,2.11,2.11,0,0,0,.33-.18,2.17,2.17,0,0,0,.29-.24,1.9,1.9,0,0,0,0-2.67,1.54,1.54,0,0,0-.29-.23,1.74,1.74,0,0,0-.33-.18Z"/><path class="cls-2" d="M227.73,435.86a2,2,0,0,0,.35.1,1.55,1.55,0,0,0,.37,0,2.31,2.31,0,0,0,.37,0,2.06,2.06,0,0,0,.35-.12,1.29,1.29,0,0,0,.33-.17l.29-.23a1.91,1.91,0,0,0,.55-1.34,1.61,1.61,0,0,0,0-.37,2,2,0,0,0-.1-.35,2.55,2.55,0,0,0-.17-.33l-.24-.29-.29-.23a1.29,1.29,0,0,0-.33-.17,1.1,1.1,0,0,0-.35-.11,1.55,1.55,0,0,0-.37,0,1.9,1.9,0,0,0-1.57.84,1.41,1.41,0,0,0-.17.32,1.65,1.65,0,0,0-.11.36,1.55,1.55,0,0,0,0,.37,1.89,1.89,0,0,0,.56,1.34,1.73,1.73,0,0,0,.29.23,1.4,1.4,0,0,0,.32.18Z"/><path class="cls-2" d="M244,446.12l-1.14,15.56a1.89,1.89,0,0,0,3.22,1.48,1.92,1.92,0,0,0,.55-1.2l1.14-15.56a1.89,1.89,0,1,0-3.77-.28Z"/><path class="cls-2" d="M230.2,346.79a4.74,4.74,0,0,1-4.15-4.58l-.26-13.66a1.89,1.89,0,0,0-3.78.08l.26,13.65a8.55,8.55,0,0,0,7.46,8.27c3.52.43,3.84.43,4,.43a1.91,1.91,0,0,0,1.34-.56,1.88,1.88,0,0,0-1.32-3.22c-.1,0-.67-.05-3.59-.41Z"/><path class="cls-7" d="M219.83,513.2a6,6,0,0,1-5.9-5.89l-.1-11.25A1.14,1.14,0,0,1,215,494.9h0l26.78-.25a1.15,1.15,0,0,1,1.14,1.14L243,507a5.94,5.94,0,0,1-5.89,6l-17.17.16Z"/><path class="cls-2" d="M219.84,511.31l17.24-.16a4.06,4.06,0,0,0,4-4.09L241,496.55l-25.28.23.09,10.51a4.08,4.08,0,0,0,4,4Zm22.74,1.33a7.81,7.81,0,0,1-5.47,2.29l-17.26.16h0a7.84,7.84,0,0,1-7.77-7.75l-.1-11.27a3,3,0,0,1,.87-2.15l0,0a3,3,0,0,1,2.1-.88h0l26.76-.25a3.07,3.07,0,0,1,3.05,3l.1,11.26a7.81,7.81,0,0,1-2.3,5.61Z"/><path class="cls-4" d="M222.51,489.89a1.16,1.16,0,0,1-1.07-.74l-2.76-7.28a3.17,3.17,0,0,1,3-4.32l12.1-.11h0a3.19,3.19,0,0,1,3,4.36l-2.87,7.26a1.14,1.14,0,0,1-1.06.73l-10.3.1Z"/><path class="cls-2" d="M223,488l9.28-.08,2.68-6.8a1.3,1.3,0,0,0-1.2-1.78h-.06l-12.07.11a1.42,1.42,0,0,0-.45.08,1.3,1.3,0,0,0-.72.68,1.24,1.24,0,0,0,0,1L223,488ZM235,490.8a3,3,0,0,1-2.12.88l-10.31.1h0a3,3,0,0,1-2.82-2l-2.76-7.28a5.06,5.06,0,0,1,4.71-6.88l12.19-.12a5.1,5.1,0,0,1,5,5.13,4.91,4.91,0,0,1-.35,1.82l-2.87,7.27a2.93,2.93,0,0,1-.68,1Z"/><path class="cls-1" d="M226,506.06c-5.26,0-6.09-.28-6.36-.36-2.08-.6-3.49-3.59-3.75-4.18a1,1,0,0,1-.08-.29,14.13,14.13,0,0,1-2-6.24c0-3.71,3.32-6.74,7.49-6.78l13.92-.1h.13c4.12,0,7.46,3,7.51,6.67A13.72,13.72,0,0,1,241,501a.72.72,0,0,1-.06.29,8.42,8.42,0,0,1-5.18,4.43,91.81,91.81,0,0,1-9.77.3Z"/><path class="cls-2" d="M235.29,503.93a6.64,6.64,0,0,0,3.87-3.21,2.14,2.14,0,0,1,.21-.6A12.44,12.44,0,0,0,241,494.8c-.05-2.61-2.58-4.77-5.65-4.8h-.12l-13.89.1a6.13,6.13,0,0,0-4.26,1.7l0,0a4.43,4.43,0,0,0-1.32,3.14,12.51,12.51,0,0,0,1.74,5.29,1.91,1.91,0,0,1,.23.6c.6,1.32,1.64,2.76,2.49,3a31.3,31.3,0,0,0,5.7.29H226c3.62,0,8.44-.06,9.27-.23Zm5.47,1a10.68,10.68,0,0,1-4.47,2.68c-1.44.4-8.92.37-10.14.37H226c-5.53,0-6.44-.31-6.88-.44-2.71-.78-4.36-3.91-4.94-5.22a3.3,3.3,0,0,1-.13-.37,15.69,15.69,0,0,1-2.11-6.9,8.2,8.2,0,0,1,2.41-5.83l.05-.06a9.94,9.94,0,0,1,6.91-2.81l14.07-.1c5.19,0,9.32,3.8,9.4,8.53a15.55,15.55,0,0,1-1.95,6.94,1.82,1.82,0,0,1-.13.37,8.91,8.91,0,0,1-1.94,2.84Z"/><path class="cls-7" d="M232.74,517a6,6,0,0,1-5.9-5.89l-.1-11.26a1.15,1.15,0,0,1,1.13-1.16h0l26.78-.24a1.15,1.15,0,0,1,1.14,1.14l.09,11.25a6,6,0,0,1-5.89,6l-17.16.15Z"/><path class="cls-2" d="M232.74,515.11,250,515a4.06,4.06,0,0,0,4-4.09l-.09-10.52-25.28.24.1,10.51a4.07,4.07,0,0,0,4,4Zm22.75,1.32a7.86,7.86,0,0,1-5.47,2.3l-17.27.16h0a7.83,7.83,0,0,1-7.76-7.76l-.1-11.26a3,3,0,0,1,.86-2.16l0,0a3,3,0,0,1,2.1-.89h0l26.76-.24a3.06,3.06,0,0,1,3.05,3l.09,11.25a7.81,7.81,0,0,1-2.29,5.61Z"/><path class="cls-4" d="M235.41,493.68a1.14,1.14,0,0,1-1.06-.74l-2.76-7.27a3.2,3.2,0,0,1,2.95-4.33l12.1-.11h.06a3.2,3.2,0,0,1,3.17,3.22,3.27,3.27,0,0,1-.23,1.15l-2.86,7.26a1.15,1.15,0,0,1-1.06.73l-10.31.09Z"/><path class="cls-2" d="M235.93,491.79l9.27-.09,2.68-6.8a1.27,1.27,0,0,0,.09-.47,1.3,1.3,0,0,0-1.29-1.31h-.05l-12.07.11a1.13,1.13,0,0,0-.45.09,1.28,1.28,0,0,0-.73.68,1.33,1.33,0,0,0,0,1l2.58,6.79Zm11.93,2.8a3.06,3.06,0,0,1-2.12.89l-10.31.09h0a3,3,0,0,1-2.81-1.95l-2.76-7.28a5.08,5.08,0,0,1,2.94-6.56,5.33,5.33,0,0,1,1.76-.33l12.2-.11a5.09,5.09,0,0,1,5,5.12,5.18,5.18,0,0,1-.36,1.83l-2.86,7.26a3.08,3.08,0,0,1-.68,1Z"/><path class="cls-1" d="M238.92,509.86c-5.25,0-6.08-.29-6.36-.37-2.08-.6-3.48-3.58-3.75-4.17a1,1,0,0,1-.07-.29,14,14,0,0,1-2-6.24c0-3.71,3.31-6.75,7.49-6.78l13.91-.11h.13c4.12.05,7.46,3,7.52,6.67a14,14,0,0,1-1.86,6.27,1,1,0,0,1-.07.29,8.38,8.38,0,0,1-5.18,4.42,91.61,91.61,0,0,1-9.77.3Z"/><path class="cls-2" d="M248.19,507.73a6.66,6.66,0,0,0,3.88-3.21,1.79,1.79,0,0,1,.21-.6,12.27,12.27,0,0,0,1.62-5.32c0-2.61-2.58-4.77-5.65-4.8h-.12l-13.89.11a6.09,6.09,0,0,0-4.26,1.7l0,0a4.45,4.45,0,0,0-1.32,3.14,12.41,12.41,0,0,0,1.74,5.3,1.93,1.93,0,0,1,.22.59c.61,1.32,1.65,2.77,2.5,3,.15.05,1.07.25,5.69.29h.15c3.62,0,8.44-.07,9.26-.23Zm5.47,1a10.62,10.62,0,0,1-4.47,2.68c-1.43.4-8.91.37-10.13.36h-.15c-5.54,0-6.45-.32-6.89-.44-2.71-.79-4.35-3.92-4.94-5.23-.05-.12-.09-.24-.13-.37a15.5,15.5,0,0,1-2.1-6.9,8.18,8.18,0,0,1,2.4-5.82l.06-.06a9.86,9.86,0,0,1,6.9-2.81l14.08-.1c5.19.05,9.32,3.8,9.39,8.52a15.62,15.62,0,0,1-1.94,6.94c0,.13-.08.25-.13.37a8.87,8.87,0,0,1-2,2.85Z"/><path class="cls-2" d="M243.29,501.45h-6.44a1.89,1.89,0,1,0,0,3.78h6.44a1.89,1.89,0,1,0,0-3.78Z"/><path class="cls-2" d="M226.94,442.84v6.07a1.89,1.89,0,0,0,1.89,1.89,1.86,1.86,0,0,0,1.34-.55,1.88,1.88,0,0,0,.55-1.34v-6.07a1.89,1.89,0,0,0-3.78,0Z"/><path class="cls-2" d="M263.75,363.52a1.89,1.89,0,0,0-1.89,1.89,5.32,5.32,0,0,1-4.17,5.36,1.87,1.87,0,0,0-1.51,1.65l-1.14,11a1.9,1.9,0,0,0,1.69,2.08,1.92,1.92,0,0,0,1.53-.54,2,2,0,0,0,.54-1.15l.75-7.19,1.11-3a9,9,0,0,0,5-8.26,1.88,1.88,0,0,0-1.89-1.89Z"/><path class="cls-5" d="M360.54,301.43l-230.91,7.29L244.73,93.4l115.81,208ZM115.61,317.6l259-8.19L244.69,75.78,115.61,317.6Z"/><path class="cls-2" d="M132.84,306.72l224.54-7.08L244.76,97.35,132.84,306.72Zm229-4a1.92,1.92,0,0,1-1.28.55l-230.91,7.29a1.89,1.89,0,0,1-1.73-2.79L243.06,92.51a1.89,1.89,0,0,1,3.32,0l115.81,208a1.88,1.88,0,0,1,0,1.85,2.1,2.1,0,0,1-.31.41ZM118.81,315.61l252.6-8L244.72,79.73,118.81,315.61Zm257.09-4.86a1.89,1.89,0,0,1-1.28.56l-258.95,8.18a1.9,1.9,0,0,1-1.67-.89,1.88,1.88,0,0,1-.06-1.89L243,74.89a1.89,1.89,0,0,1,3.32,0L376.22,308.5a1.88,1.88,0,0,1,0,1.85,1.72,1.72,0,0,1-.31.4Z"/><path class="cls-6" d="M285.64,294.45c-2.74-.05-5.73-.14-8.56-.3-6.81-.36-13.27,4.29-12.51,12.64l1.7,1,29,4.81c1.05,0,.68-6.55.69-7.59,0,0,.06-.5.06-.53.06-5.74-4.56-10-10.37-10.08Z"/><path class="cls-2" d="M266.41,306l.17,0L294,310.53a45.29,45.29,0,0,0,0-4.55c0-.43,0-.76,0-.94,0,0,0-.23,0-.45l0-.16c0-4.52-3.64-8-8.51-8.09-3.2-.06-6.1-.16-8.63-.3a10.45,10.45,0,0,0-8.12,2.95,9.19,9.19,0,0,0-2.45,7Zm30.37,8a2.08,2.08,0,0,1-1.46.59,2.22,2.22,0,0,1-.37,0l-29-4.8a22.67,22.67,0,0,1-3.28-2.75,13.08,13.08,0,0,1,3.45-10.59,14.16,14.16,0,0,1,11.05-4.1c2.49.13,5.34.23,8.5.29,7,.14,12.29,5.29,12.22,12,0,0,0,.25,0,.47l0,.14c0,.17,0,.41,0,.72.09,3.71.17,6.81-1.08,8.07Z"/><path class="cls-6" d="M272.45,304.12l-.2,13.8a3.63,3.63,0,0,0,3.88,3.45,3.83,3.83,0,0,0,4-3.5l.19-13.8-7.86.05Z"/><path class="cls-2" d="M280.44,321.49a6.16,6.16,0,0,1-8.59.05,5.05,5.05,0,0,1-1.49-3.64l.19-13.81a1.9,1.9,0,0,1,3.79.06l-.2,13.8a1.27,1.27,0,0,0,.4.93,2.24,2.24,0,0,0,1.58.6,2,2,0,0,0,2.11-1.63l.19-13.8a1.9,1.9,0,1,1,3.79.05l-.2,13.8a5.15,5.15,0,0,1-1.57,3.59Z"/><path class="cls-6" d="M264.57,304.21,264.46,316a3.63,3.63,0,0,0,3.9,3.42,3.81,3.81,0,0,0,4-3.5l.11-11.83-7.87.08Z"/><path class="cls-2" d="M272.66,319.59a6.16,6.16,0,0,1-4.28,1.77,6,6,0,0,1-4.3-1.71,5,5,0,0,1-1.51-3.63l.11-11.83a1.9,1.9,0,0,1,3.79,0l-.12,11.82a1.31,1.31,0,0,0,.41.93,2.19,2.19,0,0,0,1.58.59,2,2,0,0,0,2.1-1.63l.11-11.82a1.89,1.89,0,1,1,3.78,0L274.22,316a5.2,5.2,0,0,1-1.56,3.61Z"/><path class="cls-6" d="M280.33,304.88l-.11,11.25c0,1.83,1.73,3.29,3.9,3.27h0c2.17,0,3.95-1.52,4-3.34l.1-11.26-7.86.08Z"/><path class="cls-2" d="M288.48,319.52a6.24,6.24,0,0,1-4.34,1.77,6.12,6.12,0,0,1-4.36-1.71,4.76,4.76,0,0,1-1.45-3.46l.11-11.26a1.89,1.89,0,0,1,3.78,0l-.11,11.25a1,1,0,0,0,.35.76,2.34,2.34,0,0,0,1.64.6c1.23,0,2.09-.78,2.1-1.47l.11-11.26a1.89,1.89,0,0,1,3.78,0L290,316.08a5,5,0,0,1-1.5,3.44Z"/><path class="cls-6" d="M288.12,304l-.1,9.72a3.64,3.64,0,0,0,3.9,3.43,3.82,3.82,0,0,0,4-3.51l.09-9.71-7.86.07Z"/><path class="cls-2" d="M296.22,317.25a6.16,6.16,0,0,1-4.28,1.77,6,6,0,0,1-4.3-1.71,5,5,0,0,1-1.51-3.63l.1-9.72a1.89,1.89,0,0,1,3.78,0l-.1,9.72a1.3,1.3,0,0,0,.41.92,2.19,2.19,0,0,0,1.58.59,2,2,0,0,0,2.1-1.63l.09-9.71a1.89,1.89,0,1,1,3.78,0l-.09,9.72a5.24,5.24,0,0,1-1.56,3.61Z"/><path class="cls-6" d="M212.52,294.78c-2.83.21-5.82.36-8.57.47-5.81.22-10.51,4.53-10.56,10.28,0,0,0,.5,0,.53,0,1,.95,8.47,2,8.48l28.47-2.65.89-4.72c.92-8.36-5.45-12.89-12.27-12.39Z"/><path class="cls-2" d="M225.23,313.23a1.86,1.86,0,0,1-1.16.54l-28.47,2.66h-.19c-2.07,0-2.69-2.46-3.23-5.41a40.15,40.15,0,0,1-.64-4.88V306c0-.21,0-.43,0-.46.06-6.66,5.39-11.89,12.38-12.16,3.15-.13,6-.28,8.51-.46a13.73,13.73,0,0,1,11,3.91,12.57,12.57,0,0,1,3.28,10.57,1.87,1.87,0,0,1-2.08,1.67,1.89,1.89,0,0,1-1.68-2.08,9,9,0,0,0-2.24-7.54,10,10,0,0,0-8-2.76c-2.54.18-5.45.34-8.64.46-4.91.2-8.66,3.77-8.74,8.33v.16c0,.21,0,.42,0,.45a39.15,39.15,0,0,0,1.07,6.49L223.72,310a1.89,1.89,0,0,1,1.51,3.23Z"/><path class="cls-6" d="M209.09,304.76l-.07,13.8a3.64,3.64,0,0,0,3.92,3.42,3.81,3.81,0,0,0,3.95-3.52l.07-13.8-7.87.1Z"/><path class="cls-2" d="M217.22,322.11a6.13,6.13,0,0,1-4.26,1.76,6,6,0,0,1-4.3-1.68,5.08,5.08,0,0,1-1.53-3.64l.07-13.79a1.89,1.89,0,1,1,3.78,0l-.07,13.81a1.3,1.3,0,0,0,.41.92,2.23,2.23,0,0,0,1.59.59,2,2,0,0,0,2.09-1.64l.07-13.8a1.89,1.89,0,0,1,3.78,0l-.07,13.8a5.21,5.21,0,0,1-1.56,3.64Z"/><path class="cls-6" d="M217,304.67l-.12,11.83a3.64,3.64,0,0,0,3.9,3.43,3.82,3.82,0,0,0,4-3.51l.11-11.82-7.86.07Z"/><path class="cls-2" d="M225.05,320.06a6.2,6.2,0,0,1-4.28,1.76,6.08,6.08,0,0,1-4.3-1.7,5,5,0,0,1-1.51-3.64l.11-11.82a1.9,1.9,0,0,1,1.91-1.88,1.88,1.88,0,0,1,1.87,1.91l-.11,11.83a1.3,1.3,0,0,0,.41.92,2.2,2.2,0,0,0,1.58.6,2,2,0,0,0,2.1-1.64l.11-11.82a1.89,1.89,0,0,1,3.78,0l-.11,11.83a5.21,5.21,0,0,1-1.56,3.62Z"/><path class="cls-6" d="M201.19,305.65l-.1,11.25c0,1.83,1.72,3.29,3.9,3.27s3.95-1.52,4-3.34l.1-11.26-7.87.08Z"/><path class="cls-2" d="M209.34,320.29a6.24,6.24,0,0,1-4.34,1.77,6.11,6.11,0,0,1-4.35-1.71,4.83,4.83,0,0,1-1.46-3.46l.11-11.26a1.9,1.9,0,0,1,3.79,0L203,316.92a1,1,0,0,0,.34.76,2.36,2.36,0,0,0,1.65.6c1.22,0,2.09-.79,2.09-1.47l.11-11.26a1.9,1.9,0,0,1,1.91-1.87,1.88,1.88,0,0,1,1.87,1.91l-.11,11.26a5,5,0,0,1-1.5,3.44Z"/><path class="cls-6" d="M193.42,304.9l-.09,9.72a3.64,3.64,0,0,0,3.9,3.43,3.82,3.82,0,0,0,4-3.51l.09-9.72-7.87.08Z"/><path class="cls-2" d="M201.53,318.17a6.16,6.16,0,0,1-4.28,1.77,6.06,6.06,0,0,1-4.3-1.7,5,5,0,0,1-1.51-3.64l.09-9.72a1.89,1.89,0,0,1,3.78,0l-.09,9.71a1.31,1.31,0,0,0,.41.93,2.19,2.19,0,0,0,1.58.59,2,2,0,0,0,2.1-1.63l.09-9.71a1.89,1.89,0,1,1,3.78,0l-.09,9.72a5.16,5.16,0,0,1-1.56,3.61Z"/><path class="cls-2" d="M63.06,175.75a1.89,1.89,0,0,0-1.12,2.43l51.89,140.08a1.88,1.88,0,0,0,2.43,1.11,1.76,1.76,0,0,0,.68-.43,1.9,1.9,0,0,0,.44-2L65.49,176.86a1.88,1.88,0,0,0-2.43-1.11Z"/><path class="cls-2" d="M410.71,160.88a1.88,1.88,0,0,0-2.28,1.39L372.73,309a1.88,1.88,0,0,0,1.39,2.28,1.87,1.87,0,0,0,2.28-1.39l35.7-146.7a1.88,1.88,0,0,0-1.39-2.28Z"/><path class="cls-1" d="M154.31,340.57h0a9.08,9.08,0,0,1-8.85-9.33l.66-24.77a9.09,9.09,0,0,1,9.34-8.84h0a9.09,9.09,0,0,1,8.85,9.33l-.67,24.76a9.08,9.08,0,0,1-9.33,8.85Z"/><path class="cls-2" d="M150.12,301.63a7.14,7.14,0,0,0-2.11,4.89l-.67,24.76a7.22,7.22,0,0,0,7,7.4h0a7.19,7.19,0,0,0,7.39-7l.67-24.76a7.2,7.2,0,0,0-12.3-5.28Zm12.2,37.61-.21.22a11,11,0,0,1-7.86,3h0a11,11,0,0,1-10.68-11.28l.66-24.76a11,11,0,0,1,22,.59l-.67,24.77a10.84,10.84,0,0,1-3.21,7.46Z"/><path class="cls-1" d="M334.29,335.12h0a9.11,9.11,0,0,1-8.85-9.34l.67-24.76a9.1,9.1,0,0,1,9.34-8.85h0a9.11,9.11,0,0,1,8.85,9.34l-.67,24.76a9.1,9.1,0,0,1-9.34,8.85Z"/><path class="cls-2" d="M330.11,296.17a7.17,7.17,0,0,0-2.11,4.9l-.67,24.76a7.22,7.22,0,0,0,7,7.4h0a7.22,7.22,0,0,0,7.4-7l.67-24.76a7.21,7.21,0,0,0-12.3-5.29Zm12.19,37.62a11,11,0,0,1-18.75-8.06l.67-24.76a11,11,0,0,1,22,.59l-.67,24.76a11,11,0,0,1-3.22,7.47Z"/><path class="cls-2" d="M332.85,316.76l-.42,9.66a1.89,1.89,0,0,0,3.78.16l.42-9.65a1.89,1.89,0,0,0-3.78-.17Z"/><path class="cls-2" d="M154.38,305.35a1.4,1.4,0,0,0-.35.1,1.74,1.74,0,0,0-.33.18,1.61,1.61,0,0,0-.52.52,1.74,1.74,0,0,0-.18.33,1.4,1.4,0,0,0-.1.35,1.5,1.5,0,0,0,0,.37,1.88,1.88,0,0,0,1.89,1.89,1.55,1.55,0,0,0,.37,0,1.42,1.42,0,0,0,.35-.11,1.29,1.29,0,0,0,.33-.17,2.15,2.15,0,0,0,.28-.23,2.17,2.17,0,0,0,.24-.29,1.29,1.29,0,0,0,.17-.33,1.42,1.42,0,0,0,.11-.35,1.55,1.55,0,0,0,0-.37,1.88,1.88,0,0,0-1.89-1.89,1.55,1.55,0,0,0-.37,0Z"/><path class="cls-2" d="M152.86,314.75v7.55a1.88,1.88,0,0,0,1.89,1.89,1.92,1.92,0,0,0,1.34-.55,1.88,1.88,0,0,0,.55-1.34v-7.55a1.89,1.89,0,0,0-3.78,0Z"/><path class="cls-2" d="M334.74,307.41a1.89,1.89,0,0,0-1.58.84,2.55,2.55,0,0,0-.17.33,2,2,0,0,0-.11.35,2.21,2.21,0,0,0,0,.37c0,.12,0,.24,0,.37a3.58,3.58,0,0,0,.11.35,2.68,2.68,0,0,0,.18.33,1.49,1.49,0,0,0,.23.28,1.92,1.92,0,0,0,1.34.56,1.61,1.61,0,0,0,.37,0,1.42,1.42,0,0,0,.35-.11,2.06,2.06,0,0,0,.33-.17,2.09,2.09,0,0,0,.28-.24,1.91,1.91,0,0,0,.56-1.33,1.88,1.88,0,0,0-.56-1.34,1.9,1.9,0,0,0-1.33-.55Z"/><ellipse class="cls-7" cx="239.53" cy="226.27" rx="5.13" ry="6.44"/><ellipse class="cls-7" cx="251.63" cy="226.27" rx="5.13" ry="6.44"/><path class="cls-8" d="M246.37,226.27c0,3.71,2.39,6.72,5.35,6.72s5.35-3,5.35-6.72-2.4-6.72-5.35-6.72S246.37,222.56,246.37,226.27Zm.19,0c0-3.48,2.25-6.31,5-6.31s5,2.83,5,6.31-2.25,6.31-5,6.31S246.56,229.76,246.56,226.27Z"/><path class="cls-8" d="M239.77,223.62a2.71,2.71,0,1,0,2.13,2.65A2.44,2.44,0,0,0,239.77,223.62Zm-.67,2.81a.95.95,0,1,1,.74-.92A.85.85,0,0,1,239.1,226.43Z"/><path class="cls-8" d="M251.36,223.62a2.71,2.71,0,1,0,2.13,2.65A2.44,2.44,0,0,0,251.36,223.62Zm-.67,2.81a.95.95,0,1,1,.74-.92A.85.85,0,0,1,250.69,226.43Z"/><path class="cls-8" d="M239.41,219.55c-3,0-5.35,3-5.35,6.72s2.39,6.72,5.35,6.72,5.35-3,5.35-6.72S242.36,219.55,239.41,219.55Zm.13,13c-2.78,0-5-2.82-5-6.31s2.25-6.31,5-6.31,5,2.83,5,6.31S242.31,232.58,239.54,232.58Z"/><path class="cls-8" d="M244.89,232.05a.86.86,0,0,1,.48-.19.74.74,0,0,1,.48.15,1,1,0,0,1,.25.29,1.4,1.4,0,0,1,.14.27,3,3,0,0,1,.11.42.77.77,0,0,1,0,.15s-.13-.18-.35-.43a1.3,1.3,0,0,0-.41-.33.33.33,0,0,0-.19,0,.75.75,0,0,0-.22.11,3.27,3.27,0,0,0-.44.47c-.13.17-.25.34-.34.48s-.31.46-.31.46a2.35,2.35,0,0,1,.07-.57,2.71,2.71,0,0,1,.21-.6A1.81,1.81,0,0,1,244.89,232.05Z"/><path class="cls-8" d="M255.31,236.12c0-.37-.89-1.88-1.39-1.59a15.58,15.58,0,0,1-16.71,0c-.5-.29-1.41,1.22-1.39,1.59,0,.7,3.89,6.54,9.74,6.54S255.28,236.82,255.31,236.12Z"/><path class="cls-7" d="M245.56,239.05c4.09,0,7.57-1.51,8.95-3.64a1.69,1.69,0,0,0-.43-.47,16,16,0,0,1-17,0,1.69,1.69,0,0,0-.44.47C238,237.54,241.48,239.05,245.56,239.05Z"/><path class="cls-8" d="M240.9,236.51l-.07,0-.07,0a6.21,6.21,0,0,0-.39.81,4,4,0,0,0-.21.78l.07,0,.07,0a5,5,0,0,0,.36-.73A5.07,5.07,0,0,0,240.9,236.51Z"/><path class="cls-8" d="M238.56,235.67l-.07,0-.06,0a2.81,2.81,0,0,0-.37.57,2,2,0,0,0-.2.56l.07,0,.06,0a2.16,2.16,0,0,0,.34-.5A2.58,2.58,0,0,0,238.56,235.67Z"/><path class="cls-8" d="M244,237.2H244l-.08,0a5.93,5.93,0,0,0-.25.92,3.88,3.88,0,0,0-.07.84h.07l.07,0a3.92,3.92,0,0,0,.23-.82A5.11,5.11,0,0,0,244,237.2Z"/><path class="cls-8" d="M250.36,236.46l-.07,0-.07,0a5.22,5.22,0,0,0,.25.87,3.54,3.54,0,0,0,.36.73l.07,0,.07,0a3.5,3.5,0,0,0-.22-.78A4.39,4.39,0,0,0,250.36,236.46Z"/><path class="cls-8" d="M252.7,235.6l-.07,0-.07,0a3.17,3.17,0,0,0,.24.63,1.88,1.88,0,0,0,.33.5l.07,0,.07,0a2,2,0,0,0-.2-.56A2.81,2.81,0,0,0,252.7,235.6Z"/><path class="cls-8" d="M247.24,237.17l-.07,0h-.08a6.16,6.16,0,0,0,.1.94,4.65,4.65,0,0,0,.23.82l.08,0h.07a4,4,0,0,0-.08-.84A5,5,0,0,0,247.24,237.17Z"/><path class="cls-8" d="M235.85,216.88a4,4,0,0,1,1.68-.37,3.93,3.93,0,0,1,1.37.22,3.67,3.67,0,0,1,.82.4,2.06,2.06,0,0,1,.27.19l-.31-.09a4.42,4.42,0,0,0-.86-.16,4.81,4.81,0,0,0-1.25,0,5,5,0,0,0-1.43.42,4.84,4.84,0,0,0-1.26.8,5,5,0,0,0-.84.92,4.7,4.7,0,0,0-.44.75c-.1.19-.14.3-.14.29a2.54,2.54,0,0,1,0-.32,4.07,4.07,0,0,1,1-2.06A4.15,4.15,0,0,1,235.85,216.88Z"/><path class="cls-8" d="M253.69,218.48a6.22,6.22,0,0,0-1.25-.29,5,5,0,0,0-1.08,0,6.7,6.7,0,0,0-.74.1l-.28.06.24-.16a3.15,3.15,0,0,1,.71-.34,3.81,3.81,0,0,1,1.17-.22,3.85,3.85,0,0,1,1.46.22,4,4,0,0,1,1.27.75,3.71,3.71,0,0,1,1.1,1.62,2.61,2.61,0,0,1,.08.28,5.67,5.67,0,0,0-.68-.78,6.46,6.46,0,0,0-.85-.66A6.14,6.14,0,0,0,253.69,218.48Z"/></g></g></svg>