<svg xmlns="http://www.w3.org/2000/svg" viewBox="0 0 389.98 156.95"><defs><style>.cls-1{fill:#243047;}.cls-2{fill:#ff3363;}.cls-3{fill:#299fff;}.cls-4{fill:#ffb842;}.cls-5{fill:#02b6ba;}</style></defs><g id="Layer_2" data-name="Layer 2"><g id="Layer_1-2" data-name="Layer 1"><path class="cls-1" d="M100,8l34.48,113.44L12,29.59,100,8Zm36.84,116.26a.55.55,0,0,0,.06-.56L101.39,7a2.19,2.19,0,0,0-.73-1,1.26,1.26,0,0,0-1-.35L9.28,27.9c-.25.06-.34.32-.23.67a2.39,2.39,0,0,0,.78,1L135.69,124a1.21,1.21,0,0,0,.94.31.35.35,0,0,0,.16-.09ZM102.1,2.32l38.78,127.6L3,26.58,102.1,2.32Zm41.14,130.43a.53.53,0,0,0,.07-.56L103.55,1.37a2.15,2.15,0,0,0-.74-1,1.28,1.28,0,0,0-1-.36L.28,24.89c-.26.06-.35.32-.23.67a2.25,2.25,0,0,0,.78,1l141.32,106a1.18,1.18,0,0,0,.94.3.28.28,0,0,0,.15-.08Z"/><path class="cls-1" d="M52,3.74c-.61-.14-1,.25-.75.88L60.48,34A2.27,2.27,0,0,0,62,35.36a.67.67,0,0,0,.66-.12.7.7,0,0,0,.1-.75L53.51,5.15A2.31,2.31,0,0,0,52,3.74Z"/><path class="cls-1" d="M51.91,19.37a.72.72,0,0,0,.1-.75L49,8.59a2.33,2.33,0,0,0-1.47-1.42c-.62-.15-1,.24-.77.87l3.06,10a2.33,2.33,0,0,0,1.47,1.42.69.69,0,0,0,.67-.12Z"/><path class="cls-1" d="M57.63,3.18,63,21.26a2.27,2.27,0,0,0,1.46,1.42.66.66,0,0,0,.68-.12.69.69,0,0,0,.1-.73L59.87,3.75a2.27,2.27,0,0,0-1.46-1.42c-.62-.16-1,.22-.78.85Z"/><path class="cls-1" d="M52.44,26a1.19,1.19,0,0,0,.22.12l.23.09a.73.73,0,0,0,.71-.11.34.34,0,0,0,.09-.14.6.6,0,0,0,.05-.16,1.27,1.27,0,0,0,0-.2,1.55,1.55,0,0,0,0-.21,1.36,1.36,0,0,0-.09-.23,2.45,2.45,0,0,0-.28-.45c-.05-.07-.12-.14-.18-.21L53,24.28l-.23-.16L52.49,24l-.22-.08a.93.93,0,0,0-.22,0h-.19a.48.48,0,0,0-.17.05.47.47,0,0,0-.22.22.48.48,0,0,0,0,.17,1.15,1.15,0,0,0,0,.19,2.07,2.07,0,0,0,0,.22,2,2,0,0,0,.08.22l.12.23c.05.08.11.15.16.22a2,2,0,0,0,.19.22l.21.18a1.88,1.88,0,0,0,.23.16Z"/><path class="cls-1" d="M329,80.18c-.63-.2-1,.14-.88.76l6.84,28.68a2.27,2.27,0,0,0,1.4,1.47.74.74,0,0,0,.76-.09.68.68,0,0,0,.12-.66l-6.84-28.69a2.27,2.27,0,0,0-1.4-1.47Z"/><path class="cls-1" d="M335.47,87.67l2.43,9.86A2.31,2.31,0,0,0,339.32,99a.71.71,0,0,0,.74-.1.69.69,0,0,0,.12-.67l-2.44-9.86a2.29,2.29,0,0,0-1.41-1.47c-.63-.19-1,.16-.86.77Z"/><path class="cls-1" d="M325.8,94.8a.71.71,0,0,0,.73-.1.72.72,0,0,0,.12-.68l-4.54-17.85a2.27,2.27,0,0,0-1.42-1.46c-.63-.19-1,.17-.85.78l4.54,17.85a2.27,2.27,0,0,0,1.42,1.46Z"/><path class="cls-1" d="M341.23,103.76a1,1,0,0,0-.23-.12,1.09,1.09,0,0,0-.23-.09l-.21,0h-.19l-.17,0a.51.51,0,0,0-.23.23.42.42,0,0,0,0,.16.66.66,0,0,0,0,.2.78.78,0,0,0,0,.21c0,.07.05.15.08.23a2.39,2.39,0,0,0,.12.22,1.88,1.88,0,0,0,.16.23l.19.21a1.9,1.9,0,0,0,.21.19l.22.16.23.12.23.08a.78.78,0,0,0,.21,0,.66.66,0,0,0,.2,0,.43.43,0,0,0,.16,0,.42.42,0,0,0,.14-.09l.09-.13a.84.84,0,0,0,.05-.17,1.15,1.15,0,0,0,0-.41,1.19,1.19,0,0,0-.08-.22,1,1,0,0,0-.12-.23l-.16-.23-.18-.2-.22-.19-.22-.16Z"/><path class="cls-2" d="M241.6,25C201.89,18.56,58.44,66.18,41.92,91.46c0,.07,126.29-26.33,197.82-17.41,64.38,8,149.19,50.89,149.16,50.82C380.19,102.49,279,31.12,241.6,25Z"/><path class="cls-1" d="M45.05,89.87C75.24,84,176.86,65.47,239.76,73.35c57.32,7.17,129.37,41.09,147.41,49.91-2.93-5.53-11.07-14.17-22.91-24.41a488.54,488.54,0,0,0-42.69-32.51c-26.68-18.24-60.27-37.62-80-40.82-8.81-1.43-21.76-.7-38.18,2.27a457.11,457.11,0,0,0-55.83,14.48A593.38,593.38,0,0,0,84.21,66.48c-19.57,8.93-33.72,17.3-39.16,23.39Zm344.81,35.65a.78.78,0,0,1-.18.11c-.44.18-.87,0-1.57-.37-15-7.39-89.74-43.23-148.4-50.51-64.53-8-171.17,12.34-196.49,17.44-1.23.24-2,.39-2.7,0-.45-.23-.58-.58-.35-.93,5.47-8.3,26.52-19,42-26a601.52,601.52,0,0,1,63.89-24.15,459.42,459.42,0,0,1,56.25-14.41c17-3,30-3.73,39.3-2.21h0q13.8,2.25,36.44,14a448.32,448.32,0,0,1,44.72,27.15,495.76,495.76,0,0,1,42.87,32.54c9.34,8,21.45,19.48,24.29,26.72a.49.49,0,0,1-.07.55Z"/><path class="cls-3" d="M241.6,25C201.89,18.56,58.44,66.18,41.92,91.46c0,.07,126.29-26.33,197.82-17.41,64.38,8,149.19,50.89,149.16,50.82C380.19,102.49,279,31.12,241.6,25Z"/><path class="cls-1" d="M45.05,89.87C75.24,84,176.86,65.47,239.76,73.35c57.32,7.17,129.37,41.09,147.41,49.91-2.93-5.53-11.07-14.17-22.91-24.41a488.54,488.54,0,0,0-42.69-32.51c-26.68-18.24-60.27-37.62-80-40.82-8.81-1.43-21.76-.7-38.18,2.27a457.11,457.11,0,0,0-55.83,14.48A593.38,593.38,0,0,0,84.21,66.48c-19.57,8.93-33.72,17.3-39.16,23.39Zm344.81,35.65a.78.78,0,0,1-.18.11c-.44.18-.87,0-1.57-.37-15-7.39-89.74-43.23-148.4-50.51-64.53-8-171.17,12.34-196.49,17.44-1.23.24-2,.39-2.7,0-.45-.23-.58-.58-.35-.93,5.47-8.3,26.52-19,42-26a601.52,601.52,0,0,1,63.89-24.15,459.42,459.42,0,0,1,56.25-14.41c17-3,30-3.73,39.3-2.21h0q13.8,2.25,36.44,14a448.32,448.32,0,0,1,44.72,27.15,495.76,495.76,0,0,1,42.87,32.54c9.34,8,21.45,19.48,24.29,26.72a.49.49,0,0,1-.07.55Z"/><path class="cls-4" d="M41.94,91.46c1.69-.29,126.69-26.28,197.8-17.41,64,8,148.21,50.4,149.15,50.82C380.44,105,279.81,40.35,241.24,34.34,200.21,28,57.89,69.21,41.94,91.46Z"/><path class="cls-1" d="M41.94,91.46h0Zm3.35-1.64c30.57-6,131.74-24.33,194.47-16.47,57.18,7.15,129,40.92,147.27,49.84-2.94-4.85-10.71-12.32-22-21.2a486,486,0,0,0-42.23-29.23,468.85,468.85,0,0,0-45.08-24.94c-15-7.1-27.51-11.55-36.51-13s-22.48-.88-39.3,1.68a495.25,495.25,0,0,0-56.53,12.57A611.91,611.91,0,0,0,82.74,70.05c-18.58,7.49-32,14.52-37.45,19.77Zm344.55,35.69a.3.3,0,0,1-.14.1,1.27,1.27,0,0,1-1-.08l-.56-.27c-15-7.39-89.75-43.23-148.4-50.51-64.53-8-171.17,12.34-196.49,17.43l-1,.2a2.91,2.91,0,0,1-1.76-.19c-.42-.24-.53-.59-.28-.93,5.28-7.32,25.6-16.48,40.65-22.48A621,621,0,0,1,144,47.9a503.6,503.6,0,0,1,56.91-12.49c17.4-2.6,30.73-3.09,40.33-1.59s22,5.89,37.41,13.21a470.05,470.05,0,0,1,45.24,25,486.93,486.93,0,0,1,42.41,29.27c9.1,7.14,20.84,17.23,23.59,23.65a.48.48,0,0,1-.07.57Z"/><path class="cls-2" d="M42.06,91.44c4.94-1,127.41-26.15,197.68-17.39,63.38,7.89,146.32,49.44,149.09,50.79-8.8-16.48-108-70.92-148.12-76.74C197.92,41.9,58.42,73.43,42.06,91.44Z"/><path class="cls-1" d="M46.14,89.66c31.75-6.17,131.46-24.1,193.62-16.31,56.73,7.1,127.79,40.35,146.8,49.61-3.18-3.95-10.45-9.78-20.77-16.67C354.35,98.64,339.6,90,324.25,81.86c-16-8.45-31.72-15.86-45.66-21.53-15.43-6.27-28.48-10.28-37.9-11.64-41.07-5.93-169,22.89-194.55,41Zm343.65,35.82-.13.1a1.33,1.33,0,0,1-1.1-.1l-.45-.22c-15-7.39-89.75-43.24-148.4-50.51-64.53-8-171.17,12.34-196.49,17.43l-.78.16a2.9,2.9,0,0,1-1.87-.19.6.6,0,0,1-.18-1c5.44-5.94,24.83-13,39.29-17.53,18.22-5.77,40.34-11.45,61.93-16a581.7,581.7,0,0,1,57.53-9.47c17.85-1.89,31.63-2.07,41.59-.62s22.77,5.4,38.64,11.84c14,5.68,29.76,13.1,45.79,21.57,15.39,8.12,30.2,16.8,41.7,24.47,8.8,5.86,20.09,14.09,23,19.44a.53.53,0,0,1,0,.64Z"/><path class="cls-1" d="M241.62,24.53c-.55-.09-1,.06-1,.33l-1,23c0,.32.46.65,1.05.74a1.57,1.57,0,0,0,.77-.06c.2-.08.33-.21.33-.37l.86-23c0-.28-.42-.57-1-.66Z"/><path class="cls-1" d="M200.42,27.72l-4,20.33c-.06.34.41.7,1.06.79a2,2,0,0,0,.87-.07.57.57,0,0,0,.42-.39l3.85-20.33c.06-.29-.38-.6-1-.7s-1.13.07-1.19.37Z"/><path class="cls-1" d="M278.63,39.39c-.53-.08-.94.08-.91.37l2,20c0,.34.52.67,1.09.75a1.35,1.35,0,0,0,.72-.07.41.41,0,0,0,.26-.39l-2.11-19.95c0-.29-.49-.59-1-.67Z"/><path class="cls-1" d="M177.75,55.11c-21.09,3.16-38.63,7.57-38.81,7.61-.7.18-1,.63-.63,1a2.14,2.14,0,0,0,1.89.37c.18,0,17.54-4.47,38.46-7.65a1.32,1.32,0,0,0,.3-.08c.44-.15.62-.46.41-.76a1.79,1.79,0,0,0-1.62-.49Z"/><path class="cls-1" d="M185.19,54.43l-.22-.07-.24,0-.24,0h-.24l-.23,0a1.07,1.07,0,0,0-.38.13.5.5,0,0,0-.14.1.35.35,0,0,0-.1.11.38.38,0,0,0-.06.13.29.29,0,0,0,0,.13.22.22,0,0,0,0,.13.57.57,0,0,0,.08.13.74.74,0,0,0,.13.12,1.72,1.72,0,0,0,.83.31l.24,0h.24l.23,0,.21,0,.17-.08a.56.56,0,0,0,.14-.1.53.53,0,0,0,.1-.12.34.34,0,0,0,.06-.12.53.53,0,0,0-.25-.52l-.17-.1-.2-.09Z"/><path class="cls-1" d="M324.72,93a.46.46,0,0,0,.15-.16c.19-.32-.12-.77-.68-1-9.33-4-29.56-10.21-30.42-10.47-.59-.18-1.17,0-1.29.3s.26.77.85,1c.21.06,21,6.42,30.19,10.38a1.36,1.36,0,0,0,1.2,0Z"/><path class="cls-1" d="M268.51,36.76c-6.37-3.06-16.2-6.52-16.61-6.67a1.3,1.3,0,0,0-1.27.1c-.19.23.07.56.58.74.1,0,10.1,3.56,16.33,6.55a1.67,1.67,0,0,0,1.2.12l.13-.07c.27-.2.11-.55-.36-.77Z"/><path class="cls-1" d="M273,38.77l-.17-.08-.18,0-.19,0a1.21,1.21,0,0,0-.79.1.6.6,0,0,0-.08.08.2.2,0,0,0-.05.09.16.16,0,0,0,0,.1.36.36,0,0,0,0,.1.41.41,0,0,0,.07.11.44.44,0,0,0,.09.11l.13.1a2,2,0,0,0,.7.26l.19,0h.18l.17,0,.14,0a.34.34,0,0,0,.25-.33.36.36,0,0,0,0-.1l-.07-.11-.1-.11-.12-.09-.16-.09Z"/><path class="cls-1" d="M287.48,67.5a.36.36,0,0,0,0,.11.45.45,0,0,0,0,.12.56.56,0,0,0,0,.12.83.83,0,0,0,.07.13l.11.12.14.12.17.1.19.08.2.06.21,0,.2,0H289l.18,0a.47.47,0,0,0,.15-.06.4.4,0,0,0,.24-.4.31.31,0,0,0,0-.13l-.08-.13-.11-.12-.14-.11a1.79,1.79,0,0,0-.76-.28l-.2,0H288l-.18,0a.59.59,0,0,0-.26.14.28.28,0,0,0-.09.1Z"/><path class="cls-1" d="M284.32,66.72a1.56,1.56,0,0,0,1.24.07.64.64,0,0,0,.16-.11c.25-.27,0-.67-.5-.91A237,237,0,0,0,259.77,56c-.57-.18-1.16-.08-1.32.22s.17.68.74.85a236.11,236.11,0,0,1,25.13,9.69Z"/><path class="cls-5" d="M186.63,150.46,66.36,97,213.42,42.22,186.63,150.46ZM55.58,97l134.88,60L220.65,35.43,55.58,97Z"/><path class="cls-1" d="M187.7,23.82c.07-.52-.46-.77-1.17-.56L84.13,53.9a2,2,0,0,0-1.42,1.33.52.52,0,0,0,.06.36c.16.27.58.36,1.1.2l102.4-30.63a2.06,2.06,0,0,0,1.43-1.34Z"/><path class="cls-1" d="M278.38,51.83c-.17-.7-.65-1-1.07-.58l-61.16,54.23a2.18,2.18,0,0,0-.46,1.94c.11.46.36.73.63.76a.61.61,0,0,0,.45-.17l61.15-54.23a2.18,2.18,0,0,0,.46-2Z"/><path class="cls-2" d="M127,81.64h0a11,11,0,0,1-9,3.8l-15-1.9c-3-.38-3.93-2.71-2-5.19h0a11,11,0,0,1,9-3.8l15,1.9c3,.39,3.93,2.71,2,5.19Z"/><path class="cls-1" d="M101.41,81.25a2.61,2.61,0,0,0,2.23,1.36l15,1.9a8.76,8.76,0,0,0,7.16-3h0a2.8,2.8,0,0,0,.69-2.68,2.54,2.54,0,0,0-2.27-1.43l-15-1.9a8.69,8.69,0,0,0-7.15,3,2.72,2.72,0,0,0-.66,2.75Zm27.7-3.67,0,.12c.45,1.19.08,2.64-1.06,4.09h0a12.45,12.45,0,0,1-5,3.59,12,12,0,0,1-6,1l-15-1.9c-3.67-.47-4.75-3.28-2.4-6.27a13.27,13.27,0,0,1,10.91-4.59l15,1.9a4,4,0,0,1,3.41,2.06Z"/><path class="cls-2" d="M220.72,102.2h0a11,11,0,0,1,8.57,4.74l7.81,13c1.58,2.63.31,4.77-2.85,4.78h0a11,11,0,0,1-8.57-4.74l-7.81-13c-1.58-2.63-.31-4.77,2.85-4.78Z"/><path class="cls-1" d="M236.23,122.5a2.6,2.6,0,0,0-.32-2.59l-7.8-13a7.78,7.78,0,0,0-2.93-2.66,8.27,8.27,0,0,0-3.87-1.1h0c-2.49,0-3.51,1.71-2.25,3.79l7.8,13a8,8,0,0,0,2.93,2.66,8.13,8.13,0,0,0,3.87,1.09,2.72,2.72,0,0,0,2.57-1.19ZM216.2,103c.59-1.11,2-1.81,3.92-1.82a12.54,12.54,0,0,1,5.89,1.67,11.85,11.85,0,0,1,4.47,4.06l7.81,13c1.91,3.17.36,5.76-3.44,5.77A12.43,12.43,0,0,1,229,124a11.85,11.85,0,0,1-4.47-4.06l-7.81-13a4,4,0,0,1-.48-4Z"/><path class="cls-1" d="M227.7,111.78l-2.94-5.06a2.31,2.31,0,0,0-1.77-1,.75.75,0,0,0-.7.31.69.69,0,0,0,.07.67l2.95,5a2.25,2.25,0,0,0,1.77,1c.66,0,.94-.43.62-1Z"/><path class="cls-1" d="M105.28,79.38a1.34,1.34,0,0,0-.07.18,1,1,0,0,0,0,.17.46.46,0,0,0,.13.29.69.69,0,0,0,.13.11l.18.08.22,0a2.14,2.14,0,0,0,1-.19,2,2,0,0,0,.84-.63.76.76,0,0,0,.12-.19.64.64,0,0,0,.06-.18.52.52,0,0,0,0-.17.75.75,0,0,0,0-.16l-.09-.13-.14-.11a.75.75,0,0,0-.18-.08l-.21,0a2.18,2.18,0,0,0-1,.19,2.12,2.12,0,0,0-.84.63,1.18,1.18,0,0,0-.11.19Z"/><path class="cls-1" d="M110.51,80.73l4.65.47a2.31,2.31,0,0,0,1.87-.81.7.7,0,0,0,.15-.7.69.69,0,0,0-.62-.36l-4.65-.48a2.29,2.29,0,0,0-1.87.82c-.38.52-.17,1,.47,1.06Z"/><path class="cls-1" d="M229.64,116.7c.38,0,.65-.19.69-.46a.54.54,0,0,0,0-.18.61.61,0,0,0-.05-.18.93.93,0,0,0-.1-.2,1.25,1.25,0,0,0-.15-.19l-.18-.18a1.28,1.28,0,0,0-.22-.17l-.23-.15a2.26,2.26,0,0,0-1-.27,1.33,1.33,0,0,0-.21,0,1.06,1.06,0,0,0-.19.06.71.71,0,0,0-.14.1.64.64,0,0,0-.1.13.69.69,0,0,0,.1.7,2.1,2.1,0,0,0,.79.7,2.17,2.17,0,0,0,1,.26Z"/></g></g></svg>