<svg xmlns="http://www.w3.org/2000/svg" viewBox="0 0 287.32 251.92"><defs><style>.cls-1{fill:#ff3363;}.cls-2{fill:#243047;}.cls-3{fill:#299fff;}.cls-4{fill:#ffb842;}.cls-5{fill:#ffac75;}.cls-6{fill:#02b6ba;}.cls-7{fill:#fff;}.cls-8{fill:#232323;}.cls-9{fill:#0e0c10;}</style></defs><g id="Layer_2" data-name="Layer 2"><g id="Layer_1-2" data-name="Layer 1"><path class="cls-1" d="M143.63,1.11C100.48,1.1,1.1,112.72,1.11,144.41c0,.09,79-51.12,142.54-51.11s142.56,51.25,142.56,51.16c0-32.61-99.43-143.35-142.58-143.35Z"/><path class="cls-2" d="M2.35,142.34c16.47-10.16,84.94-50.16,141.3-50.15S268.51,132.24,285,142.4c-.91-7.61-6.47-19.36-15.9-33.48-9.92-14.85-23.7-31.76-38.78-47.6C203.08,32.75,166,2.21,143.63,2.21c-9.77,0-23.55,6.13-39.83,17.73C89.17,30.36,73,44.77,57,61.63,41.93,77.49,28.17,94.41,18.22,109.26c-9.4,14-15,25.65-15.87,33.08ZM287,145.25a.94.94,0,0,1-.25.18c-.57.32-.95.08-1.58-.31-13.54-8.47-84-50.71-141.51-50.72s-128,42.2-141.5,50.66c-.63.4-1,.63-1.58.32a1.12,1.12,0,0,1-.57-1C0,134.57,8.91,119.2,16.39,108c10-15,23.86-32,39-47.92,16.1-17,32.39-31.47,47.14-42C119.41,6.1,133.25,0,143.63,0h0C154,0,167.86,6.07,184.75,18c14.78,10.46,31.08,24.91,47.15,41.78,15.17,15.93,29,32.94,39,47.9,7.48,11.2,16.39,26.67,16.4,36.76a1.16,1.16,0,0,1-.33.79Z"/><path class="cls-3" d="M143.63,1.11C100.48,1.1,1.1,112.72,1.11,144.41c0,.09,79-51.12,142.54-51.11s142.56,51.25,142.56,51.16c0-32.61-99.43-143.35-142.58-143.35Z"/><path class="cls-2" d="M2.35,142.34c16.47-10.16,84.94-50.16,141.3-50.15S268.51,132.24,285,142.4c-.91-7.61-6.47-19.36-15.9-33.48-9.92-14.85-23.7-31.76-38.78-47.6C203.08,32.75,166,2.21,143.63,2.21c-9.77,0-23.55,6.13-39.83,17.73C89.17,30.36,73,44.77,57,61.63,41.93,77.49,28.17,94.41,18.22,109.26c-9.4,14-15,25.65-15.87,33.08ZM287,145.25a.94.94,0,0,1-.25.18c-.57.32-.95.08-1.58-.31-13.54-8.47-84-50.71-141.51-50.72s-128,42.2-141.5,50.66c-.63.4-1,.63-1.58.32a1.12,1.12,0,0,1-.57-1C0,134.57,8.91,119.2,16.39,108c10-15,23.86-32,39-47.92,16.1-17,32.39-31.47,47.14-42C119.41,6.1,133.25,0,143.63,0h0C154,0,167.86,6.07,184.75,18c14.78,10.46,31.08,24.91,47.15,41.78,15.17,15.93,29,32.94,39,47.9,7.48,11.2,16.39,26.67,16.4,36.76a1.16,1.16,0,0,1-.33.79Z"/><path class="cls-4" d="M1.12,144.4c.89-.49,79.35-51.11,142.53-51.1S285.34,144,286.2,144.46c-.86-28.57-99.61-123.18-142.57-123.18S2,116.59,1.12,144.4Z"/><path class="cls-2" d="M1.12,144.4Zm1.36-2.14c16.69-10.28,85-50.08,141.17-50.07s124.53,39.86,141.2,50.13c-1.21-6.61-6.84-16.58-16.12-28.48C258.75,101.05,245,86.54,230,73c-15.92-14.37-32-26.65-46.63-35.53-16.2-9.85-29.93-15.07-39.7-15.07s-23.48,5.24-39.69,15.16C89.4,46.45,73.28,58.79,57.34,73.23c-15,13.57-28.75,28.09-38.75,40.88C9.35,125.93,3.72,135.79,2.48,142.26Zm284.5,3a1,1,0,0,1-.2.16,1.1,1.1,0,0,1-1.11,0l-.51-.31c-13.55-8.47-84-50.71-141.51-50.72S15.7,136.6,2.15,145.06l-.5.31a1.13,1.13,0,0,1-1.11,0,1.11,1.11,0,0,1-.53-1c.28-8.69,9.31-22,16.84-31.62,10.08-12.89,23.93-27.5,39-41.16,16-14.53,32.27-26.95,46.93-35.93,16.79-10.28,30.53-15.49,40.84-15.49s24.07,5.18,40.85,15.4c14.71,8.94,30.94,21.31,47,35.77,15.12,13.64,29,28.26,39,41.14,7.53,9.66,16.56,23,16.83,32a1.11,1.11,0,0,1-.32.81Z"/><path class="cls-1" d="M1.17,144.37c2.58-1.58,80-51.08,142.48-51.07s140,49.59,142.5,51.13c-2.79-23.18-100-95.85-142.52-95.86S4.07,121.71,1.17,144.37Z"/><path class="cls-2" d="M2.92,142c17.42-10.69,85-49.81,140.73-49.8S267,131.39,284.43,142.06c-1.88-5.26-7.62-12.79-16.53-21.6-10.09-10-23.85-21.28-38.74-31.75A324.52,324.52,0,0,0,183,61.29c-16-7.59-29.62-11.61-39.34-11.61C102.88,49.67,11.87,117.62,2.92,142Zm284,3.22-.19.15a1.1,1.1,0,0,1-1.17,0l-.41-.25c-13.54-8.47-84-50.71-141.51-50.72S15.7,136.6,2.15,145.06l-.4.25a1.1,1.1,0,0,1-1.67-1.08c.91-7.16,10.19-17.64,17.82-25.17,10.22-10.09,24.07-21.45,39-32a327,327,0,0,1,46.45-27.71c16.55-7.89,30.09-11.89,40.26-11.89s23.74,4,40.29,11.83a326.2,326.2,0,0,1,46.51,27.61c15,10.53,28.85,21.89,39,32,7.63,7.55,16.9,18.09,17.78,25.4a1.13,1.13,0,0,1-.31.92Z"/><path class="cls-2" d="M143.63,0a1.11,1.11,0,0,0-1.11,1.1l-.06,47.38a1.09,1.09,0,0,0,1.1,1.1,1.06,1.06,0,0,0,.78-.32,1.09,1.09,0,0,0,.32-.78l.08-47.37A1.11,1.11,0,0,0,143.63,0Z"/><path class="cls-2" d="M100.84,20.72V59.87a1.11,1.11,0,1,0,2.21,0V20.72a1.11,1.11,0,1,0-2.21,0Z"/><path class="cls-2" d="M185.33,19.63a1.11,1.11,0,0,0-1.11,1.1V59.88a1.11,1.11,0,0,0,2.21,0V20.73a1.1,1.1,0,0,0-1.1-1.1Z"/><path class="cls-2" d="M7.68,146.47a1.11,1.11,0,0,0-1.06,1.15L7.78,176a1.11,1.11,0,0,0,1.15,1.06A1.1,1.1,0,0,0,10,175.93l-1.16-28.4a1.11,1.11,0,0,0-1.15-1.06Z"/><path class="cls-2" d="M3,163.07a1.14,1.14,0,0,0,.32-.82L3,152.51a1.11,1.11,0,1,0-2.21.07l.31,9.74a1.11,1.11,0,0,0,1.14,1.07,1.14,1.14,0,0,0,.75-.32Z"/><path class="cls-2" d="M13.78,144.23l.42,17.59a1.11,1.11,0,0,0,1.13,1.08,1.08,1.08,0,0,0,.75-.33,1.1,1.1,0,0,0,.33-.8L16,144.18a1.12,1.12,0,0,0-1.14-1.08,1.1,1.1,0,0,0-1.07,1.13Z"/><path class="cls-2" d="M1.6,169.91l.2.07L2,170a1.11,1.11,0,0,0,.78-.33,1.07,1.07,0,0,0,.14-.16,1.74,1.74,0,0,0,.1-.19.83.83,0,0,0,.06-.21.78.78,0,0,0,0-.22.75.75,0,0,0,0-.21.83.83,0,0,0-.06-.21,1.07,1.07,0,0,0-.24-.36L2.63,168l-.19-.1a.83.83,0,0,0-.21-.06l-.21,0a.82.82,0,0,0-.22,0,1.17,1.17,0,0,0-.2.06,1.18,1.18,0,0,0-.19.11,1.11,1.11,0,0,0-.31.3,1.14,1.14,0,0,0-.1.19.83.83,0,0,0-.06.21.76.76,0,0,0,0,.21.83.83,0,0,0,0,.22.83.83,0,0,0,.06.21,1.74,1.74,0,0,0,.1.19,1.07,1.07,0,0,0,.14.16.79.79,0,0,0,.17.14.69.69,0,0,0,.19.1Z"/><path class="cls-2" d="M278.82,146.35a1.09,1.09,0,0,0-1.15,1.06l-1.16,28.39a1.1,1.1,0,0,0,1.05,1.15,1.07,1.07,0,0,0,.83-.32,1.09,1.09,0,0,0,.32-.73l1.16-28.4a1.1,1.1,0,0,0-1.05-1.15Z"/><path class="cls-2" d="M283.51,152.39l-.31,9.73a1.1,1.1,0,0,0,1.07,1.14,1.06,1.06,0,0,0,.82-.32,1.1,1.1,0,0,0,.32-.74l.31-9.74a1.11,1.11,0,0,0-2.21-.07Z"/><path class="cls-2" d="M271.17,162.77a1.13,1.13,0,0,0,.81-.32,1.15,1.15,0,0,0,.32-.76l.42-17.58a1.11,1.11,0,0,0-2.21-.06l-.42,17.59a1.11,1.11,0,0,0,1.08,1.13Z"/><path class="cls-2" d="M284.9,167.74l-.2-.06-.22,0-.22,0-.2.07a.69.69,0,0,0-.19.1,1,1,0,0,0-.31.3,1.74,1.74,0,0,0-.1.19.83.83,0,0,0-.06.21.78.78,0,0,0,0,.22,1.52,1.52,0,0,0,0,.21.83.83,0,0,0,.06.21,1.07,1.07,0,0,0,.24.36l.16.14.2.1a1.17,1.17,0,0,0,.2.06,1.22,1.22,0,0,0,.44,0,1.17,1.17,0,0,0,.2-.06l.19-.1.17-.14a1.07,1.07,0,0,0,.24-.36.83.83,0,0,0,.06-.21.75.75,0,0,0,0-.21.78.78,0,0,0,0-.22.83.83,0,0,0-.06-.21,1.74,1.74,0,0,0-.1-.19,1.07,1.07,0,0,0-.14-.16.75.75,0,0,0-.17-.14,1.18,1.18,0,0,0-.19-.11Z"/><path class="cls-2" d="M85.8,75.9A246.14,246.14,0,0,0,56.37,95.08a1.1,1.1,0,1,0,1.36,1.74,243.7,243.7,0,0,1,29.14-19,.88.88,0,0,0,.24-.19A1.1,1.1,0,0,0,85.8,75.9Z"/><path class="cls-2" d="M92.08,73.19a.83.83,0,0,0-.21-.06.75.75,0,0,0-.21,0,.78.78,0,0,0-.22,0,.83.83,0,0,0-.21.06l-.19.1a1.11,1.11,0,0,0-.3.31,1.18,1.18,0,0,0-.11.19l-.06.21a1.49,1.49,0,0,0,0,.21,1.8,1.8,0,0,0,0,.22l.06.2a2,2,0,0,0,.11.2,1.83,1.83,0,0,0,.13.16,1.13,1.13,0,0,0,.79.33.76.76,0,0,0,.21,0,.83.83,0,0,0,.21-.06l.19-.1.17-.14a1.09,1.09,0,0,0,.13-.17.86.86,0,0,0,.11-.19l.06-.2a1.64,1.64,0,0,0,0-.22,1.12,1.12,0,0,0-.32-.78l-.17-.14-.19-.1Z"/><path class="cls-2" d="M226.86,106.93a1.35,1.35,0,0,0,.2-.27,1.11,1.11,0,0,0-.48-1.49c-9.08-4.65-29.28-10.69-30.13-11a1.11,1.11,0,0,0-.64,2.12c.21.06,20.86,6.24,29.76,10.8a1.12,1.12,0,0,0,1.29-.21Z"/><path class="cls-2" d="M173.87,17.38c-7.11-4.45-18.15-8.58-18.61-8.75a1.1,1.1,0,1,0-.77,2.07c.11,0,11.29,4.23,18.21,8.55a1.1,1.1,0,0,0,1.36-.15,1.56,1.56,0,0,0,.16-.2,1.1,1.1,0,0,0-.35-1.52Z"/><path class="cls-2" d="M178.89,20.17l-.19-.1-.21-.07-.22,0a1.11,1.11,0,0,0-.91.49l-.11.19a1.66,1.66,0,0,0-.06.21,1.17,1.17,0,0,0,0,.43,1.66,1.66,0,0,0,.06.21,1.1,1.1,0,0,0,1,.68l.22,0,.21-.06.19-.11.16-.13a1.11,1.11,0,0,0,.33-.78,1.5,1.5,0,0,0,0-.22,1.72,1.72,0,0,0-.07-.21.87.87,0,0,0-.1-.19,1,1,0,0,0-.13-.16,1,1,0,0,0-.17-.14Z"/><path class="cls-2" d="M191.71,72a1.72,1.72,0,0,0-.07.21,1.49,1.49,0,0,0,0,.21,1.64,1.64,0,0,0,0,.22,1.72,1.72,0,0,0,.07.21.87.87,0,0,0,.1.19,1.6,1.6,0,0,0,.3.3.87.87,0,0,0,.19.1.83.83,0,0,0,.21.06.78.78,0,0,0,.22,0l.21,0,.21-.07a.69.69,0,0,0,.19-.1.75.75,0,0,0,.17-.14,1.12,1.12,0,0,0,.32-.78,1.49,1.49,0,0,0,0-.21,1.66,1.66,0,0,0-.06-.21,1.18,1.18,0,0,0-.11-.19,1.09,1.09,0,0,0-.13-.17,1.14,1.14,0,0,0-.78-.32l-.22,0-.21.06-.19.1a1.11,1.11,0,0,0-.3.31.69.69,0,0,0-.1.19Z"/><path class="cls-2" d="M188.41,71.43a1.12,1.12,0,0,0,1.33-.18,1.08,1.08,0,0,0,.18-.24,1.11,1.11,0,0,0-.42-1.51,142.4,142.4,0,0,0-26.18-11.4,1.1,1.1,0,0,0-.63,2.11,141.41,141.41,0,0,1,25.72,11.22Z"/><path class="cls-5" d="M147.91,152.17l.12-11.9-9.33.09-.11,11.9-4.76.05a6.6,6.6,0,0,0-6.51,6.51l-.18,17.85,32.17-.31.18-17.85a6.31,6.31,0,0,0-6.39-6.39l-5.19,0Z"/><path class="cls-2" d="M128.26,175.56l30-.3.16-16.76a5.19,5.19,0,0,0-5.27-5.27l-5.19.05a1.11,1.11,0,0,1-.79-.33,1.06,1.06,0,0,1-.32-.79l.1-10.78-7.11.07-.11,10.82a1.1,1.1,0,0,1-1.09,1.1l-4.76,0a5.49,5.49,0,0,0-5.42,5.41l-.16,16.73Zm31.83,1.58a1.06,1.06,0,0,1-.77.32l-32.17.32a1.13,1.13,0,0,1-.79-.33,1.06,1.06,0,0,1-.32-.79l.17-17.85a7.72,7.72,0,0,1,7.61-7.6l3.67,0,.11-10.82a1.11,1.11,0,0,1,1.09-1.1l9.33-.09a1.13,1.13,0,0,1,.79.33,1.1,1.1,0,0,1,.32.79l-.1,10.78,4.06,0a7.41,7.41,0,0,1,7.5,7.5l-.17,17.85a1.09,1.09,0,0,1-.33.77Z"/><path class="cls-1" d="M159.49,158.61v-.1a6.31,6.31,0,0,0-6.39-6.39l-5.19,0-9.32.09-4.76.05-.48,0-4.95,9.74s13.43,11.46,18,14.4l2.13,0c2-2.55,7.25-11.53,10.91-17.85Z"/><path class="cls-2" d="M159.49,158.61Zm-12.71,16.77,1.24,0c1.65-2.29,5.29-8.28,10.36-17.05a5.19,5.19,0,0,0-5.27-5.08l-19.07.18-4.26,8.39c2.7,2.28,12.88,10.86,17,13.58Zm2.59,1.87a1.12,1.12,0,0,1-.77.32l-2.14,0a1.16,1.16,0,0,1-.6-.17c-4.64-3-17.63-14-18.18-14.5a1.13,1.13,0,0,1-.26-1.35l4.94-9.73a1.13,1.13,0,0,1,.9-.6h0a4.33,4.33,0,0,1,.53,0l19.27-.19a7.41,7.41,0,0,1,7.5,7.5v.1a1,1,0,0,1-.15.54c-3.93,6.8-9,15.43-11,18l-.09.11Z"/><path class="cls-3" d="M157.34,152.08h0a7.51,7.51,0,0,0-.82,0l-3.46,0a24,24,0,0,1,.16,3.09c-.08,8.71-20.09,8.91-20,.19a24,24,0,0,1,.23-3.09l-3.46,0a5.59,5.59,0,0,0-.82,0h0a12.15,12.15,0,0,0-12,12L117,177.88l7.76-.08,2.64,28.54a34.86,34.86,0,0,0,14.29,3.2,112.66,112.66,0,0,0,15.92-1.3l3.6-30.79,7.75-.07.13-13.53a11.62,11.62,0,0,0-11.77-11.77Z"/><path class="cls-2" d="M128.46,205.6a34.32,34.32,0,0,0,13.25,2.84,111.87,111.87,0,0,0,14.92-1.17l3.5-30a1.09,1.09,0,0,1,1.09-1l6.66-.07.13-12.44a10.5,10.5,0,0,0-10.66-10.65h-.14c-.08,0-.21,0-.35,0l-.33,0-2.26,0c0,.66.07,1.33.06,2a6.88,6.88,0,0,1-3.87,6c-4.18,2.36-10.82,2.35-14.82,0a6.53,6.53,0,0,1-3.53-5.78c0-.65,0-1.31.09-2l-2.21,0h-.83a11.07,11.07,0,0,0-10.9,10.9l-.12,12.41,6.62-.07a1.12,1.12,0,0,1,1.12,1l2.58,27.9ZM158.41,209a1.12,1.12,0,0,1-.6.31,115.13,115.13,0,0,1-16.1,1.32,35.62,35.62,0,0,1-14.8-3.33,1.09,1.09,0,0,1-.59-.88l-2.55-27.52L117,179a1.14,1.14,0,0,1-.8-.33,1.1,1.1,0,0,1-.32-.79l.13-13.53a13.29,13.29,0,0,1,13-13.09,4.81,4.81,0,0,1,.65,0H130l3.46,0a1.11,1.11,0,0,1,.84.37,1.15,1.15,0,0,1,.27.88,22.78,22.78,0,0,0-.22,2.95,4.33,4.33,0,0,0,2.44,3.86c3.34,2,9.11,2,12.61,0a4.67,4.67,0,0,0,2.75-4.06,22.53,22.53,0,0,0-.16-2.95,1.09,1.09,0,0,1,.27-.86,1.11,1.11,0,0,1,.82-.37l3.46,0h.23a3.52,3.52,0,0,1,.65,0,12.72,12.72,0,0,1,12.83,12.88l-.14,13.53a1.1,1.1,0,0,1-1.09,1.09l-6.78.07-3.49,29.81a1.05,1.05,0,0,1-.31.66Z"/><path class="cls-2" d="M162.75,163a1.1,1.1,0,0,0-1.22,1l-5,44.22a1.1,1.1,0,0,0,1.88.9,1.05,1.05,0,0,0,.31-.66l5-44.21a1.1,1.1,0,0,0-1-1.22Z"/><path class="cls-2" d="M123.54,163.42a1.09,1.09,0,0,0-1,1.19l3.78,41.94a1.1,1.1,0,0,0,1.88.68,1.11,1.11,0,0,0,.32-.88l-3.78-41.93a1.1,1.1,0,0,0-1.2-1Z"/><path class="cls-5" d="M158.71,128.76c-.09,9.33-7.06,17-15.55,17.06s-15.3-7.43-15.21-16.77,7-17,15.54-17.06,15.31,7.42,15.22,16.77Z"/><path class="cls-2" d="M133.89,117.27a16.94,16.94,0,0,0-4.84,11.8,16.33,16.33,0,0,0,4.59,11.67,13.23,13.23,0,0,0,9.51,4c7.88-.07,14.37-7.24,14.45-16h0A16.33,16.33,0,0,0,153,117.07a13.17,13.17,0,0,0-9.51-4,13.74,13.74,0,0,0-9.61,4.17Zm20.43,24.82a16,16,0,0,1-11.15,4.83,15.4,15.4,0,0,1-11.09-4.62A18.52,18.52,0,0,1,126.84,129c.1-9.92,7.56-18.06,16.64-18.15a15.4,15.4,0,0,1,11.09,4.62,18.51,18.51,0,0,1,5.24,13.26,19.06,19.06,0,0,1-5.49,13.32Z"/><path class="cls-1" d="M143,111.06c-11.57.11-17.88,10.87-18,19.74,0,2.13,1.16,3.91,1.78,5.77.67,2,7.25,1.75,7.27-.39l.07-7.25a5.84,5.84,0,0,1,5.56-6l7.27-.07a5.58,5.58,0,0,1,5.44,5.85l-.07,7.25c0,2.15,6.35,3.25,7.06,1.23.66-1.87,1.76-4.52,1.78-6.65.09-8.87-6.62-19.63-18.19-19.52Z"/><path class="cls-2" d="M135.2,123.81a6.54,6.54,0,0,1,4.54-2l7.27-.07a6.31,6.31,0,0,1,4.52,1.87,7.1,7.1,0,0,1,2,5.1L153.5,136c0,.19.79.81,2.32,1.08s2.49-.06,2.59-.23l.32-.88a18.38,18.38,0,0,0,1.39-5.41,19.8,19.8,0,0,0-5.64-13.72,15.63,15.63,0,0,0-11.43-4.69h0c-11.51.11-16.8,11-16.87,18.65a9.16,9.16,0,0,0,1,3.64c.24.57.49,1.16.7,1.77.07.17.85.59,2.3.61a4.13,4.13,0,0,0,2.81-.69l.07-7.22a7.35,7.35,0,0,1,2.12-5.11ZM160,138.44c-1,1-2.95,1.1-4.52.82-2.55-.44-4.18-1.73-4.16-3.27l.07-7.25a4.88,4.88,0,0,0-1.39-3.51A4.08,4.08,0,0,0,147,124l-7.27.07a4.76,4.76,0,0,0-4.47,4.87l-.07,7.25c0,1.38-1.29,2.4-3.43,2.74s-5.3,0-6-2c-.17-.52-.4-1-.63-1.59a11,11,0,0,1-1.2-4.54A23,23,0,0,1,128.88,117,17.88,17.88,0,0,1,143,110h0a17.82,17.82,0,0,1,13,5.34,22.05,22.05,0,0,1,6.29,15.3,20,20,0,0,1-1.52,6.15c-.11.3-.22.59-.31.86a2.27,2.27,0,0,1-.53.84Z"/><path class="cls-3" d="M143.26,105.51c-17,.17-22.5,10.46-22.62,22.63a13.73,13.73,0,0,0,4,9.69c2,2.08,5.1,2,5.13-1l.1-9.94a8.28,8.28,0,0,1,8.18-8.18l10.69-.11a7.91,7.91,0,0,1,8,8l-.09,9.94c0,2.95,3.87,3.58,5.11.88.08-.18,4.25-5.1,4.3-10.44.12-12.16-5.82-21.68-22.85-21.52Z"/><path class="cls-2" d="M131.55,120.39a9.37,9.37,0,0,1,6.52-2.76l10.69-.1a9,9,0,0,1,9.14,9.13l-.1,10a1.33,1.33,0,0,0,1.07,1.43,1.71,1.71,0,0,0,1.94-1,1.62,1.62,0,0,1,.26-.4c2.51-3.33,3.91-6.74,3.93-9.59.07-6.53-1.65-11.59-5.08-15-3.64-3.64-9.24-5.45-16.65-5.38h0c-14.15.14-21.39,7.38-21.53,21.53a12.74,12.74,0,0,0,3.68,8.87l0,0a2.78,2.78,0,0,0,2.66,1c.38-.15.57-.56.58-1.21l.09-9.94a9.35,9.35,0,0,1,2.76-6.52Zm31.26,17.54s0,0,0,0v0Zm-.84,1.21a3.84,3.84,0,0,1-3.58,1.06,3.57,3.57,0,0,1-2.8-3.62l.1-9.94a6.81,6.81,0,0,0-6.91-6.9l-10.69.1a7.19,7.19,0,0,0-7.08,7.09l-.1,9.94a3.31,3.31,0,0,1-2,3.24,4.87,4.87,0,0,1-5.06-1.5h0a14.82,14.82,0,0,1-4.34-10.47c.07-7,1.83-12.53,5.24-16.52,4-4.7,10.23-7.12,18.48-7.2h0c8-.08,14.15,2,18.23,6,3.87,3.88,5.8,9.46,5.73,16.61,0,3.37-1.54,7.14-4.37,10.9l-.07.09a4.09,4.09,0,0,1-.8,1.11Z"/><path class="cls-2" d="M130.49,114a1.11,1.11,0,0,0,1.93,1.08,5.64,5.64,0,0,1,4.86-2.52,1.12,1.12,0,0,0,.77-.32,1.15,1.15,0,0,0,.32-.8,1.11,1.11,0,0,0-1.12-1.09,7.84,7.84,0,0,0-6.76,3.65Z"/><path class="cls-2" d="M148.8,110.24a1.09,1.09,0,0,0-1.09,1.11,1.11,1.11,0,0,0,1.11,1.1,5.33,5.33,0,0,1,4.77,2.39,1.1,1.1,0,0,0,1.49.44.83.83,0,0,0,.26-.19,1.09,1.09,0,0,0,.19-1.3,7.51,7.51,0,0,0-6.73-3.55Z"/><path class="cls-2" d="M124.41,126.3l-.22,3.77a1.11,1.11,0,0,0,1,1.17,1.13,1.13,0,0,0,.85-.32,1.17,1.17,0,0,0,.32-.72l.22-3.77a1.11,1.11,0,0,0-2.21-.13Z"/><path class="cls-2" d="M161.2,124.82a1.11,1.11,0,0,0-1.12,1.09l0,3.2a1.1,1.1,0,0,0,1.09,1.11,1.15,1.15,0,0,0,.8-.32,1.12,1.12,0,0,0,.32-.77l0-3.2a1.09,1.09,0,0,0-1.09-1.11Z"/><path class="cls-2" d="M141.5,196.14l-.67,8.21a1.1,1.1,0,0,0,1,1.19,1.11,1.11,0,0,0,1.19-1l.67-8.2a1.12,1.12,0,0,0-1-1.2,1.1,1.1,0,0,0-1.19,1Z"/><path class="cls-2" d="M141.27,183.18l.22,7.76a1.12,1.12,0,0,0,1.14,1.08,1.08,1.08,0,0,0,.75-.33,1.06,1.06,0,0,0,.32-.81l-.22-7.76a1.12,1.12,0,0,0-1.14-1.08,1.11,1.11,0,0,0-1.07,1.14Z"/><path class="cls-2" d="M142.41,161.64a1.11,1.11,0,0,0-1.14,1.07l-.44,14.19A1.11,1.11,0,0,0,141.9,178a1.09,1.09,0,0,0,.81-.32A1.13,1.13,0,0,0,143,177l.44-14.19a1.1,1.1,0,0,0-1.07-1.14Z"/><path class="cls-2" d="M134.52,202.66A2.78,2.78,0,0,1,132.1,200l-.15-8a1.11,1.11,0,0,0-1.13-1.08,1.09,1.09,0,0,0-1.08,1.12l.15,8a5,5,0,0,0,4.36,4.83c2.05.25,2.24.25,2.36.25a1.15,1.15,0,0,0,.79-.32,1.11,1.11,0,0,0-.78-1.89c-.06,0-.39,0-2.1-.23Z"/><path class="cls-6" d="M142.8,218.51l.93,12.3c-.51-7-.93-12.3-.93-12.3Zm-16.15-11.93.65,2.62a5.77,5.77,0,0,0-2.63,6.45,9.13,9.13,0,0,0,5,5.61l8.53,28.88c.21.73,1.88,1.2,3.73,1.09a7.53,7.53,0,0,0,1.81-.32,4.21,4.21,0,0,0,.73-.31,6.88,6.88,0,0,0,2.4-.52,1.59,1.59,0,0,0,.94-.81l8.8-28.61c1.65-1.1,3.39-2.53,3.82-4.37a5.94,5.94,0,0,0-1.94-5.9l.4-2.7-32.26-1.11Z"/><path class="cls-2" d="M144.42,231.18a1.25,1.25,0,0,1-.65.17c-.52,0-1-.21-1-.51l-1.13-12.32c0-.45.45-.83,1.09-.83s1.18.35,1.21.8h0c0,.17.34,5.44.72,12.29a.46.46,0,0,1-.25.4ZM144,250.45a1.31,1.31,0,0,1,.43-.09,5.74,5.74,0,0,0,2-.42h0a1.29,1.29,0,0,0,.76-.67l8.37-28.69a.89.89,0,0,1,.35-.43c1.38-.93,3.05-2.23,3.41-3.89a5.25,5.25,0,0,0-1.77-5.17.81.81,0,0,1-.28-.7l.22-1.7-29.18-.95.34,1.47a.78.78,0,0,1-.36.85,5.08,5.08,0,0,0-2.36,5.62,7.92,7.92,0,0,0,4.35,5,1,1,0,0,1,.54.56l8,28.88c.16.59,1.53,1,3,.89a5.92,5.92,0,0,0,1.49-.26,3.38,3.38,0,0,0,.6-.26l0,0Zm3.28-.21a8.07,8.07,0,0,1-2.51.57,4.82,4.82,0,0,1-.68.27,9,9,0,0,1-2.14.38c-2.17.13-4.15-.43-4.42-1.28l-8.92-28.57a10.22,10.22,0,0,1-5.25-6,6.38,6.38,0,0,1,2.41-7l-.56-2.1a.82.82,0,0,1,.21-.82,1.27,1.27,0,0,1,1-.31l32.7,1.18a1,1,0,0,1,1.07,1.08l-.38,2.3a6.55,6.55,0,0,1,1.77,6.31c-.52,2.09-2.47,3.65-4,4.67l-9.14,28.29a2,2,0,0,1-1.12,1Z"/><path class="cls-6" d="M142.73,217.52l-1.57,31.68c-.12.76.91,1.37,2.78,1.37a7.3,7.3,0,0,0,2.82-.53,1.59,1.59,0,0,0,.94-.81l8.93-28.57-13.9-3.14Z"/><path class="cls-2" d="M147.19,250.19a8.61,8.61,0,0,1-3.31.62c-2.08,0-3.51-.66-3.37-1.61l1.05-31.74c0-.47.56-.82,1.21-.78s1.15.44,1.12.9l-2.08,31.61h0c-.1.55.55,1.13,2.18,1.13a5.88,5.88,0,0,0,2.31-.43h0a1.28,1.28,0,0,0,.76-.66l8.51-28.65a1.24,1.24,0,0,1,1.28-.67c.59.05.95.42.82.83l-9.35,28.49a2,2,0,0,1-1.12,1Z"/><path class="cls-2" d="M146.39,238.23l-.15,0h-.16a1.3,1.3,0,0,0-.68.21l-.07.08a.2.2,0,0,0,0,.08.19.19,0,0,0,0,.08.31.31,0,0,0,0,.08l0,.07.08.07.1,0a1.28,1.28,0,0,0,.58.1h.15l.15,0,.14,0,.12-.05a.37.37,0,0,0,.23-.29c0-.11-.09-.21-.24-.29l-.13,0a.32.32,0,0,0-.14,0Z"/><path class="cls-2" d="M137.67,238.74H138l.16,0,.15,0,.13,0,.12-.06c.14-.08.21-.19.19-.3l0-.08a.27.27,0,0,0-.07-.08l-.08-.07-.12-.06-.14-.05-.15,0-.17,0h-.16a1.11,1.11,0,0,0-.67.21l-.06.08,0,.08v.08a.52.52,0,0,0,.31.29l.14,0,.15,0Z"/><path class="cls-2" d="M144.92,240.6l-.26,2.93c0,.19.3.33.7.33a1.45,1.45,0,0,0,.56-.12.32.32,0,0,0,.2-.22l.35-2.92c0-.21-.3-.38-.73-.38s-.81.17-.82.38Z"/><path class="cls-7" d="M137.7,251.46c-1.07.06-2-.22-2.19-.62l-.53-1.47c0-.09.13-.17.35-.18h0l9.32-.51c.21,0,.39,0,.4.14l.14,1.47c0,.41-.79.79-1.85.85l-5.61.32Z"/><path class="cls-2" d="M137.64,251.23l5.66-.32c.73,0,1.3-.3,1.27-.58l-.16-1.38-8.73.48.47,1.38c.1.27.75.46,1.49.42Zm7.47-.24a5,5,0,0,1-1.74.38l-5.6.32h0c-1.4.07-2.67-.28-2.88-.81l-.55-1.48c0-.11,0-.22.2-.31h0a1.68,1.68,0,0,1,.7-.16h0l9.37-.51c.58,0,1.06.13,1.08.36l.11,1.48c0,.27-.25.53-.7.73Z"/><path class="cls-4" d="M137.8,248.35a.68.68,0,0,1-.41-.08l-1.3-1c-.3-.24-.08-.54.51-.67l.4-.05,4.49-.23h0c.65,0,1.2.17,1.23.44a.22.22,0,0,1-.06.18l-.87,1.11a.53.53,0,0,1-.36.13l-3.65.19Z"/><path class="cls-2" d="M137.91,248.07l3.31-.17.81-1.06a.1.1,0,0,0,0-.07c0-.11-.24-.19-.5-.18h0l-4.44.23-.17,0a.49.49,0,0,0-.24.12.1.1,0,0,0,0,.15l1.2,1Zm4.31.19a1.82,1.82,0,0,1-.72.16l-3.63.2h0a1.81,1.81,0,0,1-1.08-.23l-1.31-1c-.24-.18-.29-.39-.14-.59a1.59,1.59,0,0,1,.94-.47,4.25,4.25,0,0,1,.65-.09l4.55-.23c1,0,1.92.28,2,.71a.4.4,0,0,1-.1.28l-.89,1.11a.55.55,0,0,1-.22.16Z"/><path class="cls-1" d="M139.53,250.47a19.07,19.07,0,0,1-2.15.06,3.28,3.28,0,0,1-1.44-.47.08.08,0,0,1,0,0,2.05,2.05,0,0,1-1-.8c-.18-.51.88-1,2.38-1.09l5-.26h0c1.45-.07,2.66.3,2.72.81a1.24,1.24,0,0,1-.57.87s0,0,0,0a3.5,3.5,0,0,1-1.67.67c-.32.05-2.37.16-3.26.21Z"/><path class="cls-2" d="M142.59,250a2.71,2.71,0,0,0,1.25-.49.17.17,0,0,1,.07-.08,1.12,1.12,0,0,0,.48-.75c0-.36-1-.62-2-.57h0l-4.91.26a4.05,4.05,0,0,0-1.45.32h0c-.27.14-.38.3-.33.46a1.83,1.83,0,0,0,.83.68l.1.07a2.15,2.15,0,0,0,1,.35c.06,0,.37,0,1.94-.06h0c1.22-.06,2.84-.15,3.11-.19Zm1.84,0a6.44,6.44,0,0,1-1.44.42c-.47.07-3,.2-3.36.22h0a22.37,22.37,0,0,1-2.32.06,4,4,0,0,1-1.88-.58l-.06,0a2.2,2.2,0,0,1-1-.89c-.11-.3.09-.6.58-.86h0a6.06,6.06,0,0,1,2.36-.53l5.05-.26c1.85-.09,3.34.38,3.41,1a1.39,1.39,0,0,1-.6,1l0,0a2,2,0,0,1-.62.4Z"/><path class="cls-7" d="M142,251.69c-1,.05-2-.21-2.06-.61l-.34-1.43c0-.09.14-.17.35-.18h0l9.09-.5c.21,0,.38.05.37.13l0,1.44c0,.4-.85.77-1.89.83l-5.48.32Z"/><path class="cls-2" d="M142,251.47l5.54-.33c.71,0,1.29-.29,1.29-.56v-1.35l-8.52.48.3,1.34c.06.27.67.45,1.39.42Zm7.29-.24a5.43,5.43,0,0,1-1.73.36l-5.48.32h0c-1.38.07-2.57-.27-2.71-.79l-.37-1.44c0-.1.06-.21.23-.3h0a1.72,1.72,0,0,1,.7-.16h0l9.15-.51c.57,0,1,.14,1,.36l-.05,1.44c0,.26-.3.52-.76.72Z"/><path class="cls-4" d="M142.44,248.66a.62.62,0,0,1-.38-.09l-1.15-1c-.27-.23,0-.52.57-.64a1.68,1.68,0,0,1,.4-.05l4.37-.23h0c.63,0,1.14.16,1.14.42a.25.25,0,0,1-.08.17l-1,1.09a.53.53,0,0,1-.36.12l-3.56.2Z"/><path class="cls-2" d="M142.58,248.38l3.23-.17.9-1a.09.09,0,0,0,0-.07c0-.1-.21-.18-.47-.17h0l-4.33.23-.16,0a.41.41,0,0,0-.24.11.09.09,0,0,0,0,.15l1.05.93Zm4.16.18a1.82,1.82,0,0,1-.72.16l-3.54.2h0a1.68,1.68,0,0,1-1-.22l-1.15-1a.37.37,0,0,1-.07-.58,1.79,1.79,0,0,1,1-.45,4.3,4.3,0,0,1,.64-.08l4.43-.23c1-.05,1.83.26,1.82.68a.45.45,0,0,1-.13.28l-1,1.08a.57.57,0,0,1-.23.15Z"/><path class="cls-1" d="M143.89,250.72c-1.73.08-2,.07-2.1.06a2.79,2.79,0,0,1-1.34-.46s0,0,0,0a1.67,1.67,0,0,1-.85-.78c-.12-.51,1-1,2.42-1.07l4.84-.25h0c1.43-.06,2.56.29,2.56.79a1.39,1.39,0,0,1-.64.85s0,0,0,0a3.77,3.77,0,0,1-1.69.65c-.31.05-2.32.16-3.18.21Z"/><path class="cls-2" d="M146.91,250.29a3,3,0,0,0,1.26-.48l.07-.08c.33-.24.56-.54.55-.73,0-.35-.86-.6-1.92-.55h0l-4.79.26a4,4,0,0,0-1.44.31h0c-.28.14-.41.3-.37.45s.34.46.72.66a.36.36,0,0,1,.09.08,2.06,2.06,0,0,0,.9.34s.36,0,1.89-.07h0c1.2-.06,2.78-.16,3-.19Zm1.78,0a5.7,5.7,0,0,1-1.45.41c-.46.08-2.88.21-3.28.23h-.05c-1.81.09-2.11.07-2.26.07a3.47,3.47,0,0,1-1.76-.57l0,0a1.81,1.81,0,0,1-.92-.87c-.08-.29.16-.59.66-.84h0a6.45,6.45,0,0,1,2.36-.52l4.92-.26c1.8-.09,3.2.37,3.19,1a1.53,1.53,0,0,1-.68.94l0,0a2.05,2.05,0,0,1-.64.39Z"/><path class="cls-2" d="M145.24,249.57l-2.17.11c-.35,0-.62.14-.6.28s.32.23.67.21l2.14-.11a1.24,1.24,0,0,0,.43-.1q.18-.08.18-.18c0-.14-.3-.23-.65-.21Z"/><path class="cls-2" d="M137.64,240.23l.26,1.21c0,.21.43.36.86.34a1.25,1.25,0,0,0,.53-.13c.13-.07.2-.17.18-.27l-.21-1.22c0-.21-.44-.37-.89-.35s-.77.2-.73.42Z"/><path class="cls-2" d="M155.6,215.36a1.19,1.19,0,0,0-1.24.87c-.17,1.89-2.42,2.31-2.67,2.35a1,1,0,0,0-.92.7l-.81,4.28c-.07.38.34.7.9.73a1.46,1.46,0,0,0,.85-.21.74.74,0,0,0,.32-.41l.59-2.72.73-1.19a4.59,4.59,0,0,0,3.3-3.55c.06-.47-.41-.85-1.05-.85Z"/><path class="cls-6" d="M210.69,176.15,75.75,180.41,143,54.58l67.68,121.57ZM67.56,185.6l151.33-4.78L143,44.28,67.56,185.6Z"/><path class="cls-2" d="M77.63,179.24l131.22-4.14L143,56.89,77.63,179.24Zm133.84-2.31a1.07,1.07,0,0,1-.74.32L75.79,181.51a1.1,1.1,0,0,1-1-1.62L142,54.06A1.1,1.1,0,0,1,144,54l67.68,121.57a1.13,1.13,0,0,1-.19,1.32Zm-142,7.5L217,179.77,143,46.59,69.43,184.43Zm150.24-2.83a1.14,1.14,0,0,1-.75.32L67.59,186.7a1.08,1.08,0,0,1-1-.52,1.11,1.11,0,0,1,0-1.1L142,43.76a1.12,1.12,0,0,1,1-.58,1.1,1.1,0,0,1,1,.57l75.89,136.53a1.09,1.09,0,0,1,0,1.08,1.08,1.08,0,0,1-.18.24Z"/><path class="cls-5" d="M166.92,172.07c-1.6,0-3.35-.08-5-.17-4-.22-7.75,2.5-7.31,7.38l1,.62,16.94,2.8c.62,0,.4-3.82.41-4.43,0,0,0-.29,0-.31a5.91,5.91,0,0,0-6.06-5.89Z"/><path class="cls-2" d="M155.68,178.79l.11,0,16,2.66a25.64,25.64,0,0,0,0-2.66c0-.25,0-.44,0-.55s0-.14,0-.27v-.09a4.8,4.8,0,0,0-5-4.72c-1.87,0-3.56-.1-5-.18a6.1,6.1,0,0,0-4.75,1.73,5.4,5.4,0,0,0-1.43,4.06Zm17.75,4.67a1.17,1.17,0,0,1-.85.35h-.22L155.42,181a1.13,1.13,0,0,1-.81-.61,1.08,1.08,0,0,1-1.1-1,7.61,7.61,0,0,1,2-6.19,8.32,8.32,0,0,1,6.46-2.4c1.45.08,3.12.14,5,.18a7,7,0,0,1,7.15,7s0,.15,0,.28v.08c0,.1,0,.24,0,.42.06,2.17.1,4-.63,4.71Z"/><path class="cls-5" d="M159.21,177.72l-.11,8.07a2.12,2.12,0,0,0,2.27,2,2.22,2.22,0,0,0,2.32-2l.12-8.07-4.6,0Z"/><path class="cls-2" d="M163.89,187.87a3.62,3.62,0,0,1-2.52,1,3.53,3.53,0,0,1-2.5-1,3,3,0,0,1-.88-2.13l.12-8.06a1.11,1.11,0,0,1,2.21,0l-.12,8.06a.76.76,0,0,0,.24.54,1.21,1.21,0,0,0,.92.35,1.15,1.15,0,0,0,1.23-.95l.12-8.06a1.1,1.1,0,1,1,2.2,0l-.11,8.06a3,3,0,0,1-.91,2.1Z"/><path class="cls-5" d="M154.61,177.77l-.07,6.91a2.13,2.13,0,0,0,2.28,2,2.23,2.23,0,0,0,2.32-2.05l.07-6.91-4.6,0Z"/><path class="cls-2" d="M159.33,186.76a3.61,3.61,0,0,1-5,0,3,3,0,0,1-.88-2.13l.07-6.91a1.09,1.09,0,0,1,1.11-1.09,1.11,1.11,0,0,1,1.1,1.11l-.07,6.91a.79.79,0,0,0,.24.55,1.26,1.26,0,0,0,.92.34,1.15,1.15,0,0,0,1.23-1l.06-6.91a1.12,1.12,0,0,1,1.12-1.1,1.11,1.11,0,0,1,1.09,1.12l-.06,6.91a3,3,0,0,1-.92,2.11Z"/><path class="cls-5" d="M163.82,178.16l-.07,6.58a2.09,2.09,0,0,0,2.28,1.91h0a2.19,2.19,0,0,0,2.32-2l.06-6.58-4.59,0Z"/><path class="cls-2" d="M168.58,186.72a3.67,3.67,0,0,1-2.54,1,3.55,3.55,0,0,1-2.54-1,2.81,2.81,0,0,1-.85-2l.06-6.58a1.11,1.11,0,0,1,1.12-1.09,1.09,1.09,0,0,1,1.09,1.11l-.06,6.58a.66.66,0,0,0,.2.45,1.33,1.33,0,0,0,1,.34c.72,0,1.22-.45,1.23-.85l.06-6.58a1.12,1.12,0,0,1,1.12-1.1,1.11,1.11,0,0,1,1.09,1.12l-.06,6.58a2.89,2.89,0,0,1-.88,2Z"/><path class="cls-5" d="M168.37,177.64l-.06,5.68a2.12,2.12,0,0,0,2.28,2,2.23,2.23,0,0,0,2.32-2l.06-5.67-4.6,0Z"/><path class="cls-2" d="M173.1,185.39a3.59,3.59,0,0,1-5,0,2.93,2.93,0,0,1-.88-2.12l0-5.68a1.11,1.11,0,0,1,1.12-1.09,1.09,1.09,0,0,1,1.09,1.11l-.05,5.68a.8.8,0,0,0,.23.54,1.35,1.35,0,0,0,.93.35,1.16,1.16,0,0,0,1.23-1l.05-5.67a1.11,1.11,0,1,1,2.21,0l0,5.67a3,3,0,0,1-.92,2.11Z"/><path class="cls-5" d="M124.19,172.26c-1.65.13-3.4.21-5,.28a6.18,6.18,0,0,0-6.17,6s0,.3,0,.31c0,.61.55,5,1.16,5l16.64-1.55.52-2.75c.54-4.89-3.18-7.54-7.17-7.25Z"/><path class="cls-2" d="M131.62,183a1,1,0,0,1-.68.32l-16.63,1.55h-.12c-1.21,0-1.57-1.44-1.89-3.16a25.22,25.22,0,0,1-.37-2.85v-.1c0-.13,0-.26,0-.27a7.25,7.25,0,0,1,7.23-7.11c1.84-.07,3.51-.16,5-.27a8.06,8.06,0,0,1,6.44,2.29,7.37,7.37,0,0,1,1.91,6.18,1.1,1.1,0,0,1-2.19-.24A5.32,5.32,0,0,0,129,175a5.86,5.86,0,0,0-4.69-1.61c-1.48.1-3.18.2-5,.27a5.08,5.08,0,0,0-5.11,4.87v.09a1.77,1.77,0,0,1,0,.26,22.46,22.46,0,0,0,.63,3.79l16-1.49a1.1,1.1,0,0,1,1.2,1,1.08,1.08,0,0,1-.32.88Z"/><path class="cls-5" d="M122.19,178.1l0,8.06a2.13,2.13,0,0,0,2.29,2,2.23,2.23,0,0,0,2.31-2.06l0-8.06-4.6.06Z"/><path class="cls-2" d="M126.94,188.23a3.58,3.58,0,0,1-2.49,1,3.5,3.5,0,0,1-2.51-1,3,3,0,0,1-.9-2.12l0-8.07a1.11,1.11,0,0,1,1.11-1.1,1.1,1.1,0,0,1,1.1,1.11l0,8.07a.76.76,0,0,0,.24.54,1.3,1.3,0,0,0,.93.34,1.14,1.14,0,0,0,1.22-1l0-8.07a1.11,1.11,0,0,1,1.11-1.1,1.1,1.1,0,0,1,1.1,1.11l0,8.07a3,3,0,0,1-.91,2.12Z"/><path class="cls-5" d="M126.79,178.05l-.07,6.9a2.13,2.13,0,0,0,2.28,2,2.23,2.23,0,0,0,2.32-2.05l.07-6.91-4.6.05Z"/><path class="cls-2" d="M131.51,187a3.61,3.61,0,0,1-5,0,2.93,2.93,0,0,1-.88-2.13l.06-6.91a1.11,1.11,0,0,1,2.21,0l-.06,6.92a.8.8,0,0,0,.23.54,1.3,1.3,0,0,0,.93.34,1.13,1.13,0,0,0,1.22-.95l.07-6.91a1.11,1.11,0,0,1,1.12-1.09,1.09,1.09,0,0,1,1.09,1.11l-.06,6.91a3,3,0,0,1-.92,2.11Z"/><path class="cls-5" d="M117.57,178.61l-.06,6.58a2.09,2.09,0,0,0,2.28,1.91,2.19,2.19,0,0,0,2.32-1.95l.06-6.58-4.6,0Z"/><path class="cls-2" d="M122.34,187.17a3.68,3.68,0,0,1-2.54,1,3.59,3.59,0,0,1-2.55-1,2.89,2.89,0,0,1-.85-2l.07-6.58a1.11,1.11,0,0,1,2.21,0l-.06,6.58a.55.55,0,0,0,.2.44,1.29,1.29,0,0,0,1,.35c.72,0,1.22-.45,1.22-.85l.07-6.58a1.11,1.11,0,0,1,1.11-1.1,1.12,1.12,0,0,1,1.1,1.12l-.07,6.58a2.92,2.92,0,0,1-.87,2Z"/><path class="cls-5" d="M113,178.18l0,5.67a2.13,2.13,0,0,0,2.28,2,2.23,2.23,0,0,0,2.32-2.05l0-5.68-4.6.05Z"/><path class="cls-2" d="M117.77,185.93a3.58,3.58,0,0,1-2.5,1,3.5,3.5,0,0,1-2.51-1,2.94,2.94,0,0,1-.89-2.13l.06-5.67a1.11,1.11,0,0,1,1.11-1.1,1.12,1.12,0,0,1,1.1,1.12l-.06,5.68a.76.76,0,0,0,.24.54,1.27,1.27,0,0,0,.93.34,1.14,1.14,0,0,0,1.22-.95l.06-5.68a1.09,1.09,0,0,1,1.11-1.09,1.11,1.11,0,0,1,1.1,1.11l-.06,5.68a3,3,0,0,1-.91,2.11Z"/><path class="cls-2" d="M36.85,102.7a1.11,1.11,0,0,0-.65,1.42L66.52,186a1.1,1.1,0,0,0,1.42.65,1,1,0,0,0,.4-.25,1.11,1.11,0,0,0,.25-1.17L38.27,103.36a1.1,1.1,0,0,0-1.42-.66Z"/><path class="cls-2" d="M240,94a1.1,1.1,0,0,0-1.33.82l-20.87,85.72a1.11,1.11,0,1,0,2.15.53l20.87-85.73A1.12,1.12,0,0,0,240,94Z"/><path class="cls-1" d="M90.17,199h0A5.32,5.32,0,0,1,85,193.57l.39-14.47a5.31,5.31,0,0,1,5.46-5.17h0A5.31,5.31,0,0,1,96,179.38l-.39,14.47A5.31,5.31,0,0,1,90.17,199Z"/><path class="cls-2" d="M87.73,176.26a4.25,4.25,0,0,0-1.24,2.87L86.1,193.6a4.22,4.22,0,0,0,4.1,4.32h0a4.22,4.22,0,0,0,4.32-4.1l.39-14.47a4.21,4.21,0,0,0-7.18-3.09Zm7.13,22-.13.12a6.39,6.39,0,0,1-4.59,1.76h0a6.4,6.4,0,0,1-6.24-6.59l.39-14.47a6.42,6.42,0,1,1,12.83.34l-.39,14.47a6.39,6.39,0,0,1-1.87,4.37Z"/><path class="cls-1" d="M195.35,195.84h0a5.32,5.32,0,0,1-5.17-5.46l.39-14.47a5.31,5.31,0,0,1,5.46-5.17h0a5.32,5.32,0,0,1,5.17,5.45l-.39,14.47a5.33,5.33,0,0,1-5.46,5.18Z"/><path class="cls-2" d="M192.91,173.08a4.16,4.16,0,0,0-1.23,2.86l-.39,14.47a4.21,4.21,0,0,0,1.15,3,4.16,4.16,0,0,0,2.94,1.31h0a4.22,4.22,0,0,0,4.33-4.09l.38-14.47a4.14,4.14,0,0,0-1.15-3,4.2,4.2,0,0,0-6-.07Zm7.13,22a6.42,6.42,0,0,1-11-4.71l.39-14.47a6.43,6.43,0,0,1,6.59-6.25,6.44,6.44,0,0,1,6.24,6.59l-.39,14.47a6.38,6.38,0,0,1-1.87,4.37Z"/><path class="cls-2" d="M194.51,185.11l-.25,5.64a1.11,1.11,0,0,0,1.06,1.15,1.1,1.1,0,0,0,1.15-1.05l.25-5.64a1.11,1.11,0,1,0-2.21-.1Z"/><path class="cls-2" d="M90.22,178.44a.83.83,0,0,0-.21.06l-.19.1a1.09,1.09,0,0,0-.41.5.66.66,0,0,0-.06.2.86.86,0,0,0,0,.22,1.08,1.08,0,0,0,.32.78,1.1,1.1,0,0,0,.78.32.82.82,0,0,0,.22,0,.66.66,0,0,0,.2-.06l.2-.1a1.07,1.07,0,0,0,.16-.14,1.07,1.07,0,0,0,.24-.36.66.66,0,0,0,.06-.2.89.89,0,0,0,0-.22,1.13,1.13,0,0,0-1.11-1.11.76.76,0,0,0-.21,0Z"/><path class="cls-2" d="M89.33,183.93v4.42a1.1,1.1,0,0,0,1.88.78,1.11,1.11,0,0,0,.33-.78v-4.42a1.11,1.11,0,0,0-2.21,0Z"/><path class="cls-2" d="M195.61,179.64a1.14,1.14,0,0,0-.92.49c0,.06-.07.12-.1.19a.83.83,0,0,0-.06.21,1.5,1.5,0,0,0,0,.22.75.75,0,0,0,0,.21,1.66,1.66,0,0,0,.06.21.93.93,0,0,0,.11.19.7.7,0,0,0,.13.17,1.14,1.14,0,0,0,.78.32l.22,0a1.17,1.17,0,0,0,.2-.06l.2-.1.16-.14a1.11,1.11,0,0,0,.33-.78,1.11,1.11,0,0,0-1.11-1.11Z"/><ellipse class="cls-7" cx="139.8" cy="131.64" rx="3.18" ry="3.99"/><ellipse class="cls-7" cx="147.29" cy="131.64" rx="3.18" ry="3.99"/><path class="cls-8" d="M144,131.64c0,2.29,1.49,4.16,3.32,4.16s3.31-1.87,3.31-4.16-1.48-4.17-3.31-4.17S144,129.34,144,131.64Zm.12,0c0-2.16,1.4-3.91,3.12-3.91s3.11,1.75,3.11,3.91-1.39,3.91-3.11,3.91S144.16,133.8,144.16,131.64Z"/><path class="cls-8" d="M140.68,130.1a1.55,1.55,0,1,0,1.32,1.54A1.45,1.45,0,0,0,140.68,130.1Zm-.42,1.63a.54.54,0,1,1,.46-.54A.51.51,0,0,1,140.26,131.73Z"/><path class="cls-8" d="M146.3,130.1a1.55,1.55,0,1,0,1.33,1.54A1.44,1.44,0,0,0,146.3,130.1Zm-.41,1.63a.54.54,0,1,1,.46-.54A.51.51,0,0,1,145.89,131.73Z"/><path class="cls-8" d="M139.73,127.47c-1.83,0-3.32,1.87-3.32,4.17s1.49,4.16,3.32,4.16,3.31-1.87,3.31-4.16S141.56,127.47,139.73,127.47Zm.08,8.08c-1.72,0-3.11-1.75-3.11-3.91s1.39-3.91,3.11-3.91,3.11,1.75,3.11,3.91S141.53,135.55,139.81,135.55Z"/><path class="cls-9" d="M136.74,127.69a2.7,2.7,0,0,1,.83-.56,2.54,2.54,0,0,1,.77-.19,2.29,2.29,0,0,1,.54,0l.18,0-.18,0a3.79,3.79,0,0,0-.48.16,3.5,3.5,0,0,0-.63.33,4.08,4.08,0,0,0-1.2,1.19,4.92,4.92,0,0,0-.33.64,3.33,3.33,0,0,0-.16.48,1.64,1.64,0,0,0,0,.18,1.3,1.3,0,0,1,0-.19,2.86,2.86,0,0,1,0-.53,2.71,2.71,0,0,1,.2-.78A2.46,2.46,0,0,1,136.74,127.69Z"/><path class="cls-9" d="M146.25,126.52a2.64,2.64,0,0,1,1-.08,2.58,2.58,0,0,1,.78.22,2.63,2.63,0,0,1,.45.27l.15.12-.18,0a4.83,4.83,0,0,0-.5-.1,4,4,0,0,0-.71,0,4.29,4.29,0,0,0-.84.13,3.53,3.53,0,0,0-.79.32,3.28,3.28,0,0,0-.6.39c-.17.13-.29.25-.38.33l-.13.14s0-.07.06-.18a2.62,2.62,0,0,1,.26-.47,2.55,2.55,0,0,1,1.44-1Z"/><path class="cls-9" d="M138.8,135.23a2.47,2.47,0,0,1,.82,1.38,2.34,2.34,0,0,1,0,.48c0,.11,0,.17,0,.17a.87.87,0,0,0,0-.16,3.72,3.72,0,0,0-.18-.42,3.2,3.2,0,0,0-.88-1.12,3.24,3.24,0,0,0-.65-.44,3.47,3.47,0,0,0-.61-.24l-.45-.1-.17,0,.17,0a2.68,2.68,0,0,1,.48,0,2.25,2.25,0,0,1,.72.12A2.19,2.19,0,0,1,138.8,135.23Z"/><path class="cls-9" d="M148.5,135.56a3.3,3.3,0,0,0-1.06,1.54l-.06.16a1.15,1.15,0,0,1,0-.17,2.34,2.34,0,0,1,0-.48,2.42,2.42,0,0,1,.24-.68,2.2,2.2,0,0,1,.57-.7,2.32,2.32,0,0,1,.79-.44,2.21,2.21,0,0,1,.72-.12,2.77,2.77,0,0,1,.48,0l.16,0-.17,0-.44.1a3,3,0,0,0-.61.24A3.24,3.24,0,0,0,148.5,135.56Z"/><path class="cls-9" d="M146.09,137.36c-.61-1.37-2.2-1.48-3.76-.45-1.71,1.12-2.32,3.2-1.64,3.63.47.3.95-.15,3.06-.58C145.61,139.59,146.62,138.57,146.09,137.36Z"/></g></g></svg>