<svg xmlns="http://www.w3.org/2000/svg" viewBox="0 0 1029.04 902.28"><defs><style>.cls-1{fill:#ff3363;}.cls-2{fill:#243047;}.cls-3{fill:#299fff;}.cls-4{fill:#ffb842;}.cls-5{fill:#ffac75;}.cls-6{fill:#02b6ba;}.cls-7{fill:#fff;}</style></defs><g id="Layer_2" data-name="Layer 2"><g id="Layer_1-2" data-name="Layer 1"><g id="Grouped_Objects" data-name="Grouped Objects"><path class="cls-1" d="M514.43,4C359.89,3.93,3.93,403.71,4,517.22c0,.31,283-183.11,510.53-183.07s510.59,183.57,510.59,183.26C1025.06,400.62,669,4,514.43,4Z"/><path class="cls-2" d="M8.4,509.81c59-36.39,304.22-179.65,506.09-179.61S961.69,473.63,1020.66,510c-3.22-27.24-23.16-69.31-56.93-119.9-35.54-53.2-84.87-113.75-138.9-170.48C727.36,117.29,594.64,7.93,514.42,7.92c-35,0-84.34,21.94-142.66,63.48-52.39,37.32-110.36,89-167.66,149.33-53.91,56.81-103.21,117.4-138.83,170.6C31.59,441.63,11.69,483.19,8.4,509.81Zm1019.48,10.4a3.9,3.9,0,0,1-.88.66c-2,1.14-3.41.29-5.66-1.12-48.52-30.33-301-181.6-506.86-181.64S56.21,489.25,7.7,519.56C5.45,521,4.09,521.82,2,520.68a4,4,0,0,1-2-3.46c0-35.23,31.91-90.3,58.69-130.3,35.86-53.55,85.46-114.51,139.67-171.63C256,154.55,314.37,102.57,367.17,65,427.69,21.85,477.23,0,514.43,0h0c37.22,0,86.77,21.73,147.26,64.54C714.63,102,773,153.75,830.56,214.17c54.34,57.05,104,118,139.75,171.55C997.1,425.83,1029,481.24,1029,517.41a4,4,0,0,1-1.16,2.8Z"/><path class="cls-3" d="M514.43,4C359.89,3.93,3.93,403.71,4,517.22c0,.31,283-183.11,510.53-183.07s510.59,183.57,510.59,183.26C1025.06,400.62,669,4,514.43,4Z"/><path class="cls-2" d="M8.4,509.81c59-36.39,304.22-179.65,506.09-179.61S961.69,473.63,1020.66,510c-3.22-27.24-23.16-69.31-56.93-119.9-35.54-53.2-84.87-113.75-138.9-170.48C727.36,117.29,594.64,7.93,514.42,7.92c-35,0-84.34,21.94-142.66,63.48-52.39,37.32-110.36,89-167.66,149.33-53.91,56.81-103.21,117.4-138.83,170.6C31.59,441.63,11.69,483.19,8.4,509.81Zm1019.48,10.4a3.9,3.9,0,0,1-.88.66c-2,1.14-3.41.29-5.66-1.12-48.52-30.33-301-181.6-506.86-181.64S56.21,489.25,7.7,519.56C5.45,521,4.09,521.82,2,520.68a4,4,0,0,1-2-3.46c0-35.23,31.91-90.3,58.69-130.3,35.86-53.55,85.46-114.51,139.67-171.63C256,154.55,314.37,102.57,367.17,65,427.69,21.85,477.23,0,514.43,0h0c37.22,0,86.77,21.73,147.26,64.54C714.63,102,773,153.75,830.56,214.17c54.34,57.05,104,118,139.75,171.55C997.1,425.83,1029,481.24,1029,517.41a4,4,0,0,1-1.16,2.8Z"/><path class="cls-4" d="M4,517.2c3.19-1.76,284.21-183.09,510.49-183.05S1022,515.7,1025.05,517.39C1022,415.09,668.29,76.23,514.42,76.21S7.2,417.58,4,517.2Z"/><path class="cls-2" d="M4,517.2H4Zm4.87-7.68c59.8-36.84,304.28-179.36,505.62-179.32s446,142.74,505.73,179.54c-4.35-23.68-24.52-59.4-57.75-102-35.72-45.8-85-97.78-138.85-146.35-57-51.45-114.75-95.45-167-127.23-58-35.32-107.21-54-142.21-54s-84.1,18.77-142.13,54.3c-52.1,31.9-109.82,76.09-166.91,127.8-53.68,48.62-103,100.62-138.79,146.43C33.47,451.05,13.32,486.34,8.87,509.52Zm1019,10.67a3.8,3.8,0,0,1-.73.58,3.94,3.94,0,0,1-4,.09c-.21-.12-.5-.29-1.81-1.12-48.52-30.32-301-181.58-506.85-181.63S56.22,489.24,7.72,519.55c-1.31.82-1.6,1-1.81,1.11A4,4,0,0,1,0,517.07c1-31.14,33.35-78.77,60.31-113.24,36.09-46.16,85.71-98.51,139.71-147.42,57.46-52.05,115.58-96.54,168.09-128.69,60.13-36.81,109.34-55.48,146.27-55.47s86.21,18.55,146.32,55.14c52.66,32,110.81,76.34,168.19,128.12,54.14,48.86,103.79,101.2,139.78,147.36,27,34.58,59.33,82.5,60.29,114.4a4,4,0,0,1-1.16,2.92Z"/><path class="cls-1" d="M4.2,517.08c9.23-5.65,286.53-183,510.29-182.93s501.38,177.63,510.36,183.13c-10-83-358.11-343.29-510.43-343.31S14.59,435.93,4.2,517.08Z"/><path class="cls-2" d="M10.45,508.55c62.41-38.3,304.43-178.39,504-178.35s442,140.37,504.2,178.6C1012,490,991.41,463,959.52,431.43c-36.16-35.83-85.45-76.2-138.78-113.69C764.15,278,707,244,655.34,219.52c-57.39-27.2-106.12-41.59-140.91-41.59-146,0-471.93,243.33-504,330.62Zm1017.2,11.52a3.88,3.88,0,0,1-.66.54,4,4,0,0,1-4.2,0l-1.46-.91c-48.51-30.33-301-181.6-506.85-181.64S56.21,489.25,7.71,519.55l-1.44.9a4,4,0,0,1-4.22-.05,4,4,0,0,1-1.77-3.83c3.28-25.65,36.52-63.19,63.84-90.16,36.59-36.12,86.21-76.81,139.73-114.56,57-40.21,114.55-74.54,166.39-99.26C429.5,184.33,478,170,514.42,170s85,14.25,144.31,42.35c52,24.66,109.61,58.85,166.56,98.89C879,349,928.62,389.68,965.09,425.8c27.32,27.07,60.54,64.81,63.69,91a3.92,3.92,0,0,1-1.13,3.27Z"/><path class="cls-2" d="M514.43,0a4,4,0,0,0-4,4l-.24,169.67a4,4,0,1,0,7.91,0L518.38,4a4,4,0,0,0-4-4Z"/><path class="cls-2" d="M361.16,74.2l0,140.22a4,4,0,0,0,7.92,0l0-140.22a4,4,0,1,0-7.91,0Z"/><path class="cls-2" d="M663.76,70.29a4,4,0,0,0-4,4l0,140.22a4,4,0,0,0,3.95,4,4,4,0,0,0,4-4l0-140.22a4,4,0,0,0-4-4Z"/><path class="cls-2" d="M27.52,524.6a4,4,0,0,0-3.79,4.12l4.15,101.71a4,4,0,0,0,6.75,2.64,3.91,3.91,0,0,0,1.16-3L31.64,528.39a4,4,0,0,0-4.12-3.79Z"/><path class="cls-2" d="M10.66,584a4,4,0,0,0,1.16-2.93l-1.11-34.87a4,4,0,1,0-7.91.25l1.11,34.88A4,4,0,0,0,10.66,584Z"/><path class="cls-2" d="M49.34,516.59l1.51,63a4,4,0,0,0,4,3.86,3.95,3.95,0,0,0,3.86-4l-1.51-63a4,4,0,1,0-7.91.19Z"/><path class="cls-2" d="M5.72,608.56a3.71,3.71,0,0,0,.74.22,3.3,3.3,0,0,0,.77.08A4,4,0,0,0,10,607.7a3.56,3.56,0,0,0,.49-.6,3,3,0,0,0,.36-.68,4,4,0,0,0,.23-.74,3.79,3.79,0,0,0,0-1.55,4,4,0,0,0-.23-.74,3.4,3.4,0,0,0-.36-.68,4.13,4.13,0,0,0-.49-.6,3.65,3.65,0,0,0-1.29-.86A3.71,3.71,0,0,0,8,601a3.94,3.94,0,0,0-.77-.08,3.3,3.3,0,0,0-.77.08,4.52,4.52,0,0,0-.74.22,3.83,3.83,0,0,0-.69.37,3.9,3.9,0,0,0-1.09,1.09,4.92,4.92,0,0,0-.37.68,4.83,4.83,0,0,0-.22.74,3.79,3.79,0,0,0,0,1.55,4.83,4.83,0,0,0,.22.74,4.92,4.92,0,0,0,.37.68,3.19,3.19,0,0,0,.5.6,3.94,3.94,0,0,0,.59.49,3.83,3.83,0,0,0,.69.37Z"/><path class="cls-2" d="M998.6,524.15a3.94,3.94,0,0,0-4.11,3.79l-4.16,101.72a4,4,0,1,0,7.91.32l4.15-101.71a4,4,0,0,0-3.79-4.12Z"/><path class="cls-2" d="M1015.41,545.78l-1.11,34.88a4,4,0,0,0,6.76,2.92,3.92,3.92,0,0,0,1.15-2.66l1.11-34.89a4,4,0,0,0-7.91-.25Z"/><path class="cls-2" d="M971.22,583a4,4,0,0,0,4-3.86l1.51-63a4,4,0,1,0-7.91-.19l-1.52,63a4,4,0,0,0,3.87,4.05Z"/><path class="cls-2" d="M1020.4,600.79a3.69,3.69,0,0,0-.74-.21,3.31,3.31,0,0,0-.77-.09,3.94,3.94,0,0,0-.77.08,3.54,3.54,0,0,0-.74.23,4.1,4.1,0,0,0-.69.36,3.9,3.9,0,0,0-1.09,1.09,3.78,3.78,0,0,0-.36.69,3.92,3.92,0,0,0-.31,1.51,4.13,4.13,0,0,0,.08.78,3.62,3.62,0,0,0,.22.73,3.78,3.78,0,0,0,.37.69,3.54,3.54,0,0,0,1.09,1.09,4.14,4.14,0,0,0,.69.37,5.34,5.34,0,0,0,.74.23,3.94,3.94,0,0,0,.77.07,3.92,3.92,0,0,0,1.51-.31,3.78,3.78,0,0,0,.69-.36,4,4,0,0,0,.6-.48,4.85,4.85,0,0,0,.49-.61,4.1,4.1,0,0,0,.36-.69,3.74,3.74,0,0,0,.23-.74,3.94,3.94,0,0,0,.08-.77,4,4,0,0,0-.08-.77,4.52,4.52,0,0,0-.22-.74,4.69,4.69,0,0,0-.86-1.28,3.54,3.54,0,0,0-.61-.49,3.73,3.73,0,0,0-.68-.38Z"/><path class="cls-2" d="M307.29,271.86a879.86,879.86,0,0,0-105.4,68.68,4,4,0,0,0,4.89,6.22,870.91,870.91,0,0,1,104.34-68,4,4,0,0,0-3.83-6.93Z"/><path class="cls-2" d="M329.78,262.14a3.65,3.65,0,0,0-.73-.23,3.43,3.43,0,0,0-.78-.07,3.36,3.36,0,0,0-.77.08,3,3,0,0,0-.74.22,3.48,3.48,0,0,0-.69.36,4,4,0,0,0-1.09,1.09,3.24,3.24,0,0,0-.36.69,3.18,3.18,0,0,0-.23.74,4.08,4.08,0,0,0-.07.77,3.43,3.43,0,0,0,.07.78,4,4,0,0,0,.23.74,3.4,3.4,0,0,0,.36.68,4.13,4.13,0,0,0,.49.6,4,4,0,0,0,2.8,1.16,3.3,3.3,0,0,0,.77-.08,3.71,3.71,0,0,0,.74-.22,3.83,3.83,0,0,0,.69-.37,3.14,3.14,0,0,0,.59-.49,3.19,3.19,0,0,0,.5-.6,4.48,4.48,0,0,0,.37-.68,4.83,4.83,0,0,0,.22-.74,4.13,4.13,0,0,0,.08-.78,4,4,0,0,0-1.16-2.8,3.81,3.81,0,0,0-1.29-.85Z"/><path class="cls-2" d="M812.5,383a3.94,3.94,0,0,0-1-6.32C779,360,706.65,338.39,703.59,337.47a4,4,0,1,0-2.26,7.59c.74.22,74.7,22.33,106.57,38.66a4,4,0,0,0,4.6-.73Z"/><path class="cls-2" d="M622.72,62.24c-25.46-15.92-65-30.72-66.65-31.34a4,4,0,1,0-2.76,7.42c.4.15,40.44,15.14,65.22,30.63a4,4,0,0,0,4.89-.55,4.92,4.92,0,0,0,.57-.71,4,4,0,0,0-1.27-5.45Z"/><path class="cls-2" d="M640.7,72.23a4.52,4.52,0,0,0-.69-.36,3.86,3.86,0,0,0-.73-.23,4.13,4.13,0,0,0-.78-.08,4,4,0,0,0-3.29,1.76,3.78,3.78,0,0,0-.36.69,3.15,3.15,0,0,0-.22.74,3.57,3.57,0,0,0,0,1.55,3.65,3.65,0,0,0,.23.73,3.75,3.75,0,0,0,.36.69,3.19,3.19,0,0,0,.5.6,3.94,3.94,0,0,0,2.79,1.16,3.44,3.44,0,0,0,.78-.08,4,4,0,0,0,.74-.23,3.7,3.7,0,0,0,.68-.36,3.56,3.56,0,0,0,.6-.49,4,4,0,0,0,1.16-2.8,3.36,3.36,0,0,0-.08-.77,4.83,4.83,0,0,0-.22-.74,4.48,4.48,0,0,0-.37-.68,3.21,3.21,0,0,0-.49-.6,3.62,3.62,0,0,0-.6-.5Z"/><path class="cls-2" d="M686.61,258a4.83,4.83,0,0,0-.22.74,3.75,3.75,0,0,0,0,1.54,3.41,3.41,0,0,0,.23.75,3.65,3.65,0,0,0,.35.68,5.68,5.68,0,0,0,.5.6,3.94,3.94,0,0,0,.59.49,4.58,4.58,0,0,0,.69.37,3.81,3.81,0,0,0,.75.22,3.3,3.3,0,0,0,.77.08,4.11,4.11,0,0,0,.77-.08,2.88,2.88,0,0,0,.74-.23,3,3,0,0,0,.68-.36,3.64,3.64,0,0,0,.61-.49,4,4,0,0,0,1.15-2.8,3.36,3.36,0,0,0-.08-.77,3.71,3.71,0,0,0-.22-.74,3.29,3.29,0,0,0-.37-.69,3.94,3.94,0,0,0-.49-.59,4,4,0,0,0-2.8-1.17,5,5,0,0,0-.77.08,4.2,4.2,0,0,0-.74.23,4.42,4.42,0,0,0-.68.36,3.69,3.69,0,0,0-1.09,1.1,3.44,3.44,0,0,0-.37.68Z"/><path class="cls-2" d="M674.81,255.82a4,4,0,0,0,4.75-.64,3.91,3.91,0,0,0,.65-.85,4,4,0,0,0-1.5-5.39,513.49,513.49,0,0,0-93.77-40.87,4,4,0,0,0-2.26,7.59,504.46,504.46,0,0,1,92.13,40.16Z"/><path class="cls-5" d="M529.75,545l.41-42.64-33.38.33-.41,42.64-17.05.16A23.66,23.66,0,0,0,456,568.84l-.61,63.93,115.21-1.12.63-63.93a22.58,22.58,0,0,0-22.88-22.88l-18.59.18Z"/><path class="cls-2" d="M459.37,628.77l107.3-1,.59-60a18.61,18.61,0,0,0-18.88-18.88l-18.59.18a3.94,3.94,0,0,1-4-4l.37-38.61-25.48.24-.37,38.76a4,4,0,0,1-3.92,3.92l-17,.17A19.69,19.69,0,0,0,460,568.88l-.58,59.89Zm114,5.67a3.94,3.94,0,0,1-2.76,1.16l-115.22,1.12a3.89,3.89,0,0,1-2.83-1.15,4,4,0,0,1-1.16-2.84l.62-63.94a27.65,27.65,0,0,1,27.24-27.24l13.16-.12.38-38.76a4,4,0,0,1,3.92-3.92l33.39-.32a3.94,3.94,0,0,1,4,4l-.37,38.6,14.55-.13a26.5,26.5,0,0,1,26.87,26.86l-.62,63.93a3.92,3.92,0,0,1-1.16,2.76Z"/><path class="cls-1" d="M571.21,568.08v-.36a22.58,22.58,0,0,0-22.88-22.88l-18.59.18-33.38.33-17.05.16c-.59,0-1.15.06-1.72.11l-17.72,34.87s48.09,41,64.65,51.6l7.64-.07c7-9.14,26-41.32,39-63.94Z"/><path class="cls-2" d="M571.21,568.08h0Zm-45.52,60,4.47,0c5.88-8.22,18.92-29.67,37.09-61.06a18.6,18.6,0,0,0-18.87-18.22l-68.29.66-15.27,30c9.66,8.18,46.11,38.9,60.87,48.62Zm9.28,6.7a4,4,0,0,1-2.76,1.16l-7.64.07a4,4,0,0,1-2.16-.62c-16.61-10.58-63.13-50.25-65.1-51.93a4,4,0,0,1-1-4.81l17.72-34.87a4,4,0,0,1,3.2-2.14h.11c.57,0,1.21-.11,1.9-.12l69-.66a26.5,26.5,0,0,1,26.86,26.86v.37a3.91,3.91,0,0,1-.54,1.94c-14.07,24.33-32.32,55.25-39.32,64.37a3.17,3.17,0,0,1-.34.39Z"/><path class="cls-3" d="M563.53,544.69h0a24.12,24.12,0,0,0-2.94,0l-12.41.12a83.33,83.33,0,0,1,.6,11.06c-.29,31.21-72,31.9-71.66.7a84.79,84.79,0,0,1,.81-11.07l-12.41.12a22.14,22.14,0,0,0-2.94,0h0a43.54,43.54,0,0,0-42.95,43l-.48,48.47,27.77-.28L456.35,739a124.93,124.93,0,0,0,51.19,11.48c28.61,0,57-4.68,57-4.68l12.89-110.26,27.76-.27.47-48.44a41.59,41.59,0,0,0-42.15-42.16Z"/><path class="cls-2" d="M460.08,736.39C466,739,485,746.54,507.54,746.54s45.5-3,53.44-4.18l12.54-107.27a4,4,0,0,1,3.89-3.49l23.88-.23.44-44.56a37.64,37.64,0,0,0-38.16-38.16,4.53,4.53,0,0,1-.52,0,9.05,9.05,0,0,0-1.25,0c-.38,0-.78,0-1.17,0l-8.1.08c.16,2.39.24,4.76.21,7.18-.08,8.77-5,16.35-13.87,21.35-14.94,8.43-38.75,8.42-53.07,0-8.24-4.86-12.73-12.22-12.64-20.7,0-2.36.13-4.69.34-7l-7.94.08-1.16,0a7.44,7.44,0,0,0-1.27,0,4.74,4.74,0,0,1-.55,0,39.61,39.61,0,0,0-39,39l-.43,44.44,23.73-.23a4,4,0,0,1,4,3.59l9.24,99.93Zm107.27,12.23a3.84,3.84,0,0,1-2.15,1.1c-.29,0-29.06,4.74-57.65,4.74a127.9,127.9,0,0,1-53-11.91,4,4,0,0,1-2.15-3.17l-9.12-98.56-24.12.24a4,4,0,0,1-4-4l.48-48.47a47.57,47.57,0,0,1,46.67-46.87,17.14,17.14,0,0,1,2.34-.05l.82,0,12.42-.12a4,4,0,0,1,4,4.49,82.36,82.36,0,0,0-.78,10.57c-.05,5.71,2.89,10.35,8.75,13.81,11.95,7,32.63,7,45.17,0,6.46-3.66,9.79-8.55,9.84-14.54a83.09,83.09,0,0,0-.57-10.55,4,4,0,0,1,3.89-4.42l12.4-.13.84,0a15.15,15.15,0,0,1,2.33,0,45.54,45.54,0,0,1,45.92,46.14l-.47,48.44a4,4,0,0,1-3.92,3.92l-24.27.24L568.49,746.27a3.94,3.94,0,0,1-1.14,2.35Z"/><path class="cls-2" d="M582.9,583.94a4,4,0,0,0-4.38,3.49l-17.9,158.35a4,4,0,0,0,3.49,4.38,4,4,0,0,0,4.38-3.49l17.89-158.36a4,4,0,0,0-3.48-4.37Z"/><path class="cls-2" d="M442.47,585.29a4,4,0,0,0-3.59,4.29l13.53,150.2a4,4,0,1,0,7.88-.71l-13.53-150.2a4,4,0,0,0-4.29-3.58Z"/><path class="cls-5" d="M568.42,461.15c-.32,33.45-25.26,60.81-55.68,61.11s-54.81-26.59-54.49-60.05,25.25-60.8,55.67-61.1,54.82,26.58,54.5,60Z"/><path class="cls-2" d="M479.53,420a60.61,60.61,0,0,0-17.33,42.24c-.15,16,5.84,31.21,16.45,41.81a47.31,47.31,0,0,0,34.06,14.23c28.23-.28,51.45-25.93,51.75-57.19h0c.15-16-5.84-31.21-16.44-41.81A47.4,47.4,0,0,0,514,405.06c-13.17.13-25.26,5.79-34.43,15Zm73.18,88.9c-10.59,10.6-24.62,17.14-39.93,17.3a55.24,55.24,0,0,1-39.73-16.55c-12.1-12.1-18.94-29.41-18.76-47.49.35-35.54,27.08-64.71,59.59-65a55.18,55.18,0,0,1,39.74,16.55c12.1,12.09,18.94,29.4,18.75,47.48a68.36,68.36,0,0,1-19.66,47.74Z"/><path class="cls-1" d="M512.31,397.77c-41.45.4-64,38.93-64.35,70.7-.07,7.64,4.13,14,6.36,20.65,2.41,7.2,25.95,6.3,26-1.4l.25-26c.12-11.68,9-21.24,19.92-21.34l26-.26c10.89-.1,19.62,9.28,19.51,21l-.25,26c-.07,7.7,22.74,11.66,25.29,4.42,2.36-6.69,6.28-16.2,6.35-23.83.32-31.77-23.68-70.32-65.14-69.91Z"/><path class="cls-2" d="M484.25,443.44a23.23,23.23,0,0,1,16.23-7l26-.25a22.49,22.49,0,0,1,16.22,6.7A25.56,25.56,0,0,1,550,461.16l-.26,26c.15.7,2.84,2.89,8.33,3.86s8.91-.19,9.28-.81c.35-1,.74-2,1.14-3.14,2.2-6,4.93-13.57,5-19.4.17-17.65-7.58-36.47-20.23-49.12a56,56,0,0,0-40.92-16.8h0c-41.24.4-60.16,39.3-60.43,66.79-.05,4.49,1.75,8.64,3.64,13,.88,2,1.78,4.15,2.51,6.32.28.61,3.06,2.12,8.25,2.21,5.66.09,9.51-1.54,10.07-2.47l.26-25.89a26.12,26.12,0,0,1,7.6-18.28ZM573,495.83c-3.6,3.59-10.56,4-16.21,3-9.1-1.6-14.94-6.21-14.89-11.74l.25-26a17.56,17.56,0,0,0-5-12.58,14.63,14.63,0,0,0-10.55-4.39l-26,.26c-8.73.08-15.91,7.9-16,17.42l-.25,26c-.05,4.95-4.64,8.63-12.28,9.83-7.27,1.16-19,.18-21.47-7.2-.62-1.86-1.42-3.73-2.27-5.71-2-4.72-4.34-10.09-4.29-16.25a82.39,82.39,0,0,1,17.61-49.54c9-11.3,25.09-24.84,50.66-25.08h0a63.71,63.71,0,0,1,46.6,19.11C573,427,581.61,448,581.41,467.72c-.07,7.19-3.06,15.42-5.47,22l-1.11,3.07a7.9,7.9,0,0,1-1.88,3Z"/><path class="cls-3" d="M513.11,377.9c-61,.6-80.61,37.47-81,81-.2,21.09,13.83,34.09,14.46,34.72,7.34,7.43,18.27,7,18.37-3.5l.35-35.6a29.7,29.7,0,0,1,29.29-29.29l38.3-.37a28.34,28.34,0,0,1,28.73,28.72l-.35,35.6c-.1,10.55,13.87,12.81,18.31,3.15.3-.64,15.21-18.27,15.41-37.4.42-43.57-20.84-77.66-81.83-77.07Z"/><path class="cls-2" d="M471.16,431.18a33.42,33.42,0,0,1,23.34-9.86l38.3-.38a32.29,32.29,0,0,1,32.72,32.72l-.35,35.61a4.79,4.79,0,0,0,3.85,5.14,6.11,6.11,0,0,0,6.92-3.69,7,7,0,0,1,1-1.45c9-11.92,14-24.12,14.08-34.34.22-23.39-5.91-41.49-18.23-53.81-13-13-33.09-19.52-59.6-19.26h0c-50.69.5-76.63,26.44-77.12,77.12-.17,17.85,10.94,29.58,13.16,31.76l.15.14c3.46,3.5,7.42,4.46,9.53,3.61,1.36-.56,2.05-2,2.07-4.36l.35-35.61a33.46,33.46,0,0,1,9.87-23.34Zm112,62.84a1.47,1.47,0,0,0-.06.14l.06-.14Zm-3,4.33a13.81,13.81,0,0,1-12.84,3.79,12.76,12.76,0,0,1-10-12.95l.34-35.61a24.37,24.37,0,0,0-24.73-24.72l-38.3.37a25.75,25.75,0,0,0-25.37,25.37l-.35,35.6c-.05,5.6-2.61,9.83-7,11.62-5.47,2.22-12.76.06-18.14-5.37l0,0c-3.69-3.61-15.75-17-15.55-37.51.25-25,6.56-44.87,18.75-59.16,14.36-16.83,36.64-25.5,66.21-25.79h0c28.72-.28,50.68,7,65.28,21.57,13.88,13.88,20.79,33.89,20.54,59.48-.11,12.08-5.54,25.57-15.67,39l-.25.34a15.13,15.13,0,0,1-2.84,4Z"/><path class="cls-2" d="M467.37,408.3a4,4,0,0,0,6.92,3.86c.21-.37,5.23-8.9,17.38-9a4,4,0,1,0-.08-7.92c-16.89.17-23.92,12.56-24.22,13.08Z"/><path class="cls-2" d="M533,394.82a4,4,0,1,0,.08,7.92c12-.12,16.84,8.17,17.06,8.57a4,4,0,0,0,5.35,1.59,3.76,3.76,0,0,0,.92-.69,4,4,0,0,0,.69-4.68c-.28-.52-7.13-12.87-24.1-12.71Z"/><path class="cls-2" d="M445.6,452.35l-.8,13.51a4,4,0,0,0,7.91.46l.79-13.51a4,4,0,0,0-7.9-.46Z"/><path class="cls-2" d="M577.34,447a4,4,0,0,0-4,3.92l-.1,11.44a4,4,0,0,0,7.91.07l.11-11.43a4,4,0,0,0-3.92-4Z"/><path class="cls-2" d="M506.78,702.51l-2.38,29.4a4,4,0,0,0,6.74,3.11,3.88,3.88,0,0,0,1.14-2.47l2.39-29.39a4,4,0,0,0-7.89-.65Z"/><path class="cls-2" d="M506,656.07l.8,27.81a4,4,0,1,0,7.91-.23l-.8-27.8a4,4,0,1,0-7.91.22Z"/><path class="cls-2" d="M510.05,578.91a4,4,0,0,0-4.08,3.84l-1.59,50.84a4,4,0,0,0,7.92.25L513.88,583a4,4,0,0,0-3.83-4.09Z"/><path class="cls-2" d="M481.8,725.84a9.93,9.93,0,0,1-8.67-9.59l-.56-28.59a4,4,0,1,0-7.91.16l.56,28.57a17.86,17.86,0,0,0,15.61,17.3c7.36.9,8,.9,8.44.91a4,4,0,0,0,.06-7.92c-.22,0-1.4-.09-7.53-.84Z"/><path class="cls-6" d="M511.46,782.6l3.33,44.07c-1.82-25.19-3.33-44.07-3.33-44.07Zm-57.84-42.7,2.33,9.38c-8.05,5.23-11.82,13.81-9.43,23.1,2.21,8.59,9.23,15.81,18,20.09L495,895.91c.76,2.59,6.75,4.29,13.37,3.89a26.75,26.75,0,0,0,6.5-1.15,13.55,13.55,0,0,0,2.61-1.12,24.58,24.58,0,0,0,8.59-1.84c1.77-.8,3-1.8,3.36-2.9L561,790.32c5.9-3.94,12.15-9.05,13.7-15.67,1.87-8-.87-15.65-7-21.11l1.44-9.69-115.54-4Z"/><path class="cls-2" d="M517.26,828a4.61,4.61,0,0,1-2.33.63c-1.85,0-3.44-.77-3.54-1.85l-4.05-44.11c-.15-1.61,1.59-3,3.89-3s4.24,1.26,4.34,2.86c0,0,0,0,0,0h0c0,.61,1.23,19.47,2.59,44a1.62,1.62,0,0,1-.9,1.41Zm-1.38,69a4.56,4.56,0,0,1,1.57-.34,20.46,20.46,0,0,0,7-1.49l0,0a4.6,4.6,0,0,0,2.72-2.38L557.2,790a3,3,0,0,1,1.25-1.56c4.93-3.32,10.91-8,12.21-13.94A18.8,18.8,0,0,0,564.3,756a2.79,2.79,0,0,1-1-2.51l.79-6.08-104.53-3.39,1.22,5.27a2.71,2.71,0,0,1-1.27,3c-7.29,4.67-10.38,12.31-8.48,20.16,1.75,7.32,7.65,13.92,15.6,17.87a3.47,3.47,0,0,1,1.92,2l28.76,103.42c.58,2.11,5.48,3.52,10.9,3.19a21.65,21.65,0,0,0,5.34-.94,10.82,10.82,0,0,0,2.13-.92l.18-.09Zm11.75-.78a28.74,28.74,0,0,1-9,2.06,17.67,17.67,0,0,1-2.42,1,32.2,32.2,0,0,1-7.67,1.35c-7.78.46-14.88-1.53-15.83-4.57l-32-102.32c-9.35-5-16.4-12.77-18.79-21.46-2.57-9.35.5-18.66,8.61-24.9l-2-7.53a2.91,2.91,0,0,1,.76-2.92,4.56,4.56,0,0,1,3.39-1.13L569.85,740c2.48.09,4.18,1.82,3.85,3.88l-1.35,8.24a23.56,23.56,0,0,1,6.34,22.61c-1.87,7.46-8.85,13.07-14.24,16.72L531.71,892.78c-.43,1.27-1.83,2.45-4,3.43l-.07,0Z"/><path class="cls-6" d="M511.2,779.06l-5.63,113.46c-.43,2.72,3.27,4.93,10,4.91a25.94,25.94,0,0,0,10.12-1.89c1.77-.8,3-1.8,3.36-2.91l32-102.31L511.2,779.06Z"/><path class="cls-2" d="M527.18,896.09a30.87,30.87,0,0,1-11.86,2.19c-7.44,0-12.56-2.33-12.09-5.74L507,778.84c.06-1.66,2-2.91,4.33-2.79s4.13,1.58,4,3.23l-7.47,113.2v0c-.35,2,2,4.06,7.83,4.05A21.25,21.25,0,0,0,524,895l0,0c1.51-.69,2.45-1.51,2.72-2.39L557.21,790c.43-1.47,2.5-2.55,4.61-2.39s3.39,1.5,2.91,3l-33.47,102c-.43,1.27-1.82,2.45-4,3.43l-.07,0Z"/><path class="cls-2" d="M524.3,853.22a4.69,4.69,0,0,0-.54-.06h-.58a4.22,4.22,0,0,0-2.4.75,1.1,1.1,0,0,0-.26.27.85.85,0,0,0-.15.28.9.9,0,0,0,0,.28.77.77,0,0,0,.07.29.75.75,0,0,0,.19.26,1.25,1.25,0,0,0,.27.24,1.88,1.88,0,0,0,.37.21,4.72,4.72,0,0,0,2.06.34,5.07,5.07,0,0,0,.56-.05,4.68,4.68,0,0,0,.54-.1,3.51,3.51,0,0,0,.49-.15,3.62,3.62,0,0,0,.44-.2c.53-.29.83-.67.82-1.06s-.33-.75-.88-1a2.52,2.52,0,0,0-.44-.17,4,4,0,0,0-.52-.12Z"/><path class="cls-2" d="M493.08,855.05a5.42,5.42,0,0,0,.58.06,3.75,3.75,0,0,0,.58,0,3.68,3.68,0,0,0,.58,0,3,3,0,0,0,.54-.11,3.51,3.51,0,0,0,.49-.15,4.09,4.09,0,0,0,.42-.2,1.1,1.1,0,0,0,.67-1.09.78.78,0,0,0-.12-.29.9.9,0,0,0-.22-.27,1.72,1.72,0,0,0-.32-.26,4.11,4.11,0,0,0-.42-.21c-.15-.07-.32-.12-.49-.18a4.46,4.46,0,0,0-.55-.11,3.81,3.81,0,0,0-.59-.07,5.76,5.76,0,0,0-.59,0,3.84,3.84,0,0,0-2.37.77,1.38,1.38,0,0,0-.23.27,1.15,1.15,0,0,0-.11.29.76.76,0,0,0,0,.3,1.69,1.69,0,0,0,1.11,1,4,4,0,0,0,.49.17l.54.11Z"/><path class="cls-2" d="M519,861.74l-.92,10.5c-.06.65,1.06,1.17,2.5,1.15a4.69,4.69,0,0,0,2-.43c.42-.21.69-.48.72-.78l1.26-10.47c.09-.74-1.09-1.35-2.65-1.34s-2.87.62-2.93,1.37Z"/><path class="cls-7" d="M493.18,900.64c-3.83.19-7.3-.79-7.84-2.23l-1.89-5.28c-.11-.31.45-.59,1.24-.64h0l33.37-1.82c.77,0,1.41.18,1.44.48l.51,5.29c.14,1.47-2.83,2.82-6.64,3l-20.08,1.15Z"/><path class="cls-2" d="M493,899.81l20.3-1.16c2.61-.15,4.64-1.08,4.52-2.08l-.55-4.93-31.29,1.72,1.68,4.92c.35,1,2.7,1.66,5.34,1.53Zm26.77-.85a18.63,18.63,0,0,1-6.23,1.33l-20.07,1.17h-.05c-5,.25-9.58-1-10.33-2.92l-2-5.28c-.15-.39.11-.79.73-1.11h0a6.55,6.55,0,0,1,2.52-.58h.05L518,889.73c2.08-.1,3.79.49,3.86,1.3l.41,5.29c.08,1-.89,1.92-2.51,2.64Z"/><path class="cls-4" d="M493.53,889.5a2.48,2.48,0,0,1-1.46-.31l-4.65-3.65c-1.09-.86-.28-1.93,1.82-2.38a9.57,9.57,0,0,1,1.45-.19l16.07-.83h.07c2.33-.1,4.3.61,4.4,1.57a.85.85,0,0,1-.2.64l-3.14,4a1.85,1.85,0,0,1-1.28.44l-13.08.71Z"/><path class="cls-2" d="M494,888.49l11.85-.63,2.89-3.77a.41.41,0,0,0,.08-.27c0-.39-.85-.67-1.8-.63h-.07L491,884a5.3,5.3,0,0,0-.59.07,1.47,1.47,0,0,0-.86.43c-.14.18-.1.37.11.54l4.3,3.43Zm15.43.68a7,7,0,0,1-2.59.58l-13,.7h0a6.51,6.51,0,0,1-3.86-.81L485.2,886c-.85-.65-1-1.41-.5-2.13a5.79,5.79,0,0,1,3.37-1.67,14.13,14.13,0,0,1,2.32-.3l16.3-.83c3.73-.17,6.87,1,7,2.52a1.41,1.41,0,0,1-.35,1l-3.18,4a2.3,2.3,0,0,1-.79.57Z"/><path class="cls-1" d="M499.74,897.07c-6.33.32-7.36.26-7.7.24a11.54,11.54,0,0,1-5.16-1.69.52.52,0,0,1-.13-.13c-1.78-.89-3.16-2-3.47-2.88-.67-1.84,3.14-3.61,8.51-3.9l17.76-.93h.16c5.23-.24,9.55,1.06,9.76,2.89.09.85-.72,2.09-2,3.13a.21.21,0,0,1-.07.14c-1.06,1.14-3.84,2-6,2.38-1.13.19-8.48.6-11.67.76Z"/><path class="cls-2" d="M510.7,895.5a9.83,9.83,0,0,0,4.48-1.74.76.76,0,0,1,.23-.3c1.1-.89,1.81-2,1.73-2.67-.17-1.3-3.45-2.23-7.31-2h-.15l-17.61.93a14,14,0,0,0-5.18,1.14l0,0c-1,.49-1.38,1.08-1.19,1.64a6.46,6.46,0,0,0,3,2.45,1.19,1.19,0,0,1,.36.26,8.36,8.36,0,0,0,3.46,1.25c.19,0,1.33,0,6.94-.23h.18c4.37-.22,10.16-.57,11.14-.7Zm6.59.11a21.78,21.78,0,0,1-5.17,1.5c-1.68.27-10.57.73-12,.81h-.17c-6.63.33-7.76.27-8.3.24a14.58,14.58,0,0,1-6.75-2.08l-.22-.17c-1.94-1-3.38-2.19-3.76-3.17s.33-2.17,2.07-3.08l.07,0a22.3,22.3,0,0,1,8.48-1.9l18.08-.94c6.63-.3,12,1.37,12.2,3.73.09,1-.74,2.3-2.14,3.46a1.1,1.1,0,0,1-.14.18,7.12,7.12,0,0,1-2.22,1.45Z"/><path class="cls-7" d="M508.58,901.45c-3.73.19-7-.76-7.36-2.17L500,894.13c-.07-.3.5-.58,1.28-.62h0l32.57-1.8c.75,0,1.35.17,1.35.47l-.08,5.16c0,1.43-3.06,2.74-6.78,3l-19.62,1.14Z"/><path class="cls-2" d="M508.46,900.64l19.83-1.15c2.55-.14,4.63-1,4.62-2v-4.8l-30.53,1.7,1.07,4.79c.23,1,2.43,1.62,5,1.49Zm26.08-.85a19.18,19.18,0,0,1-6.19,1.31l-19.62,1.15h-.05c-4.92.25-9.18-1-9.69-2.84l-1.33-5.15c-.1-.38.2-.77.84-1.09h0a7.05,7.05,0,0,1,2.5-.56h.06l32.75-1.81c2-.09,3.63.48,3.61,1.26l-.17,5.16c0,1-1.07,1.88-2.73,2.58Z"/><path class="cls-4" d="M510.17,890.59a2.28,2.28,0,0,1-1.39-.3l-4.09-3.55c-1-.84-.06-1.88,2-2.32a10.59,10.59,0,0,1,1.42-.18l15.66-.82h.07c2.27-.1,4.1.58,4.09,1.52a.93.93,0,0,1-.27.62l-3.48,3.9a2,2,0,0,1-1.29.43l-12.75.7Z"/><path class="cls-2" d="M510.68,889.61l11.56-.63,3.21-3.67a.42.42,0,0,0,.11-.26c0-.38-.76-.66-1.67-.61h-.07l-15.51.82a3.42,3.42,0,0,0-.57.07,1.6,1.6,0,0,0-.88.41.33.33,0,0,0,0,.53l3.78,3.34Zm14.89.64a7.13,7.13,0,0,1-2.58.57l-12.68.7h0a5.78,5.78,0,0,1-3.64-.79l-4.15-3.53a1.33,1.33,0,0,1-.24-2.07,6.45,6.45,0,0,1,3.45-1.63,15,15,0,0,1,2.27-.29l15.89-.83c3.62-.16,6.54,1,6.51,2.45a1.54,1.54,0,0,1-.45,1l-3.52,3.88a2.39,2.39,0,0,1-.82.55Z"/><path class="cls-1" d="M515.35,898c-6.18.32-7.18.26-7.51.24a10.09,10.09,0,0,1-4.81-1.65.33.33,0,0,1-.11-.13c-1.63-.85-2.84-2-3.05-2.79-.43-1.8,3.46-3.52,8.69-3.81l17.33-.92H526c5.09-.23,9.14,1,9.15,2.81,0,.83-.93,2-2.3,3a.25.25,0,0,1-.08.14c-1.15,1.11-3.95,2-6.06,2.33-1.12.18-8.3.58-11.41.74Z"/><path class="cls-2" d="M526.15,896.43a10.88,10.88,0,0,0,4.55-1.71.74.74,0,0,1,.25-.29c1.16-.87,2-1.94,2-2.61,0-1.26-3.11-2.16-6.88-2h-.14l-17.18.93a14.17,14.17,0,0,0-5.14,1.11h0c-1,.49-1.47,1.06-1.34,1.61s1.23,1.65,2.59,2.38a1,1,0,0,1,.33.26,7.26,7.26,0,0,0,3.21,1.21c.18,0,1.29,0,6.76-.23h.17c4.28-.21,9.93-.56,10.89-.68Zm6.39.09a22.49,22.49,0,0,1-5.18,1.47c-1.66.27-10.34.72-11.77.8h-.17c-6.47.33-7.56.27-8.08.24a12.66,12.66,0,0,1-6.31-2,1.08,1.08,0,0,1-.2-.16c-1.77-1-3-2.14-3.28-3.09s.56-2.11,2.35-3l.07,0a23.35,23.35,0,0,1,8.43-1.85l17.64-.94c6.45-.29,11.45,1.33,11.42,3.63,0,1-1,2.24-2.46,3.38a.8.8,0,0,1-.15.17,7.87,7.87,0,0,1-2.31,1.41Z"/><path class="cls-2" d="M520.19,893.84l-7.76.41c-1.27.06-2.23.51-2.16,1s1.13.82,2.38.75l7.67-.4a4.46,4.46,0,0,0,1.57-.34c.4-.18.64-.41.62-.65,0-.49-1.06-.83-2.32-.77Z"/><path class="cls-2" d="M493,860.4l.94,4.35c.15.73,1.53,1.26,3.07,1.2a4.31,4.31,0,0,0,1.9-.47c.46-.25.72-.59.65-1l-.79-4.35c-.14-.77-1.55-1.35-3.16-1.29s-2.78.75-2.61,1.52Z"/><path class="cls-2" d="M557.28,771.33c-2.29,0-4.27,1.42-4.43,3.1-.6,6.78-8.67,8.29-9.56,8.44-1.74.26-3.08,1.28-3.31,2.52l-2.87,15.32c-.25,1.35,1.19,2.51,3.21,2.61a5.26,5.26,0,0,0,3-.75,2.5,2.5,0,0,0,1.15-1.49l2.14-9.73,2.59-4.26c5.08-1.85,11-5.73,11.83-12.72.2-1.69-1.49-3-3.78-3Z"/><path class="cls-6" d="M754.62,630.89,271.31,646.15,512.22,195.48l242.4,435.41ZM242,664.74l542-17.13-271.84-489L242,664.74Z"/><path class="cls-2" d="M278,642l470-14.83L512.29,203.74,278,642Zm479.38-8.28a4,4,0,0,1-2.66,1.16L271.44,650.1a4,4,0,0,1-3.62-5.82L508.73,193.62a4,4,0,0,1,6.95-.06L758.07,629a3.94,3.94,0,0,1-.66,4.72ZM248.68,660.57l528.67-16.72-265.15-477L248.68,660.57ZM786.76,650.4a3.86,3.86,0,0,1-2.67,1.16l-542,17.13a4,4,0,0,1-3.62-5.82L508.64,156.74a4,4,0,0,1,7-.06l271.84,489a4,4,0,0,1,0,3.88,3.78,3.78,0,0,1-.65.84Z"/><path class="cls-5" d="M597.85,616.29c-5.75-.11-12-.3-17.92-.62-14.26-.78-27.77,9-26.19,26.44l3.57,2.2L618,654.37c2.2-.06,1.43-13.69,1.45-15.87,0-.06.13-1,.13-1.11.12-12-9.55-20.87-21.7-21.1Z"/><path class="cls-2" d="M557.59,640.36l.37,0,57.47,9.53c.13-1.74.2-4.66.07-9.52,0-.9,0-1.58,0-2,0-.05,0-.5.08-1l0-.33c0-9.46-7.63-16.73-17.81-16.92-6.7-.13-12.77-.34-18.06-.63a21.91,21.91,0,0,0-17,6.17c-3.6,3.73-5.36,8.74-5.13,14.57Zm63.58,16.73a4.37,4.37,0,0,1-3.07,1.24,3.94,3.94,0,0,1-.77-.05l-60.67-10.06a45.95,45.95,0,0,1-6.86-5.76c-.8-8.78,1.7-16.44,7.22-22.16a29.68,29.68,0,0,1,23.13-8.58c5.2.28,11.17.48,17.78.61,14.73.29,25.72,11.07,25.58,25.1,0,.05,0,.51-.09,1l0,.31c0,.34,0,.86,0,1.5.21,7.76.38,14.26-2.24,16.88Z"/><path class="cls-5" d="M570.23,636.52l-.41,28.89c-.06,4,3.58,7.23,8.13,7.21s8.28-3.3,8.33-7.31l.42-28.89-16.47.1Z"/><path class="cls-2" d="M587,672.89a12.85,12.85,0,0,1-9,3.69,12.59,12.59,0,0,1-9-3.59,10.59,10.59,0,0,1-3.13-7.63l.41-28.89a4,4,0,0,1,7.92.11l-.42,28.89a2.7,2.7,0,0,0,.85,1.94,4.59,4.59,0,0,0,3.3,1.25c2.37,0,4.38-1.57,4.41-3.4l.41-28.89a4,4,0,1,1,7.92.11l-.42,28.89a10.88,10.88,0,0,1-3.27,7.52Z"/><path class="cls-5" d="M553.75,636.71l-.24,24.75c0,4,3.62,7.23,8.17,7.18s8.27-3.33,8.3-7.34l.24-24.75-16.47.16Z"/><path class="cls-2" d="M570.67,668.9a12.86,12.86,0,0,1-8.95,3.7,12.62,12.62,0,0,1-9-3.56,10.57,10.57,0,0,1-3.16-7.62l.24-24.75a4,4,0,1,1,7.91.08l-.24,24.75a2.72,2.72,0,0,0,.85,1.94,4.64,4.64,0,0,0,3.32,1.24c2.36,0,4.37-1.59,4.39-3.42l.23-24.75a4,4,0,1,1,7.92.08l-.24,24.75a10.85,10.85,0,0,1-3.27,7.56Z"/><path class="cls-5" d="M586.73,638.11l-.24,23.56c0,3.82,3.63,6.88,8.17,6.83h0c4.55,0,8.27-3.17,8.31-7l.22-23.56-16.46.16Z"/><path class="cls-2" d="M603.78,668.75a13,13,0,0,1-9.08,3.71,12.81,12.81,0,0,1-9.13-3.57,10.1,10.1,0,0,1-3-7.25l.23-23.57a4,4,0,1,1,7.91.08l-.23,23.56a2.18,2.18,0,0,0,.73,1.58,4.86,4.86,0,0,0,3.45,1.25c2.56,0,4.36-1.63,4.38-3.07l.23-23.56a4,4,0,1,1,7.91.08l-.23,23.56a10.28,10.28,0,0,1-3.14,7.2Z"/><path class="cls-5" d="M603,636.23l-.2,20.34c0,4,3.61,7.22,8.16,7.17s8.26-3.32,8.31-7.34l.19-20.32-16.46.15Z"/><path class="cls-2" d="M620,664a12.76,12.76,0,0,1-9,3.7,12.51,12.51,0,0,1-9-3.56,10.56,10.56,0,0,1-3.17-7.61l.2-20.33a4,4,0,1,1,7.91.07l-.2,20.34a2.73,2.73,0,0,0,.85,1.93,4.64,4.64,0,0,0,3.33,1.25c2.35,0,4.36-1.59,4.38-3.42l.2-20.33a4,4,0,1,1,7.91.07l-.2,20.34A10.83,10.83,0,0,1,620,664Z"/><path class="cls-5" d="M444.8,617c-5.92.44-12.18.75-17.94,1-12.14.47-22,9.5-22.1,21.52,0,.07.09,1,.1,1.11,0,2.18,2,17.74,4.17,17.76l59.59-5.56,1.87-9.87c1.92-17.49-11.41-27-25.69-25.93Z"/><path class="cls-2" d="M471.41,655.59a3.9,3.9,0,0,1-2.42,1.13l-59.59,5.56a2.75,2.75,0,0,1-.41,0c-4.33,0-5.62-5.15-6.77-11.31a86,86,0,0,1-1.32-10.22l0-.35c-.05-.45-.07-.91-.07-1,.12-14,11.26-24.89,25.91-25.47,6.59-.25,12.58-.57,17.8-1,9-.66,17.4,2.33,23.05,8.18,3.81,3.94,8.09,11,6.87,22.13a4,4,0,0,1-7.87-.85c.7-6.42-.92-11.88-4.69-15.78-4-4.16-10.14-6.27-16.78-5.78-5.31.38-11.39.72-18.07,1-10.29.41-18.13,7.89-18.3,17.44l0,.32c0,.44.06.89.06.94a80.15,80.15,0,0,0,2.24,13.58l57.2-5.34a4,4,0,0,1,3.16,6.75Z"/><path class="cls-5" d="M437.63,637.87l-.15,28.88c0,4,3.65,7.21,8.2,7.15s8.25-3.36,8.27-7.36l.14-28.89-16.46.22Z"/><path class="cls-2" d="M454.64,674.17a12.85,12.85,0,0,1-8.91,3.7,12.69,12.69,0,0,1-9-3.53,10.64,10.64,0,0,1-3.2-7.6l.15-28.89a4,4,0,1,1,7.92,0l-.15,28.89a2.74,2.74,0,0,0,.86,1.94,4.65,4.65,0,0,0,3.33,1.23c2.35,0,4.36-1.61,4.36-3.43l.15-28.89a4,4,0,0,1,7.91,0l-.14,28.89a10.84,10.84,0,0,1-3.27,7.61Z"/><path class="cls-5" d="M454.11,637.68l-.24,24.75c0,4,3.61,7.22,8.16,7.18s8.27-3.33,8.3-7.34l.25-24.75-16.47.16Z"/><path class="cls-2" d="M471,669.88a12.81,12.81,0,0,1-8.95,3.68,12.58,12.58,0,0,1-9-3.55,10.59,10.59,0,0,1-3.16-7.62l.24-24.74a4,4,0,1,1,7.91.07l-.23,24.75a2.69,2.69,0,0,0,.84,1.93,4.62,4.62,0,0,0,3.32,1.25c2.36,0,4.37-1.59,4.39-3.42l.24-24.75a4,4,0,0,1,7.91.08l-.24,24.75a10.85,10.85,0,0,1-3.27,7.57Z"/><path class="cls-5" d="M421.1,639.72l-.23,23.56c0,3.82,3.62,6.87,8.17,6.83s8.26-3.18,8.3-7l.23-23.57-16.47.17Z"/><path class="cls-2" d="M438.16,670.36a13.06,13.06,0,0,1-9.09,3.71A12.74,12.74,0,0,1,420,670.5a10.11,10.11,0,0,1-3-7.26l.23-23.56a4,4,0,1,1,7.92.08l-.23,23.56a2.24,2.24,0,0,0,.72,1.58,4.84,4.84,0,0,0,3.45,1.25c2.56,0,4.37-1.64,4.38-3.07l.24-23.56a4,4,0,1,1,7.9.08l-.22,23.56a10.37,10.37,0,0,1-3.14,7.2Z"/><path class="cls-5" d="M404.83,638.16l-.19,20.33c0,4,3.62,7.22,8.16,7.18s8.27-3.33,8.31-7.33l.2-20.34-16.48.16Z"/><path class="cls-2" d="M421.79,665.94a12.88,12.88,0,0,1-9,3.69,12.59,12.59,0,0,1-9-3.56,10.57,10.57,0,0,1-3.17-7.61l.2-20.34a4,4,0,1,1,7.91.08l-.19,20.33a2.7,2.7,0,0,0,.85,1.94,4.59,4.59,0,0,0,3.31,1.24c2.36,0,4.37-1.58,4.39-3.41l.2-20.34a4,4,0,1,1,7.91.08l-.2,20.33a10.81,10.81,0,0,1-3.27,7.57Z"/><path class="cls-2" d="M132,367.84a4,4,0,0,0-2.34,5.09l108.6,293.18a4,4,0,0,0,5.09,2.34,4,4,0,0,0,1.42-.91,4,4,0,0,0,.91-4.18L137.07,370.18a4,4,0,0,0-5.08-2.34Z"/><path class="cls-2" d="M859.62,336.72a4,4,0,0,0-4.78,2.91l-74.72,307a4,4,0,0,0,6.65,3.73,3.81,3.81,0,0,0,1-1.86l74.73-307a4,4,0,0,0-2.92-4.78Z"/><path class="cls-1" d="M323,712.82h0a19,19,0,0,1-18.52-19.54l1.39-51.83a19,19,0,0,1,19.54-18.52h0a19,19,0,0,1,18.53,19.54l-1.4,51.83A19,19,0,0,1,323,712.82Z"/><path class="cls-2" d="M314.2,631.3a15.07,15.07,0,0,0-4.41,10.26l-1.4,51.82a15.1,15.1,0,0,0,14.68,15.48h0a15.1,15.1,0,0,0,15.48-14.67l1.39-51.82A15.08,15.08,0,0,0,314.2,631.3ZM339.74,710l-.45.44a22.9,22.9,0,0,1-16.44,6.3h0a23,23,0,0,1-22.37-23.61l1.4-51.83a23,23,0,0,1,46,1.24l-1.4,51.83A22.83,22.83,0,0,1,339.74,710Z"/><path class="cls-1" d="M699.67,701.4h0a19,19,0,0,1-18.52-19.54l1.4-51.82a19,19,0,0,1,19.54-18.53h0a19,19,0,0,1,18.52,19.55l-1.39,51.82a19,19,0,0,1-19.55,18.52Z"/><path class="cls-2" d="M690.92,619.88a15.05,15.05,0,0,0-4.42,10.26L685.11,682a15.06,15.06,0,0,0,14.67,15.48h0a15.09,15.09,0,0,0,15.48-14.66L716.65,631a15.08,15.08,0,0,0-25.73-11.07Zm25.52,78.74a23,23,0,0,1-39.25-16.87l1.4-51.82a23,23,0,0,1,46,1.23L723.17,683a22.89,22.89,0,0,1-6.73,15.63Z"/><path class="cls-2" d="M696.65,663l-.88,20.2a4,4,0,1,0,7.91.34l.88-20.19a4,4,0,0,0-7.91-.35Z"/><path class="cls-2" d="M323.12,639.09a3.71,3.71,0,0,0-.74.22,5,5,0,0,0-.69.36,3.94,3.94,0,0,0-1.09,1.1,4.14,4.14,0,0,0-.37.69,3.62,3.62,0,0,0-.22.73,5.16,5.16,0,0,0-.08.78,4,4,0,0,0,4.73,3.88,4.54,4.54,0,0,0,.74-.23,3.78,3.78,0,0,0,.69-.36,5.68,5.68,0,0,0,.59-.49,4,4,0,0,0,.5-.6,4.52,4.52,0,0,0,.36-.69,3.33,3.33,0,0,0,.23-.74,4.13,4.13,0,0,0,.08-.78,3.94,3.94,0,0,0-4-4,3.3,3.3,0,0,0-.77.08Z"/><path class="cls-2" d="M319.93,658.77v15.81a4,4,0,0,0,4,3.95,3.9,3.9,0,0,0,2.8-1.16,4,4,0,0,0,1.16-2.79V658.77a4,4,0,0,0-7.92,0Z"/><path class="cls-2" d="M700.6,643.4a4,4,0,0,0-3.29,1.76,4.1,4.1,0,0,0-.36.69,3.08,3.08,0,0,0-.22.73,3.46,3.46,0,0,0-.09.78,4.15,4.15,0,0,0,.09.78,3.83,3.83,0,0,0,.22.73,4.2,4.2,0,0,0,.37.69,4.58,4.58,0,0,0,.48.59,4,4,0,0,0,2.8,1.17,4.13,4.13,0,0,0,.78-.08,4,4,0,0,0,.74-.23,4,4,0,0,0,.68-.36,3.54,3.54,0,0,0,.6-.5,4,4,0,0,0-2.8-6.75Z"/></g></g></g></svg>