<svg xmlns="http://www.w3.org/2000/svg" xmlns:xlink="http://www.w3.org/1999/xlink" viewBox="0 0 14.15 90.12"><defs><style>.cls-1{fill:url(#Degradado_sin_nombre_15);}.cls-2{fill:url(#Degradado_sin_nombre_13);}.cls-3{fill:url(#linear-gradient);}.cls-10,.cls-11,.cls-12,.cls-13,.cls-14,.cls-15,.cls-16,.cls-17,.cls-4,.cls-5,.cls-6,.cls-7,.cls-8,.cls-9{fill:none;stroke-miterlimit:10;stroke-width:0.3px;}.cls-4{stroke:url(#Degradado_sin_nombre_10);}.cls-5{stroke:url(#Degradado_sin_nombre_10-2);}.cls-6{stroke:url(#Degradado_sin_nombre_10-3);}.cls-7{stroke:url(#Degradado_sin_nombre_10-4);}.cls-8{stroke:url(#Degradado_sin_nombre_10-5);}.cls-9{stroke:url(#Degradado_sin_nombre_10-6);}.cls-10{stroke:url(#Degradado_sin_nombre_10-7);}.cls-11{stroke:url(#Degradado_sin_nombre_10-8);}.cls-12{stroke:url(#Degradado_sin_nombre_10-9);}.cls-13{stroke:url(#Degradado_sin_nombre_10-10);}.cls-14{stroke:url(#Degradado_sin_nombre_10-11);}.cls-15{stroke:url(#Degradado_sin_nombre_10-12);}.cls-16{stroke:url(#Degradado_sin_nombre_10-13);}.cls-17{stroke:url(#Degradado_sin_nombre_10-14);}</style><linearGradient id="Degradado_sin_nombre_15" x1="7.07" y1="90.59" x2="7.07" y2="1.26" gradientUnits="userSpaceOnUse"><stop offset="0" stop-color="#e7e7e7"/><stop offset="0.99" stop-color="#c3c3c3"/></linearGradient><linearGradient id="Degradado_sin_nombre_13" x1="7.07" y1="89.38" x2="7.07" y2="2.42" gradientUnits="userSpaceOnUse"><stop offset="0.01" stop-color="#c3c3c3"/><stop offset="1" stop-color="#e7e7e7"/></linearGradient><linearGradient id="linear-gradient" x1="7.07" y1="88.17" x2="7.07" y2="3.59" gradientUnits="userSpaceOnUse"><stop offset="0" stop-color="#960000"/><stop offset="0.22" stop-color="#ff1400"/><stop offset="0.42" stop-color="#fff"/><stop offset="0.62" stop-color="#fff"/><stop offset="0.83" stop-color="#fff"/><stop offset="1" stop-color="#fff"/></linearGradient><linearGradient id="Degradado_sin_nombre_10" x1="2.4" y1="8.46" x2="11.75" y2="8.46" gradientUnits="userSpaceOnUse"><stop offset="0" stop-color="#00032b"/><stop offset="1" stop-color="#000e63"/></linearGradient><linearGradient id="Degradado_sin_nombre_10-2" x1="2.4" y1="14.6" x2="11.75" y2="14.6" xlink:href="#Degradado_sin_nombre_10"/><linearGradient id="Degradado_sin_nombre_10-3" x1="2.4" y1="20.75" x2="11.75" y2="20.75" xlink:href="#Degradado_sin_nombre_10"/><linearGradient id="Degradado_sin_nombre_10-4" x1="2.4" y1="26.89" x2="11.75" y2="26.89" xlink:href="#Degradado_sin_nombre_10"/><linearGradient id="Degradado_sin_nombre_10-5" x1="2.4" y1="33.03" x2="11.75" y2="33.03" xlink:href="#Degradado_sin_nombre_10"/><linearGradient id="Degradado_sin_nombre_10-6" x1="2.4" y1="39.17" x2="11.75" y2="39.17" xlink:href="#Degradado_sin_nombre_10"/><linearGradient id="Degradado_sin_nombre_10-7" x1="2.4" y1="45.32" x2="11.75" y2="45.32" xlink:href="#Degradado_sin_nombre_10"/><linearGradient id="Degradado_sin_nombre_10-8" x1="2.4" y1="51.46" x2="11.75" y2="51.46" xlink:href="#Degradado_sin_nombre_10"/><linearGradient id="Degradado_sin_nombre_10-9" x1="2.4" y1="57.6" x2="11.75" y2="57.6" xlink:href="#Degradado_sin_nombre_10"/><linearGradient id="Degradado_sin_nombre_10-10" x1="2.4" y1="63.74" x2="11.75" y2="63.74" xlink:href="#Degradado_sin_nombre_10"/><linearGradient id="Degradado_sin_nombre_10-11" x1="2.4" y1="69.88" x2="11.75" y2="69.88" xlink:href="#Degradado_sin_nombre_10"/><linearGradient id="Degradado_sin_nombre_10-12" x1="2.4" y1="76.03" x2="11.75" y2="76.03" xlink:href="#Degradado_sin_nombre_10"/><linearGradient id="Degradado_sin_nombre_10-13" x1="2.4" y1="82.17" x2="11.75" y2="82.17" xlink:href="#Degradado_sin_nombre_10"/><linearGradient id="Degradado_sin_nombre_10-14" x1="7.07" y1="87.88" x2="7.07" y2="2.24" xlink:href="#Degradado_sin_nombre_10"/></defs><g id="Layer_2" data-name="Layer 2"><g id="Layer_1-2" data-name="Layer 1"><g id="side_view" data-name="side view"><path class="cls-1" d="M7.07,90.12A7.08,7.08,0,0,1,0,83.05v-76a7.08,7.08,0,0,1,14.15,0v76A7.08,7.08,0,0,1,7.07,90.12Z"/><path class="cls-2" d="M7.07,88.92A5.87,5.87,0,0,1,1.2,83.05v-76A5.88,5.88,0,0,1,13,7.07v76A5.88,5.88,0,0,1,7.07,88.92Z"/><path class="cls-3" d="M7.07,87.73h0A4.68,4.68,0,0,1,2.4,83.05v-76A4.67,4.67,0,0,1,7.07,2.4h0a4.67,4.67,0,0,1,4.68,4.67v76A4.68,4.68,0,0,1,7.07,87.73Z"/><line class="cls-4" x1="2.4" y1="8.46" x2="11.75" y2="8.46"/><line class="cls-5" x1="2.4" y1="14.6" x2="11.75" y2="14.6"/><line class="cls-6" x1="2.4" y1="20.75" x2="11.75" y2="20.75"/><line class="cls-7" x1="2.4" y1="26.89" x2="11.75" y2="26.89"/><line class="cls-8" x1="2.4" y1="33.03" x2="11.75" y2="33.03"/><line class="cls-9" x1="2.4" y1="39.17" x2="11.75" y2="39.17"/><line class="cls-10" x1="2.4" y1="45.32" x2="11.75" y2="45.32"/><line class="cls-11" x1="2.4" y1="51.46" x2="11.75" y2="51.46"/><line class="cls-12" x1="2.4" y1="57.6" x2="11.75" y2="57.6"/><line class="cls-13" x1="2.4" y1="63.74" x2="11.75" y2="63.74"/><line class="cls-14" x1="2.4" y1="69.88" x2="11.75" y2="69.88"/><line class="cls-15" x1="2.4" y1="76.03" x2="11.75" y2="76.03"/><line class="cls-16" x1="2.4" y1="82.17" x2="11.75" y2="82.17"/><path class="cls-17" d="M7.07,87.73h0A4.68,4.68,0,0,1,2.4,83.05v-76A4.67,4.67,0,0,1,7.07,2.4h0a4.67,4.67,0,0,1,4.68,4.67v76A4.68,4.68,0,0,1,7.07,87.73Z"/></g></g></g></svg>