<svg xmlns="http://www.w3.org/2000/svg" viewBox="0 0 152 133.27"><defs><style>.cls-1{fill:#ff3363;}.cls-2{fill:#243047;}.cls-3{fill:#299fff;}.cls-4{fill:#ffb842;}.cls-5{fill:#ffac75;}.cls-6{fill:#02b6ba;}.cls-7{fill:#fff;}.cls-8{fill:#232323;}</style></defs><g id="Layer_2" data-name="Layer 2"><g id="Layer_1-2" data-name="Layer 1"><path class="cls-1" d="M76,.58C53.16.58.58,59.63.58,76.4c0,0,41.8-27.05,75.41-27s75.42,27.11,75.42,27.07C151.41,59.17,98.81.59,76,.58Z"/><path class="cls-2" d="M1.24,75.3C10,69.93,46.18,48.77,76,48.77S142.05,70,150.76,75.33c-.48-4-3.42-10.24-8.41-17.71a196.59,196.59,0,0,0-20.52-25.18C107.44,17.32,87.83,1.17,76,1.17c-5.17,0-12.45,3.24-21.07,9.38A177.53,177.53,0,0,0,30.15,32.6,199.68,199.68,0,0,0,9.64,57.8c-5,7.43-7.91,13.57-8.4,17.5Zm150.59,1.54-.13.1c-.31.16-.51,0-.84-.17C143.69,72.29,106.41,50,76,49.94S8.3,72.27,1.14,76.74c-.33.21-.54.34-.84.17A.61.61,0,0,1,0,76.4c0-5.21,4.71-13.34,8.67-19.25A201.32,201.32,0,0,1,29.3,31.8,178.87,178.87,0,0,1,54.23,9.59C63.17,3.23,70.49,0,76,0h0c5.5,0,12.82,3.21,21.76,9.53a177.77,177.77,0,0,1,24.94,22.1A197.25,197.25,0,0,1,143.32,57c4,5.93,8.68,14.11,8.68,19.46a.63.63,0,0,1-.17.41Z"/><path class="cls-3" d="M76,.58C53.16.58.58,59.63.58,76.4c0,0,41.8-27.05,75.41-27s75.42,27.11,75.42,27.07C151.41,59.17,98.81.59,76,.58Z"/><path class="cls-2" d="M1.24,75.3C10,69.93,46.18,48.77,76,48.77S142.05,70,150.76,75.33c-.48-4-3.42-10.24-8.41-17.71a196.59,196.59,0,0,0-20.52-25.18C107.44,17.32,87.83,1.17,76,1.17c-5.17,0-12.45,3.24-21.07,9.38A177.53,177.53,0,0,0,30.15,32.6,199.68,199.68,0,0,0,9.64,57.8c-5,7.43-7.91,13.57-8.4,17.5Zm150.59,1.54-.13.1c-.31.16-.51,0-.84-.17C143.69,72.29,106.41,50,76,49.94S8.3,72.27,1.14,76.74c-.33.21-.54.34-.84.17A.61.61,0,0,1,0,76.4c0-5.21,4.71-13.34,8.67-19.25A201.32,201.32,0,0,1,29.3,31.8,178.87,178.87,0,0,1,54.23,9.59C63.17,3.23,70.49,0,76,0h0c5.5,0,12.82,3.21,21.76,9.53a177.77,177.77,0,0,1,24.94,22.1A197.25,197.25,0,0,1,143.32,57c4,5.93,8.68,14.11,8.68,19.46a.63.63,0,0,1-.17.41Z"/><path class="cls-4" d="M.59,76.39c.47-.26,42-27,75.4-27s75,26.81,75.42,27.06C151,61.31,98.71,11.26,76,11.26S1.06,61.68.59,76.39Z"/><path class="cls-2" d="M.59,76.39Zm.72-1.13C10.14,69.82,46.25,48.77,76,48.77s65.88,21.09,74.7,26.52c-.64-3.5-3.62-8.77-8.53-15.06a177.17,177.17,0,0,0-20.51-21.62A170.69,170.69,0,0,0,97,19.81c-8.57-5.21-15.84-8-21-8s-12.42,2.77-21,8A170.53,170.53,0,0,0,30.34,38.74,181,181,0,0,0,9.84,60.37C4.94,66.62,2,71.84,1.31,75.26Zm150.51,1.58-.11.08a.57.57,0,0,1-.58,0l-.27-.17C143.69,72.29,106.4,50,76,49.94S8.3,72.26,1.14,76.74l-.27.17a.59.59,0,0,1-.59,0A.59.59,0,0,1,0,76.38c.14-4.6,4.92-11.64,8.9-16.73A183.45,183.45,0,0,1,29.55,37.87a172.94,172.94,0,0,1,24.83-19c8.88-5.43,16.15-8.19,21.6-8.19s12.74,2.74,21.62,8.15a171.53,171.53,0,0,1,24.84,18.92,180.39,180.39,0,0,1,20.65,21.77c4,5.1,8.76,12.18,8.9,16.89a.6.6,0,0,1-.17.44Z"/><path class="cls-1" d="M.62,76.38c1.36-.84,42.32-27,75.37-27s74.06,26.23,75.39,27.05C149.9,64.14,98.48,25.7,76,25.7S2.16,64.39.62,76.38Z"/><path class="cls-2" d="M1.54,75.12c9.22-5.66,45-26.35,74.45-26.35s65.28,20.74,74.48,26.38c-1-2.78-4-6.76-8.74-11.42a164.08,164.08,0,0,0-20.5-16.8A171.73,171.73,0,0,0,96.8,32.43c-8.48-4-15.68-6.15-20.82-6.15-21.55,0-69.7,35.94-74.44,48.84Zm150.25,1.7-.1.08a.58.58,0,0,1-.62,0l-.21-.13C143.69,72.29,106.4,50,76,49.94S8.3,72.27,1.14,76.74l-.21.13a.6.6,0,0,1-.63,0A.6.6,0,0,1,0,76.3C.53,72.51,5.44,67,9.47,63A171.07,171.07,0,0,1,30.11,46.06,173,173,0,0,1,54.69,31.4C63.44,27.23,70.6,25.11,76,25.11s12.56,2.11,21.32,6.26A171.8,171.8,0,0,1,121.9,46a166.48,166.48,0,0,1,20.65,16.91c4,4,8.94,9.58,9.41,13.45a.58.58,0,0,1-.17.48Z"/><path class="cls-2" d="M76,0a.58.58,0,0,0-.58.58l0,25.07a.58.58,0,0,0,.59.58.58.58,0,0,0,.58-.58l0-25.06A.58.58,0,0,0,76,0Z"/><path class="cls-2" d="M53.35,11V31.67a.59.59,0,0,0,.58.59.58.58,0,0,0,.42-.18.59.59,0,0,0,.17-.41V11a.58.58,0,1,0-1.16,0Z"/><path class="cls-2" d="M98,10.38a.58.58,0,0,0-.58.59V31.68a.58.58,0,0,0,.59.58.57.57,0,0,0,.41-.17.59.59,0,0,0,.17-.41V11a.59.59,0,0,0-.59-.59Z"/><path class="cls-2" d="M4.06,77.49a.58.58,0,0,0-.56.61l.62,15a.58.58,0,0,0,.61.56.61.61,0,0,0,.39-.17.62.62,0,0,0,.17-.44l-.62-15a.58.58,0,0,0-.61-.56Z"/><path class="cls-2" d="M1.57,86.27a.63.63,0,0,0,.18-.44l-.17-5.15a.58.58,0,0,0-.6-.56.59.59,0,0,0-.57.6l.17,5.15a.59.59,0,0,0,.6.57.61.61,0,0,0,.39-.17Z"/><path class="cls-2" d="M7.29,76.3l.22,9.31a.6.6,0,0,0,.6.57.58.58,0,0,0,.57-.6l-.22-9.3a.6.6,0,0,0-.6-.58.59.59,0,0,0-.57.6Z"/><path class="cls-2" d="M.84,89.89l.11,0h.12a.58.58,0,0,0,.41-.17.22.22,0,0,0,.07-.09.33.33,0,0,0,.06-.1l0-.11a.41.41,0,0,0,0-.11.49.49,0,0,0,0-.12l0-.1L1.55,89a.27.27,0,0,0-.07-.08l-.09-.08a.31.31,0,0,0-.1,0,.2.2,0,0,0-.11,0l-.11,0-.12,0-.11,0-.1,0A1.21,1.21,0,0,0,.58,89a.54.54,0,0,0,0,.11.42.42,0,0,0,0,.1s0,.08,0,.12,0,.08,0,.11a.36.36,0,0,0,0,.11.31.31,0,0,0,0,.1l.08.09a.27.27,0,0,0,.08.07l.1.06Z"/><path class="cls-2" d="M147.5,77.42a.59.59,0,0,0-.61.56l-.61,15a.59.59,0,1,0,1.17,0l.61-15a.59.59,0,0,0-.56-.61Z"/><path class="cls-2" d="M150,80.62l-.16,5.15a.58.58,0,0,0,.57.6.57.57,0,0,0,.43-.17.61.61,0,0,0,.17-.39l.16-5.16a.59.59,0,1,0-1.17,0Z"/><path class="cls-2" d="M143.46,86.11a.59.59,0,0,0,.42-.17.53.53,0,0,0,.17-.4l.23-9.3a.59.59,0,0,0-.57-.6.58.58,0,0,0-.6.57l-.23,9.3a.6.6,0,0,0,.58.6Z"/><path class="cls-2" d="M150.72,88.74l-.11,0h-.23l-.11,0a.53.53,0,0,0-.1.06A.49.49,0,0,0,150,89a.31.31,0,0,0,0,.1.36.36,0,0,0,0,.11s0,.07,0,.11,0,.08,0,.12a.42.42,0,0,0,0,.1.37.37,0,0,0,0,.11l.07.09.09.07.1,0,.11,0h.12l.11,0a.23.23,0,0,0,.11,0,.31.31,0,0,0,.1,0l.09-.07.07-.09.06-.11,0-.1a.49.49,0,0,0,0-.12.41.41,0,0,0,0-.11l0-.11L151,89l-.07-.09-.09-.07-.1-.06Z"/><path class="cls-2" d="M45.39,40.16A130.13,130.13,0,0,0,29.82,50.3a.58.58,0,0,0,.72.92A129.87,129.87,0,0,1,46,41.18a.71.71,0,0,0,.14-.1.6.6,0,0,0,.09-.7.57.57,0,0,0-.79-.22Z"/><path class="cls-2" d="M48.71,38.72a.35.35,0,0,0-.11,0l-.11,0-.12,0-.11,0-.1.05a.81.81,0,0,0-.16.16A.54.54,0,0,0,48,39a.36.36,0,0,0,0,.11s0,.07,0,.11a.36.36,0,0,0,0,.11.2.2,0,0,0,0,.11.31.31,0,0,0,0,.1.35.35,0,0,0,.07.09.59.59,0,0,0,.42.17h.11l.11,0a.33.33,0,0,0,.1-.06l.09-.07a.22.22,0,0,0,.07-.09l.06-.1,0-.11a.37.37,0,0,0,0-.11.57.57,0,0,0-.17-.41.34.34,0,0,0-.09-.08.31.31,0,0,0-.1-.05Z"/><path class="cls-2" d="M120,56.57a.58.58,0,0,0-.14-.93c-4.81-2.46-15.49-5.66-16-5.79a.57.57,0,0,0-.72.39.59.59,0,0,0,.39.73c.11,0,11,3.3,15.74,5.71a.59.59,0,0,0,.68-.11Z"/><path class="cls-2" d="M92,9.19a67.5,67.5,0,0,0-9.84-4.63.6.6,0,0,0-.76.35.58.58,0,0,0,.35.75,66.72,66.72,0,0,1,9.63,4.52.57.57,0,0,0,.72-.08l.09-.1A.59.59,0,0,0,92,9.19Z"/><path class="cls-2" d="M94.64,10.67l-.11-.05-.1,0h-.12a.58.58,0,0,0-.48.26.53.53,0,0,0-.06.1l0,.11a.49.49,0,0,0,0,.12.64.64,0,0,0,0,.22.53.53,0,0,0,.06.1l.07.09a.58.58,0,0,0,.41.17h.12l.1,0,.11,0a.27.27,0,0,0,.08-.07.6.6,0,0,0,.18-.42.52.52,0,0,0,0-.11.45.45,0,0,0,0-.11.47.47,0,0,0,0-.1l-.08-.09a.27.27,0,0,0-.08-.07Z"/><path class="cls-2" d="M101.42,38.11a.49.49,0,0,0,0,.11s0,.08,0,.11,0,.08,0,.12a.49.49,0,0,0,0,.11l0,.1.07.09.09.07.1,0,.11,0h.23l.11,0,.1,0,.09-.07a.59.59,0,0,0,.17-.42.45.45,0,0,0,0-.11l0-.11-.06-.1-.07-.09a.58.58,0,0,0-.41-.17h-.12l-.11,0-.1.06a.61.61,0,0,0-.16.16l0,.1Z"/><path class="cls-2" d="M99.67,37.79a.6.6,0,0,0,.71-.1l.09-.12a.59.59,0,0,0-.22-.8,75.65,75.65,0,0,0-13.85-6,.59.59,0,0,0-.73.4.58.58,0,0,0,.4.72,74.77,74.77,0,0,1,13.6,5.94Z"/><path class="cls-5" d="M78.25,80.5l.06-6.29-4.93,0-.06,6.3-2.52,0A3.49,3.49,0,0,0,67.35,84l-.09,9.44,17-.16.09-9.44A3.33,3.33,0,0,0,81,80.48l-2.74,0Z"/><path class="cls-2" d="M67.85,92.87l15.85-.15.09-8.87A2.77,2.77,0,0,0,81,81.06l-2.75,0a.63.63,0,0,1-.42-.17.59.59,0,0,1-.17-.42l.06-5.7-3.76,0-.06,5.73a.59.59,0,0,1-.58.58l-2.52,0A2.91,2.91,0,0,0,67.94,84l-.09,8.84Zm16.84.84a.53.53,0,0,1-.4.17l-17,.17a.58.58,0,0,1-.59-.59L66.77,84a4.09,4.09,0,0,1,4-4l1.95,0,.05-5.72a.59.59,0,0,1,.58-.58l4.93,0a.59.59,0,0,1,.42.17.55.55,0,0,1,.17.42l0,5.7,2.15,0a3.93,3.93,0,0,1,4,4l-.09,9.44a.6.6,0,0,1-.18.41Z"/><path class="cls-1" d="M84.37,83.91v0A3.33,3.33,0,0,0,81,80.48l-2.74,0-4.93,0-2.52,0h-.25l-2.62,5.15s7.1,6.07,9.55,7.62H78.6c1-1.35,3.84-6.1,5.77-9.44Z"/><path class="cls-2" d="M84.37,83.91Zm-6.72,8.87h.66c.87-1.21,2.79-4.38,5.48-9A2.77,2.77,0,0,0,81,81.06l-10.09.1L68.66,85.6c1.42,1.2,6.81,5.74,9,7.18Zm1.37,1a.63.63,0,0,1-.41.17H77.48a.62.62,0,0,1-.32-.09c-2.45-1.56-9.32-7.43-9.61-7.67a.57.57,0,0,1-.14-.71L70,80.33A.61.61,0,0,1,70.5,80h0l.28,0,10.2-.1a3.93,3.93,0,0,1,4,4v0a.55.55,0,0,1-.08.29c-2.08,3.6-4.78,8.16-5.81,9.51l0,.06Z"/><path class="cls-3" d="M83.24,80.46h0a3.23,3.23,0,0,0-.44,0l-1.83,0a14.31,14.31,0,0,1,.09,1.63c0,4.61-10.63,4.71-10.59.1a14.19,14.19,0,0,1,.12-1.63l-1.83,0a3.08,3.08,0,0,0-.43,0h0A6.42,6.42,0,0,0,62,86.94l-.07,7.16,4.1,0,1.4,15.1A18.45,18.45,0,0,0,75,110.85a59.49,59.49,0,0,0,8.42-.69l1.9-16.28,4.1,0,.07-7.16a6.13,6.13,0,0,0-6.22-6.22Z"/><path class="cls-2" d="M68,108.77a18.17,18.17,0,0,0,7,1.5,58.86,58.86,0,0,0,7.89-.62l1.85-15.84a.59.59,0,0,1,.58-.52l3.52,0,.07-6.58A5.57,5.57,0,0,0,83.24,81h-.43l-1.2,0a9.32,9.32,0,0,1,0,1.06,3.65,3.65,0,0,1-2,3.15,8.66,8.66,0,0,1-7.84,0,3.45,3.45,0,0,1-1.87-3.05c0-.35,0-.7,0-1H68.59a1.07,1.07,0,0,0-.18,0h-.08A5.84,5.84,0,0,0,62.56,87l-.06,6.56,3.5,0a.59.59,0,0,1,.59.53L68,108.77Zm15.84,1.81a.57.57,0,0,1-.32.16,59.78,59.78,0,0,1-8.51.7,18.9,18.9,0,0,1-7.83-1.76.59.59,0,0,1-.32-.47L65.48,94.65l-3.57,0a.58.58,0,0,1-.41-.17.58.58,0,0,1-.18-.42l.07-7.16A7,7,0,0,1,68.29,80a2,2,0,0,1,.34,0h.13l1.83,0a.57.57,0,0,1,.44.2.58.58,0,0,1,.14.47,11.81,11.81,0,0,0-.11,1.56,2.28,2.28,0,0,0,1.29,2,7.49,7.49,0,0,0,6.67,0,2.47,2.47,0,0,0,1.46-2.15,13.43,13.43,0,0,0-.09-1.55.59.59,0,0,1,.14-.46.61.61,0,0,1,.44-.2l1.83,0h.12a2,2,0,0,1,.35,0,6.73,6.73,0,0,1,6.78,6.82L90,93.84a.58.58,0,0,1-.58.58l-3.59,0L84,110.23a.64.64,0,0,1-.17.35Z"/><path class="cls-2" d="M86.1,86.25a.6.6,0,0,0-.65.52l-2.64,23.39a.57.57,0,0,0,.51.64.58.58,0,0,0,.48-.16.64.64,0,0,0,.17-.35L86.61,86.9a.58.58,0,0,0-.51-.65Z"/><path class="cls-2" d="M65.36,86.45a.58.58,0,0,0-.53.64l2,22.18a.59.59,0,0,0,.64.53.53.53,0,0,0,.36-.17.59.59,0,0,0,.17-.46L66,87a.58.58,0,0,0-.63-.53Z"/><path class="cls-5" d="M84,68.11c0,5-3.73,9-8.22,9s-8.1-3.93-8-8.87,3.73-9,8.22-9,8.1,3.92,8,8.86Z"/><path class="cls-2" d="M70.83,62a8.93,8.93,0,0,0-2.56,6.24,8.6,8.6,0,0,0,2.43,6.17,7,7,0,0,0,5,2.11c4.17,0,7.6-3.83,7.64-8.45h0A8.63,8.63,0,0,0,81,61.93a7,7,0,0,0-5-2.1A7.31,7.31,0,0,0,70.83,62ZM81.64,75.17a8.49,8.49,0,0,1-5.9,2.56,8.15,8.15,0,0,1-5.87-2.45,9.85,9.85,0,0,1-2.77-7c.05-5.25,4-9.56,8.8-9.61a8.14,8.14,0,0,1,5.87,2.45,9.75,9.75,0,0,1,2.77,7,10.07,10.07,0,0,1-2.9,7Z"/><path class="cls-1" d="M75.67,58.75c-6.12.06-9.46,5.75-9.5,10.45a9.27,9.27,0,0,0,.94,3c.35,1.06,3.83.93,3.84-.21l0-3.83a3.09,3.09,0,0,1,2.94-3.16l3.85,0a3,3,0,0,1,2.88,3.09l0,3.84c0,1.13,3.36,1.72,3.73.65a12.2,12.2,0,0,0,.94-3.52c0-4.69-3.49-10.39-9.62-10.33Z"/><path class="cls-2" d="M71.53,65.5a3.43,3.43,0,0,1,2.39-1l3.85,0a3.32,3.32,0,0,1,2.4,1,3.78,3.78,0,0,1,1.07,2.7l0,3.83c0,.11.42.43,1.23.57a1.83,1.83,0,0,0,1.38-.12c0-.14.1-.3.16-.46a9.66,9.66,0,0,0,.74-2.87,10.5,10.5,0,0,0-3-7.25,8.2,8.2,0,0,0-6-2.48h0c-6.09.06-8.89,5.8-8.93,9.86a4.75,4.75,0,0,0,.54,1.93c.13.3.26.61.37.93,0,.09.45.31,1.22.33A2.21,2.21,0,0,0,70.37,72l0-3.82a3.83,3.83,0,0,1,1.13-2.7Zm13.1,7.74a2.86,2.86,0,0,1-2.4.43c-1.34-.23-2.2-.91-2.19-1.73l0-3.83a2.59,2.59,0,0,0-.73-1.86,2.12,2.12,0,0,0-1.56-.65l-3.84,0a2.51,2.51,0,0,0-2.37,2.57l0,3.84c0,.73-.69,1.27-1.82,1.45s-2.8,0-3.17-1.07c-.09-.27-.21-.55-.33-.84a5.72,5.72,0,0,1-.64-2.4,12.25,12.25,0,0,1,2.6-7.32,9.44,9.44,0,0,1,7.49-3.7h0A9.39,9.39,0,0,1,82.55,61a11.68,11.68,0,0,1,3.33,8.1,10.49,10.49,0,0,1-.81,3.25l-.16.45a1.15,1.15,0,0,1-.28.45Z"/><path class="cls-3" d="M75.79,55.82c-9,.09-11.91,5.53-12,12A7.27,7.27,0,0,0,66,72.92C67,74,68.65,74,68.67,72.4l0-5.26a4.38,4.38,0,0,1,4.33-4.32l5.65-.06A4.19,4.19,0,0,1,83,67l0,5.26a1.39,1.39,0,0,0,2.7.47c0-.1,2.25-2.7,2.28-5.53.06-6.43-3.08-11.47-12.09-11.38Z"/><path class="cls-2" d="M69.59,63.69A4.93,4.93,0,0,1,73,62.23l5.66,0a4.72,4.72,0,0,1,3.43,1.39A4.77,4.77,0,0,1,83.53,67l0,5.26a.71.71,0,0,0,.57.76.89.89,0,0,0,1-.55,1.47,1.47,0,0,1,.14-.21,9,9,0,0,0,2.08-5.07c0-3.46-.87-6.13-2.69-8s-4.89-2.88-8.8-2.85h0c-7.49.08-11.32,3.91-11.4,11.39a6.79,6.79,0,0,0,1.95,4.7l0,0a1.48,1.48,0,0,0,1.41.53c.2-.08.3-.3.3-.65l.06-5.25a5,5,0,0,1,1.45-3.45ZM86.13,73v0Zm-.44.64a2,2,0,0,1-1.9.56,1.89,1.89,0,0,1-1.48-1.91l0-5.26a3.59,3.59,0,0,0-3.65-3.65l-5.66,0a3.8,3.8,0,0,0-3.74,3.75l-.06,5.26a1.73,1.73,0,0,1-1,1.71,2.58,2.58,0,0,1-2.68-.79h0a7.82,7.82,0,0,1-2.29-5.54c0-3.69,1-6.63,2.76-8.74,2.13-2.48,5.42-3.76,9.78-3.81h0c4.25,0,7.49,1,9.65,3.19s3.07,5,3,8.79A10.15,10.15,0,0,1,86.15,73l0,0a2.1,2.1,0,0,1-.42.59Z"/><path class="cls-2" d="M69,60.31a.59.59,0,0,0,1,.57,2.94,2.94,0,0,1,2.56-1.33A.58.58,0,0,0,73.2,59a.58.58,0,0,0-.59-.58A4.16,4.16,0,0,0,69,60.31Z"/><path class="cls-2" d="M78.72,58.32a.59.59,0,1,0,0,1.17,2.8,2.8,0,0,1,2.52,1.26A.58.58,0,0,0,82,61a.71.71,0,0,0,.14-.1.57.57,0,0,0,.1-.69,4,4,0,0,0-3.56-1.88Z"/><path class="cls-2" d="M65.82,66.81l-.12,2a.59.59,0,0,0,.55.62.62.62,0,0,0,.45-.17.58.58,0,0,0,.17-.38l.12-2a.59.59,0,0,0-.55-.61.58.58,0,0,0-.62.54Z"/><path class="cls-2" d="M85.28,66a.58.58,0,0,0-.59.58l0,1.69a.59.59,0,0,0,1,.42.61.61,0,0,0,.17-.41l0-1.69a.59.59,0,0,0-.58-.59Z"/><path class="cls-2" d="M74.85,103.77l-.35,4.34a.6.6,0,0,0,.54.63.63.63,0,0,0,.46-.17.61.61,0,0,0,.17-.37l.35-4.34a.59.59,0,1,0-1.17-.09Z"/><path class="cls-2" d="M74.74,96.91l.11,4.1a.58.58,0,0,0,.6.57.57.57,0,0,0,.4-.17A.56.56,0,0,0,76,101l-.12-4.11a.57.57,0,0,0-.6-.56.57.57,0,0,0-.56.6Z"/><path class="cls-2" d="M75.34,85.51a.58.58,0,0,0-.6.57l-.24,7.51a.58.58,0,0,0,.57.6A.6.6,0,0,0,75.5,94a.61.61,0,0,0,.17-.4l.23-7.51a.58.58,0,0,0-.56-.6Z"/><path class="cls-2" d="M71.17,107.21a1.48,1.48,0,0,1-1.29-1.42l-.08-4.22a.57.57,0,0,0-.59-.57.59.59,0,0,0-.58.6l.09,4.22a2.62,2.62,0,0,0,2.3,2.55l1.25.14a.6.6,0,0,0,.42-.18.59.59,0,0,0,.17-.41.58.58,0,0,0-.58-.58l-1.11-.13Z"/><path class="cls-6" d="M75.55,115.59,76,122.1c-.27-3.72-.49-6.51-.49-6.51ZM67,109.29l.35,1.38a3.06,3.06,0,0,0-1.4,3.42,4.86,4.86,0,0,0,2.66,3l4.51,15.28c.11.38,1,.64,2,.58a4,4,0,0,0,1-.17,2.4,2.4,0,0,0,.39-.17,3.51,3.51,0,0,0,1.27-.27.91.91,0,0,0,.5-.43l4.65-15.13a4.36,4.36,0,0,0,2-2.32,3.14,3.14,0,0,0-1-3.12l.21-1.43L67,109.29Z"/><path class="cls-2" d="M76.4,122.3a.68.68,0,0,1-.34.09c-.28,0-.51-.11-.52-.27l-.6-6.52c0-.24.23-.43.57-.44s.63.19.64.43h0c0,.09.18,2.87.39,6.5a.26.26,0,0,1-.14.21Zm-.2,10.2a.52.52,0,0,1,.23-.05,3,3,0,0,0,1-.22h0a.68.68,0,0,0,.4-.35l4.43-15.18a.5.5,0,0,1,.19-.23,3.9,3.9,0,0,0,1.8-2,2.78,2.78,0,0,0-.94-2.74.41.41,0,0,1-.14-.37l.11-.9-15.44-.5.18.78a.39.39,0,0,1-.18.44,2.7,2.7,0,0,0-1.26,3,4.2,4.2,0,0,0,2.31,2.64.51.51,0,0,1,.28.3l4.25,15.27c.09.31.81.52,1.61.47a3.11,3.11,0,0,0,.79-.13,1.8,1.8,0,0,0,.31-.14Zm1.73-.12a4.07,4.07,0,0,1-1.32.31,3,3,0,0,1-.36.14,5.3,5.3,0,0,1-1.13.2c-1.15.07-2.2-.23-2.34-.68l-4.72-15.11a5.41,5.41,0,0,1-2.78-3.17,3.4,3.4,0,0,1,1.27-3.68l-.29-1.11a.42.42,0,0,1,.11-.43.65.65,0,0,1,.5-.17l17.3.63c.37,0,.62.26.57.57l-.2,1.22a3.5,3.5,0,0,1,.94,3.34,4.71,4.71,0,0,1-2.11,2.46l-4.83,15a1.05,1.05,0,0,1-.6.51Z"/><path class="cls-6" d="M75.51,115.07l-.83,16.76c-.07.4.48.73,1.47.73a3.92,3.92,0,0,0,1.49-.28.88.88,0,0,0,.5-.43l4.72-15.11-7.35-1.67Z"/><path class="cls-2" d="M77.87,132.36a4.59,4.59,0,0,1-1.75.32c-1.1,0-1.86-.34-1.79-.85L74.89,115c0-.24.29-.43.64-.41s.61.23.59.47L75,131.83h0c0,.3.29.6,1.16.6a3,3,0,0,0,1.22-.23h0a.65.65,0,0,0,.4-.35l4.5-15.16a.67.67,0,0,1,.68-.35c.31,0,.51.22.43.44l-4.94,15.07a1,1,0,0,1-.59.5Z"/><path class="cls-2" d="M77.44,126h-.16a.57.57,0,0,0-.36.11l0,0,0,0v0a.06.06,0,0,0,0,0,.05.05,0,0,0,0,0l0,0,0,0a.9.9,0,0,0,.3,0h.17l.07,0,.06,0c.08,0,.13-.1.12-.15s0-.11-.13-.15l-.06,0Z"/><path class="cls-2" d="M72.83,126.3h.26l.08,0,.07,0,.06,0a.15.15,0,0,0,.1-.16l0,0s0,0,0,0a.1.1,0,0,0,0,0l-.06,0-.07,0h-.26a.58.58,0,0,0-.35.12l0,0s0,0,0,0a.06.06,0,0,0,0,0,.25.25,0,0,0,.16.16l.07,0,.08,0Z"/><path class="cls-2" d="M76.66,127.29l-.13,1.55c0,.09.16.17.37.17a.88.88,0,0,0,.3-.07c.06,0,.1-.07.1-.11l.19-1.55c0-.11-.16-.2-.39-.2s-.43.09-.44.21Z"/><path class="cls-7" d="M72.85,133c-.57,0-1.08-.12-1.16-.33l-.28-.78s.06-.09.18-.09h0l4.93-.27c.12,0,.21,0,.22.07l.07.78c0,.22-.42.42-1,.45l-3,.17Z"/><path class="cls-2" d="M72.81,132.91l3-.17c.39,0,.69-.16.67-.31l-.08-.73-4.62.26.24.72c.06.15.4.25.79.23Zm4-.13a2.79,2.79,0,0,1-.92.2l-3,.17h0c-.75,0-1.42-.15-1.53-.43l-.29-.78c0-.06,0-.12.11-.16h0a1.13,1.13,0,0,1,.37-.08h0l5-.27c.31,0,.56.07.57.19l.06.78c0,.15-.13.29-.37.39Z"/><path class="cls-4" d="M72.9,131.39a.42.42,0,0,1-.22,0L72,130.8c-.17-.13,0-.28.26-.35a.78.78,0,0,1,.22,0l2.37-.12h0c.35,0,.64.09.65.23a.09.09,0,0,1,0,.09l-.46.6a.28.28,0,0,1-.19.06l-1.93.11Z"/><path class="cls-2" d="M73,131.24l1.75-.1.43-.55a.08.08,0,0,0,0,0c0-.06-.13-.1-.27-.1h0l-2.35.13h-.08a.18.18,0,0,0-.13.06s0,0,0,.08l.63.51Zm2.28.1a1.27,1.27,0,0,1-.38.08l-1.92.11h0a1,1,0,0,1-.57-.12l-.69-.54c-.13-.1-.15-.21-.08-.31a.84.84,0,0,1,.5-.25l.34-.05,2.41-.12c.55,0,1,.15,1,.37a.24.24,0,0,1-.06.15l-.46.59-.12.09Z"/><path class="cls-1" d="M73.82,132.5c-.94.05-1.09,0-1.14,0a1.63,1.63,0,0,1-.76-.25l0,0a1.12,1.12,0,0,1-.52-.42c-.1-.28.47-.54,1.26-.58l2.62-.14h0c.77,0,1.41.16,1.44.43a.67.67,0,0,1-.3.46v0a1.81,1.81,0,0,1-.88.35c-.17,0-1.26.09-1.73.11Z"/><path class="cls-2" d="M75.43,132.27a1.47,1.47,0,0,0,.67-.26.05.05,0,0,1,0,0c.16-.13.27-.29.26-.39s-.51-.33-1.09-.31h0l-2.6.14a2,2,0,0,0-.76.17h0c-.14.08-.2.16-.17.25a.9.9,0,0,0,.43.36l.06,0a1.3,1.3,0,0,0,.51.18s.19,0,1,0h0c.64,0,1.5-.08,1.64-.1Zm1,0a3.39,3.39,0,0,1-.77.22c-.24,0-1.56.11-1.77.12h0c-1,.05-1.14,0-1.22,0a2.22,2.22,0,0,1-1-.31l0,0a1.14,1.14,0,0,1-.56-.47c-.06-.15,0-.31.31-.45h0a3.35,3.35,0,0,1,1.25-.28l2.67-.14c1,0,1.77.21,1.8.56a.74.74,0,0,1-.31.51l0,0a1.19,1.19,0,0,1-.33.22Z"/><path class="cls-7" d="M75.12,133.15c-.55,0-1-.11-1.09-.32l-.18-.76s.07-.09.19-.09h0l4.81-.27c.11,0,.2,0,.2.07v.76c0,.21-.45.41-1,.44l-2.9.17Z"/><path class="cls-2" d="M75.1,133l2.93-.17c.38,0,.69-.15.69-.3v-.71l-4.51.25.16.71c0,.14.36.24.74.22ZM79,132.9a2.61,2.61,0,0,1-.92.2l-2.9.17h0c-.73,0-1.36-.15-1.44-.42l-.19-.76c0-.06,0-.12.12-.16h0a1,1,0,0,1,.37-.09h0l4.84-.26c.3,0,.54.07.53.18l0,.76c0,.15-.16.28-.4.38Z"/><path class="cls-4" d="M75.35,131.55a.37.37,0,0,1-.2-.05l-.6-.52c-.15-.13,0-.28.3-.34a.66.66,0,0,1,.21,0l2.31-.12h0c.33,0,.6.08.6.22a.12.12,0,0,1,0,.09l-.51.58a.31.31,0,0,1-.19.06l-1.89.11Z"/><path class="cls-2" d="M75.43,131.4l1.71-.09.47-.54s0,0,0,0-.11-.1-.25-.09h0l-2.29.12H75a.2.2,0,0,0-.13.06s0,0,0,.08l.56.49Zm2.2.1a1.27,1.27,0,0,1-.38.08l-1.87.1h0a.89.89,0,0,1-.54-.11l-.61-.52a.21.21,0,0,1,0-.31,1,1,0,0,1,.51-.24,1.86,1.86,0,0,1,.34,0l2.35-.13c.53,0,1,.14,1,.37a.23.23,0,0,1-.07.14l-.52.57a.38.38,0,0,1-.12.09Z"/><path class="cls-1" d="M76.12,132.64c-.91,0-1.06,0-1.11,0a1.6,1.6,0,0,1-.71-.24s0,0,0,0a.92.92,0,0,1-.45-.42c-.06-.26.52-.51,1.29-.56l2.56-.13h0c.75,0,1.35.15,1.35.41a.75.75,0,0,1-.34.45v0a1.89,1.89,0,0,1-.9.34c-.16,0-1.22.09-1.68.11Z"/><path class="cls-2" d="M77.72,132.41a1.71,1.71,0,0,0,.67-.25s0,0,0,0a.61.61,0,0,0,.3-.38c0-.19-.46-.32-1-.3h0l-2.54.13a2.14,2.14,0,0,0-.76.17h0c-.15.07-.22.15-.2.24a.81.81,0,0,0,.38.35.1.1,0,0,1,0,0,1.12,1.12,0,0,0,.47.18l1,0h0c.63,0,1.46-.08,1.61-.1Zm.94,0a3.39,3.39,0,0,1-.77.22c-.24,0-1.52.11-1.73.12h0a8.69,8.69,0,0,1-1.19,0,1.73,1.73,0,0,1-.93-.3s0,0,0,0a.92.92,0,0,1-.49-.46c0-.15.08-.31.35-.44h0a3.39,3.39,0,0,1,1.24-.28l2.61-.14c1,0,1.69.2,1.69.54a.86.86,0,0,1-.37.5,0,0,0,0,1,0,0,1.1,1.1,0,0,1-.34.21Z"/><path class="cls-2" d="M76.84,132l-1.15.06c-.19,0-.33.07-.32.14s.17.13.35.12l1.13-.06a1.11,1.11,0,0,0,.24,0c.06,0,.09-.06.09-.1S77,132,76.84,132Z"/><path class="cls-2" d="M72.82,127.09l.13.64c0,.11.23.19.46.18a.72.72,0,0,0,.28-.07c.07,0,.11-.09.1-.14l-.12-.65c0-.11-.23-.2-.47-.19s-.41.11-.38.23Z"/><path class="cls-2" d="M82.31,113.93a.62.62,0,0,0-.65.46c-.09,1-1.28,1.22-1.41,1.24a.54.54,0,0,0-.49.38l-.43,2.26c0,.2.18.37.48.39a.82.82,0,0,0,.45-.12.34.34,0,0,0,.17-.22l.31-1.43.39-.63a2.42,2.42,0,0,0,1.74-1.88c0-.25-.22-.45-.56-.45Z"/><path class="cls-6" d="M111.46,93.19,40.07,95.44,75.66,28.87l35.8,64.32Zm-75.72,5,80.06-2.53L75.64,23.43,35.74,98.19Z"/><path class="cls-2" d="M41.07,94.82l69.42-2.19L75.67,30.09,41.07,94.82Zm70.81-1.22a.6.6,0,0,1-.4.17L40.09,96a.56.56,0,0,1-.51-.27.59.59,0,0,1,0-.59L75.14,28.6a.59.59,0,0,1,1,0L112,92.9a.6.6,0,0,1,0,.58l-.09.12Zm-75.15,4,78.09-2.47L75.66,24.65,36.73,97.57Zm79.48-1.5a.56.56,0,0,1-.39.17L35.76,98.77a.58.58,0,0,1-.52-.28.6.6,0,0,1,0-.58L75.13,23.15a.58.58,0,0,1,.51-.31.62.62,0,0,1,.52.3l40.15,72.23a.58.58,0,0,1,0,.57.64.64,0,0,1-.1.13Z"/><path class="cls-5" d="M88.31,91c-.85,0-1.78,0-2.65-.09a3.49,3.49,0,0,0-3.87,3.9l.53.33,9,1.48c.32,0,.21-2,.21-2.34,0,0,0-.15,0-.16A3.12,3.12,0,0,0,88.31,91Z"/><path class="cls-2" d="M82.36,94.59h0L90.9,96c0-.26,0-.69,0-1.41V94.3a1.13,1.13,0,0,1,0-.14v0a2.55,2.55,0,0,0-2.63-2.5c-1,0-1.89,0-2.67-.09a3.23,3.23,0,0,0-2.51.91,2.88,2.88,0,0,0-.76,2.16Zm9.39,2.47a.66.66,0,0,1-.45.18h-.12l-9-1.48a.64.64,0,0,1-.43-.32.59.59,0,0,1-.58-.53,4,4,0,0,1,1.07-3.28,4.4,4.4,0,0,1,3.41-1.27c.77.05,1.65.08,2.63.1a3.69,3.69,0,0,1,3.78,3.7l0,.15v.26c0,1.15.06,2.11-.33,2.5Z"/><path class="cls-5" d="M84.23,94l-.06,4.27a1.12,1.12,0,0,0,1.2,1.06,1.18,1.18,0,0,0,1.23-1.08L86.66,94l-2.43,0Z"/><path class="cls-2" d="M86.7,99.39a1.94,1.94,0,0,1-1.33.55A1.9,1.9,0,0,1,84,99.4a1.57,1.57,0,0,1-.46-1.12L83.64,94a.6.6,0,0,1,.6-.58.58.58,0,0,1,.57.6l-.06,4.26a.44.44,0,0,0,.12.29.7.7,0,0,0,.49.19c.35,0,.65-.24.65-.51L86.08,94a.58.58,0,1,1,1.16,0l-.06,4.27a1.58,1.58,0,0,1-.48,1.11Z"/><path class="cls-5" d="M81.79,94.05l0,3.65A1.12,1.12,0,0,0,83,98.76a1.17,1.17,0,0,0,1.23-1.08l0-3.66-2.44,0Z"/><path class="cls-2" d="M84.29,98.8a1.92,1.92,0,0,1-1.32.55,1.87,1.87,0,0,1-1.33-.53,1.58,1.58,0,0,1-.47-1.12l0-3.66a.59.59,0,0,1,.59-.58.6.6,0,0,1,.58.59l0,3.66a.37.37,0,0,0,.13.28.7.7,0,0,0,.49.19.62.62,0,0,0,.65-.51l0-3.65a.58.58,0,0,1,.59-.58.59.59,0,0,1,.58.59l0,3.65a1.56,1.56,0,0,1-.48,1.12Z"/><path class="cls-5" d="M86.66,94.25l0,3.48a1.1,1.1,0,0,0,1.21,1h0a1.15,1.15,0,0,0,1.22-1l0-3.48-2.44,0Z"/><path class="cls-2" d="M89.18,98.78a2,2,0,0,1-1.34.55,1.92,1.92,0,0,1-1.35-.53,1.47,1.47,0,0,1-.44-1.07l0-3.48a.58.58,0,0,1,.59-.58.59.59,0,0,1,.58.59l0,3.48a.33.33,0,0,0,.11.23.73.73,0,0,0,.51.19c.38,0,.65-.24.65-.46l0-3.48a.59.59,0,0,1,.59-.58.6.6,0,0,1,.58.6l0,3.48a1.55,1.55,0,0,1-.47,1.06Z"/><path class="cls-5" d="M89.07,94l0,3A1.13,1.13,0,0,0,90.25,98,1.17,1.17,0,0,0,91.47,97l0-3-2.43,0Z"/><path class="cls-2" d="M91.58,98.08a1.89,1.89,0,0,1-1.33.54,1.84,1.84,0,0,1-1.33-.52A1.57,1.57,0,0,1,88.46,97l0-3a.58.58,0,0,1,.59-.58.6.6,0,0,1,.58.59l0,3a.39.39,0,0,0,.12.28.65.65,0,0,0,.49.18.6.6,0,0,0,.65-.5l0-3a.58.58,0,0,1,.59-.58.59.59,0,0,1,.58.59l0,3a1.66,1.66,0,0,1-.48,1.12Z"/><path class="cls-5" d="M65.7,91.13c-.87.07-1.8.11-2.65.15a3.26,3.26,0,0,0-3.26,3.17s0,.16,0,.17c0,.32.29,2.62.62,2.62l8.8-.82L69.5,95a3.36,3.36,0,0,0-3.8-3.83Z"/><path class="cls-2" d="M69.63,96.83a.53.53,0,0,1-.36.17l-8.8.82h-.06c-.64,0-.83-.76-1-1.67a11.24,11.24,0,0,1-.19-1.51v-.06a1,1,0,0,1,0-.14A3.84,3.84,0,0,1,63,90.69c1,0,1.86-.08,2.63-.14a4.21,4.21,0,0,1,3.4,1.21,3.9,3.9,0,0,1,1,3.27.59.59,0,0,1-1.17-.13,2.77,2.77,0,0,0-.69-2.33,3,3,0,0,0-2.48-.85c-.78,0-1.68.1-2.67.14a2.68,2.68,0,0,0-2.7,2.57v0a1,1,0,0,1,0,.14,13.13,13.13,0,0,0,.33,2l8.45-.79a.58.58,0,0,1,.64.53.54.54,0,0,1-.17.46Z"/><path class="cls-5" d="M64.64,94.22l0,4.26a1.13,1.13,0,0,0,1.21,1.06,1.18,1.18,0,0,0,1.22-1.09l0-4.26-2.43,0Z"/><path class="cls-2" d="M67.15,99.58a1.89,1.89,0,0,1-1.31.55,1.87,1.87,0,0,1-1.33-.53A1.55,1.55,0,0,1,64,98.48l0-4.26a.58.58,0,0,1,.58-.59.59.59,0,0,1,.59.59l0,4.27a.37.37,0,0,0,.13.28.7.7,0,0,0,.49.19c.35,0,.65-.24.65-.51l0-4.27a.58.58,0,0,1,.59-.58.59.59,0,0,1,.58.59l0,4.27a1.63,1.63,0,0,1-.49,1.12Z"/><path class="cls-5" d="M67.07,94.19l0,3.66a1.13,1.13,0,0,0,1.21,1.06,1.18,1.18,0,0,0,1.22-1.09l0-3.65-2.44,0Z"/><path class="cls-2" d="M69.57,99a1.91,1.91,0,0,1-2.65,0,1.58,1.58,0,0,1-.47-1.12l0-3.66a.57.57,0,0,1,.59-.57.58.58,0,0,1,.58.59l0,3.65a.42.42,0,0,0,.13.29.69.69,0,0,0,.49.18.61.61,0,0,0,.65-.5l0-3.66a.6.6,0,0,1,.59-.58.58.58,0,0,1,.58.59l0,3.66A1.63,1.63,0,0,1,69.57,99Z"/><path class="cls-5" d="M62.2,94.49l0,3.48a1.1,1.1,0,0,0,1.2,1,1.17,1.17,0,0,0,1.23-1l0-3.48-2.43,0Z"/><path class="cls-2" d="M64.72,99a1.9,1.9,0,0,1-1.34.54A1.86,1.86,0,0,1,62,99,1.54,1.54,0,0,1,61.58,98l0-3.48a.58.58,0,1,1,1.16,0l0,3.48a.33.33,0,0,0,.11.23.71.71,0,0,0,.51.19c.37,0,.64-.25.64-.46l0-3.48a.59.59,0,0,1,.59-.58.6.6,0,0,1,.58.59l0,3.48A1.54,1.54,0,0,1,64.72,99Z"/><path class="cls-5" d="M59.8,94.26l0,3A1.11,1.11,0,0,0,61,98.32a1.17,1.17,0,0,0,1.23-1.08l0-3-2.43,0Z"/><path class="cls-2" d="M62.3,98.36a1.92,1.92,0,0,1-1.32.55,1.87,1.87,0,0,1-1.33-.53,1.58,1.58,0,0,1-.47-1.12l0-3a.58.58,0,0,1,.59-.58.58.58,0,0,1,.58.59l0,3a.42.42,0,0,0,.13.29.72.72,0,0,0,.49.18.61.61,0,0,0,.65-.5l0-3a.58.58,0,1,1,1.16,0l0,3a1.55,1.55,0,0,1-.48,1.11Z"/><path class="cls-2" d="M19.5,54.33a.58.58,0,0,0-.35.75l16,43.31a.58.58,0,0,0,.75.34.5.5,0,0,0,.21-.13.59.59,0,0,0,.14-.62l-16-43.3a.59.59,0,0,0-.75-.35Z"/><path class="cls-2" d="M127,49.74a.57.57,0,0,0-.7.43l-11,45.35a.59.59,0,0,0,1,.55.56.56,0,0,0,.16-.28l11-45.35a.57.57,0,0,0-.43-.7Z"/><path class="cls-1" d="M47.7,105.29h0A2.81,2.81,0,0,1,45,102.4l.2-7.65A2.82,2.82,0,0,1,48.06,92h0A2.82,2.82,0,0,1,50.8,94.9l-.21,7.65a2.81,2.81,0,0,1-2.89,2.74Z"/><path class="cls-2" d="M46.41,93.25a2.18,2.18,0,0,0-.65,1.51l-.21,7.66a2.23,2.23,0,0,0,2.17,2.28h0A2.24,2.24,0,0,0,50,102.54l.2-7.66a2.22,2.22,0,0,0-3.8-1.63Zm3.77,11.63-.06.06a3.35,3.35,0,0,1-2.43.93h0a3.37,3.37,0,0,1-2.38-1.06,3.41,3.41,0,0,1-.93-2.42l.21-7.66a3.4,3.4,0,0,1,6.79.18l-.21,7.66a3.36,3.36,0,0,1-1,2.31Z"/><path class="cls-1" d="M103.35,103.6h0a2.81,2.81,0,0,1-2.74-2.88l.21-7.66a2.81,2.81,0,0,1,2.88-2.74h0a2.82,2.82,0,0,1,2.74,2.89l-.21,7.66a2.8,2.8,0,0,1-2.88,2.73Z"/><path class="cls-2" d="M102.05,91.56a2.23,2.23,0,0,0-.65,1.52l-.2,7.65a2.22,2.22,0,0,0,2.16,2.29h0a2.23,2.23,0,0,0,2.29-2.17l.2-7.65a2.2,2.2,0,0,0-2.16-2.29,2.21,2.21,0,0,0-1.64.65Zm3.77,11.63a3.38,3.38,0,0,1-4.86-.06,3.33,3.33,0,0,1-.93-2.43l.2-7.66a3.4,3.4,0,0,1,3.49-3.3,3.4,3.4,0,0,1,3.3,3.49l-.2,7.65a3.37,3.37,0,0,1-1,2.31Z"/><path class="cls-2" d="M102.9,97.93l-.13,3a.59.59,0,0,0,.56.61.58.58,0,0,0,.44-.17.61.61,0,0,0,.17-.39l.13-3a.59.59,0,0,0-1.17,0Z"/><path class="cls-2" d="M47.73,94.4a.35.35,0,0,0-.11,0l-.1,0a.69.69,0,0,0-.17.17.31.31,0,0,0-.05.1l0,.11a.37.37,0,0,0,0,.11.57.57,0,0,0,.17.41.58.58,0,0,0,.41.17H48a.2.2,0,0,0,.11,0l.11-.05.08-.08a.3.3,0,0,0,.08-.08.54.54,0,0,0,.05-.11.2.2,0,0,0,0-.11.36.36,0,0,0,0-.11.59.59,0,0,0-.18-.41.57.57,0,0,0-.41-.17Z"/><path class="cls-2" d="M47.26,97.3v2.34a.58.58,0,0,0,.58.58.55.55,0,0,0,.41-.17.56.56,0,0,0,.18-.41V97.3a.59.59,0,0,0-.59-.58.58.58,0,0,0-.58.58Z"/><path class="cls-2" d="M103.48,95a.58.58,0,0,0-.48.26l-.06.11,0,.1a.49.49,0,0,0,0,.12.37.37,0,0,0,0,.11l0,.11.06.1a.22.22,0,0,0,.07.09.58.58,0,0,0,.41.17h.12a.45.45,0,0,0,.11,0l.1,0,.09-.08a.58.58,0,0,0,.17-.41.61.61,0,0,0-.17-.42.63.63,0,0,0-.42-.17Z"/><ellipse class="cls-7" cx="74.05" cy="69.95" rx="1.59" ry="1.99"/><ellipse class="cls-7" cx="77.79" cy="69.95" rx="1.59" ry="1.99"/><path class="cls-8" d="M76.17,70a1.69,1.69,0,1,0,1.65-2.08A1.9,1.9,0,0,0,76.17,70Zm.06,0a1.59,1.59,0,1,1,1.55,2A1.78,1.78,0,0,1,76.23,70Z"/><path class="cls-8" d="M74.12,69.13a.84.84,0,1,0,.66.82A.76.76,0,0,0,74.12,69.13Zm-.2.87a.26.26,0,0,1-.23-.28.26.26,0,0,1,.23-.29.27.27,0,0,1,.23.29A.27.27,0,0,1,73.92,70Z"/><path class="cls-8" d="M77.71,69.13a.84.84,0,1,0,.66.82A.75.75,0,0,0,77.71,69.13ZM77.5,70a.26.26,0,0,1-.23-.28.24.24,0,1,1,.46,0A.26.26,0,0,1,77.5,70Z"/><path class="cls-8" d="M74,67.87A2.13,2.13,0,1,0,75.67,70,1.9,1.9,0,0,0,74,67.87Zm0,4a2,2,0,1,1,1.56-2A1.78,1.78,0,0,1,74.05,71.9Z"/><path class="cls-8" d="M75.71,71.74a.25.25,0,0,1,.15-.06.22.22,0,0,1,.14,0,.2.2,0,0,1,.08.08.36.36,0,0,1,0,.09s0,.1,0,.13a.06.06,0,0,0,0,0s0,0-.11-.13a.41.41,0,0,0-.13-.1h-.06l-.07,0a.89.89,0,0,0-.13.14l-.11.15a1,1,0,0,0-.09.14.43.43,0,0,1,0-.17.82.82,0,0,1,.06-.19A.59.59,0,0,1,75.71,71.74Z"/><path class="cls-8" d="M78.93,73c0-.12-.28-.58-.43-.49a4.83,4.83,0,0,1-5.17,0c-.15-.09-.43.37-.43.49a3.26,3.26,0,0,0,6,0Z"/><path class="cls-7" d="M75.92,73.9a3.31,3.31,0,0,0,2.76-1.12.51.51,0,0,0-.13-.15,4.95,4.95,0,0,1-5.27,0,.72.72,0,0,0-.13.15A3.33,3.33,0,0,0,75.92,73.9Z"/><path class="cls-8" d="M74.48,73.12h0s-.09.19-.12.25l-.07.24h.05l.11-.22A2.46,2.46,0,0,0,74.48,73.12Z"/><path class="cls-8" d="M73.75,72.86h0s-.09.12-.11.17a.6.6,0,0,0-.07.18h0a.74.74,0,0,0,.1-.16A1.14,1.14,0,0,0,73.75,72.86Z"/><path class="cls-8" d="M75.44,73.33h0a1.58,1.58,0,0,0-.08.28,1.37,1.37,0,0,0,0,.27h0a1,1,0,0,0,.07-.25A1.06,1.06,0,0,0,75.44,73.33Z"/><path class="cls-8" d="M77.4,73.1h0a2.18,2.18,0,0,0,.07.27c0,.06.09.19.11.22h0a1,1,0,0,0-.07-.24A2,2,0,0,0,77.4,73.1Z"/><path class="cls-8" d="M78.12,72.84h0a1.14,1.14,0,0,0,.07.19.74.74,0,0,0,.11.16h0a.94.94,0,0,0-.06-.18C78.21,73,78.15,72.85,78.12,72.84Z"/><path class="cls-8" d="M76.44,73.32h0a1.68,1.68,0,0,0,0,.29,1,1,0,0,0,.07.25h.05a1.48,1.48,0,0,0,0-.27A1.63,1.63,0,0,0,76.44,73.32Z"/><path class="cls-8" d="M72.91,67.05a1.3,1.3,0,0,1,.52-.12,1.22,1.22,0,0,1,.42.07,1.66,1.66,0,0,1,.26.12l.08.06-.09,0a1.46,1.46,0,0,0-.27,0,1.21,1.21,0,0,0-.38,0,1.53,1.53,0,0,0-.45.13,1.87,1.87,0,0,0-.39.25,2.21,2.21,0,0,0-.26.28c-.06.1-.1.18-.13.24l0,.09a.67.67,0,0,1,0-.1,1.12,1.12,0,0,1,.08-.28,1.3,1.3,0,0,1,.65-.67Z"/><path class="cls-8" d="M78.43,67.54,78,67.45a1.82,1.82,0,0,0-.33,0,1.07,1.07,0,0,0-.23,0l-.09,0,.08,0a1.1,1.1,0,0,1,.22-.11,1.53,1.53,0,0,1,.36-.07,1.5,1.5,0,0,1,.45.07,1.34,1.34,0,0,1,.39.23,1.38,1.38,0,0,1,.24.28,1.33,1.33,0,0,1,.1.23l0,.08a2,2,0,0,0-.21-.24,1.18,1.18,0,0,0-.27-.2A1.64,1.64,0,0,0,78.43,67.54Z"/></g></g></svg>